<svg xmlns="http://www.w3.org/2000/svg" width="14.107" height="14.107" viewBox="0 0 14.107 14.107">
    <path d="M11.168 1.176h-.588V.588a.588.588 0 1 0-1.18 0v.588H4.7V.588a.588.588 0 0 0-1.176 0v.588h-.585A2.942 2.942 0 0 0 0 4.114v7.053a2.942 2.942 0 0 0 2.939 2.939h8.229a2.942 2.942 0 0 0 2.939-2.939V4.114a2.942 2.942 0 0 0-2.939-2.938zM1.176 4.114a1.763 1.763 0 0 1 1.763-1.763h8.229a1.763 1.763 0 0 1 1.763 1.763V4.7H1.176zm9.992 8.817H2.939a1.763 1.763 0 0 1-1.763-1.763v-5.29h11.755v5.29a1.763 1.763 0 0 1-1.763 1.763z" />
    <circle cx=".882" cy=".882" r=".882" transform="translate(6.172 7.935)" />
    <circle cx=".882" cy=".882" r=".882" transform="translate(3.233 7.935)" />
    <circle cx=".882" cy=".882" r=".882" transform="translate(9.111 7.935)" />
</svg>
