<svg xmlns="http://www.w3.org/2000/svg" width="26.588" height="27.112" viewBox="0 0 26.588 27.112">
    <circle cx="2.288" cy="2.288" r="2.288" transform="translate(5.318 22.536)"/>
    <circle cx="2.288" cy="2.288" r="2.288" transform="translate(16.459 22.536)"/>
    <path d="M23.755 3.323h-2.216V1.108a1.108 1.108 0 0 0-2.216 0v2.215h-2.215a1.108 1.108 0 0 0 0 2.216h2.216v2.216a1.108 1.108 0 0 0 2.216 0V5.539h2.216a1.108 1.108 0 0 0 0-2.216z" transform="translate(1.725)"/>
    <path d="M24.119 10.775a1.1 1.1 0 0 0-1.287.893 3.323 3.323 0 0 1-3.27 2.734H6L4.961 5.539H14.4a1.108 1.108 0 1 0 0-2.216H4.7l-.047-.39A3.323 3.323 0 0 0 1.354 0h-.246a1.108 1.108 0 0 0 0 2.216h.246a1.108 1.108 0 0 1 1.1.978l1.524 12.961a5.539 5.539 0 0 0 5.5 4.893h11.571a1.108 1.108 0 0 0 0-2.216H9.48a3.324 3.324 0 0 1-3.134-2.216h13.215a5.539 5.539 0 0 0 5.452-4.556 1.108 1.108 0 0 0-.894-1.287z"/>
</svg>
