<svg xmlns="http://www.w3.org/2000/svg" width="25.809" height="25.833" viewBox="0 0 25.809 25.833">
    <circle cx="2.153" cy="2.153" r="2.153" transform="translate(5.382 21.527)"/>
    <circle cx="2.153" cy="2.153" r="2.153" transform="translate(16.145 21.527)"/>
    <path d="M24.437 1.358a1.076 1.076 0 0 0-1.522 0l-5.553 5.559-1.67-1.743a1.076 1.076 0 1 0-1.552 1.492l1.737 1.807a2.015 2.015 0 0 0 1.448.646h.036a2.016 2.016 0 0 0 1.437-.6l5.639-5.639a1.076 1.076 0 0 0 0-1.522z" transform="translate(1.057 .08)"/>
    <path d="M23.572 9.7a1.076 1.076 0 0 0-1.251.869l-.138.763a3.229 3.229 0 0 1-3.178 2.656H5.832L4.82 5.382h7.02a1.076 1.076 0 0 0 0-2.153H4.566l-.045-.379A3.229 3.229 0 0 0 1.315 0h-.239a1.076 1.076 0 0 0 0 2.153h.239a1.076 1.076 0 0 1 1.069.95L3.865 15.7a5.382 5.382 0 0 0 5.345 4.751h11.24a1.076 1.076 0 0 0 0-2.153H9.21a3.229 3.229 0 0 1-3.045-2.153h12.84a5.382 5.382 0 0 0 5.3-4.427l.138-.764a1.076 1.076 0 0 0-.871-1.254z"/>
</svg>
