<svg xmlns="http://www.w3.org/2000/svg" width="24" height="24" viewBox="0 0 24 24">
    <path data-name="Path 27809" d="M20 0H4a4 4 0 0 0-4 4v12a4 4 0 0 0 4 4h2.9l4.451 3.763a1 1 0 0 0 1.292 0L17.1 20H20a4 4 0 0 0 4-4V4a4 4 0 0 0-4-4zm2 16a2 2 0 0 1-2 2h-2.9a2 2 0 0 0-1.291.473L12 21.69l-3.807-3.217A2 2 0 0 0 6.9 18H4a2 2 0 0 1-2-2V4a2 2 0 0 1 2-2h16a2 2 0 0 1 2 2z" style="fill:#fff"/>
    <path data-name="Path 27810" d="M7 7h5a1 1 0 0 0 0-2H7a1 1 0 0 0 0 2z" style="fill:#fff"/>
    <path data-name="Path 27811" d="M17 9H7a1 1 0 0 0 0 2h10a1 1 0 0 0 0-2z" style="fill:#fff"/>
    <path data-name="Path 27812" d="M17 13H7a1 1 0 0 0 0 2h10a1 1 0 0 0 0-2z" style="fill:#fff"/>
</svg>
