<svg xmlns="http://www.w3.org/2000/svg" width="24.376" height="24.4" viewBox="0 0 24.376 24.4">
    <path d="M24.375 11.423A12.2 12.2 0 1 0 12.2 24.375h7.1a5.083 5.083 0 0 0 5.075-5.075zM22.344 19.3a3.047 3.047 0 0 1-3.044 3.044h-7.1a10.2 10.2 0 0 1-7.593-3.4A10.072 10.072 0 0 1 2.1 11.013a10.2 10.2 0 0 1 8.791-8.9 10.729 10.729 0 0 1 1.32-.083 10.076 10.076 0 0 1 6.479 2.336 10.2 10.2 0 0 1 3.656 7.152z" transform="translate(.001 .024)"/>
    <path d="M8.016 9.031h4.062a1.016 1.016 0 1 0 0-2.031H8.016a1.016 1.016 0 0 0 0 2.031z" transform="translate(.11 .134)"/>
    <path d="M16.141 11H8.016a1.016 1.016 0 0 0 0 2.031h8.125a1.016 1.016 0 1 0 0-2.031z" transform="translate(.11 .196)"/>
    <path d="M16.141 15H8.016a1.016 1.016 0 0 0 0 2.031h8.125a1.016 1.016 0 0 0 0-2.031z" transform="translate(.11 .259)"/>
</svg>
