<svg xmlns="http://www.w3.org/2000/svg" width="154.284" height="140.721" viewBox="0 0 154.284 140.721">
    <path transform="rotate(-16.244 179.14 12.388)" style="fill:#e99d7b" d="M0 0h134.652v12.241H0z"/>
    <path d="m335.2 296.077-19.054-65.4a1.9 1.9 0 0 1 1.3-2.361l126.143-36.753a1.906 1.906 0 0 1 2.361 1.3l16.88 57.937-.522.152-16.881-57.938a1.362 1.362 0 0 0-1.686-.925L317.6 228.841a1.36 1.36 0 0 0-.925 1.686l19.054 65.4z" transform="translate(-316.073 -191.489)" style="fill:#3f3d56"/>
    <path d="M739.646 363.139a1.772 1.772 0 0 1-1.7-1.274l-3.2-10.969a1.77 1.77 0 0 1 1.2-2.192l10.969-3.2a1.77 1.77 0 0 1 2.192 1.2l3.2 10.969a1.77 1.77 0 0 1-1.2 2.192l-10.969 3.2a1.763 1.763 0 0 1-.492.074z" transform="translate(-620.81 -303.559)" style="fill:#e99d7b"/>
    <path d="M368.191 330a3.185 3.185 0 0 0-.117-.332 3.264 3.264 0 0 0-6.232 1.814 3.093 3.093 0 0 0 .079.343 3.27 3.27 0 0 0 3.136 2.35 3.2 3.2 0 0 0 .911-.131 3.268 3.268 0 0 0 2.223-4.044zm-2.375 3.523a2.724 2.724 0 0 1-3.373-1.85 3.1 3.1 0 0 1-.076-.343 2.719 2.719 0 0 1 5.179-1.507 2.269 2.269 0 0 1 .122.329 2.721 2.721 0 0 1-1.851 3.373z" transform="translate(-349.355 -290.61)" style="fill:#e99d7b"/>
    <path d="M350.551 336.083a2.993 2.993 0 0 1 1.145-3.28 2.992 2.992 0 1 0 1.582 5.431 2.993 2.993 0 0 1-2.727-2.151z" transform="translate(-339.721 -294.36)" style="fill:#e99d7b"/>
    <path d="M607.788 391.21a1.644 1.644 0 0 0-2.026-1.142l-18.06 5.052-1.945.544h12.214l1.945-.544 6.733-1.882a1.645 1.645 0 0 0 1.139-2.028z" transform="translate(-512.396 -336.005)" style="fill:#ccc"/>
    <path d="M538.619 377.346a1.644 1.644 0 0 0-2.027-1.14l-27.1 7.579a1.651 1.651 0 0 0-1.189 1.787h7.016l1.948-.544 20.212-5.653a1.647 1.647 0 0 0 1.14-2.029z" transform="translate(-456.004 -325.914)" style="fill:#ccc"/>
    <path d="M519.533 408.8H388.145a1.906 1.906 0 0 0-1.9 1.9v77.8a1.906 1.906 0 0 0 1.9 1.9h131.388a1.906 1.906 0 0 0 1.9-1.9v-77.8a1.906 1.906 0 0 0-1.9-1.9zm1.36 79.7a1.361 1.361 0 0 1-1.36 1.36H388.145a1.361 1.361 0 0 1-1.36-1.36v-77.8a1.361 1.361 0 0 1 1.36-1.36h131.388a1.361 1.361 0 0 1 1.36 1.36z" transform="translate(-367.154 -349.684)" style="fill:#3f3d56"/>
    <path d="M431.5 430.329a3.264 3.264 0 1 1 3.264-3.264 3.264 3.264 0 0 1-3.264 3.264zm0-5.985a2.72 2.72 0 1 0 2.72 2.72 2.72 2.72 0 0 0-2.72-2.72z" transform="translate(-397.726 -360.605)" style="fill:#e99d7b"/>
    <path d="M416.361 427.792a2.993 2.993 0 0 1 2.016-2.829 2.992 2.992 0 1 0 0 5.657 2.993 2.993 0 0 1-2.017-2.829z" transform="translate(-387.659 -361.333)" style="fill:#e99d7b"/>
    <path d="M482.329 544.819a2.451 2.451 0 0 1-2.448-2.448v-7.345a2.448 2.448 0 1 1 4.9 0v7.345a2.451 2.451 0 0 1-2.452 2.448z" transform="translate(-435.321 -439.793)" style="fill:#055452"/>
    <path d="M506.329 544.819a2.451 2.451 0 0 1-2.448-2.448v-7.345a2.448 2.448 0 1 1 4.9 0v7.345a2.451 2.451 0 0 1-2.452 2.448z" transform="translate(-452.793 -439.793)" style="fill:#055452"/>
    <path d="M530.329 544.819a2.451 2.451 0 0 1-2.448-2.448v-7.345a2.448 2.448 0 0 1 4.9 0v7.345a2.451 2.451 0 0 1-2.452 2.448z" transform="translate(-470.264 -439.793)" style="fill:#055452"/>
    <path d="M567.329 544.819a2.451 2.451 0 0 1-2.448-2.448v-7.345a2.448 2.448 0 0 1 4.9 0v7.345a2.451 2.451 0 0 1-2.452 2.448z" transform="translate(-497.199 -439.793)" style="fill:#055452"/>
    <path d="M591.329 544.819a2.451 2.451 0 0 1-2.448-2.448v-7.345a2.448 2.448 0 1 1 4.9 0v7.345a2.451 2.451 0 0 1-2.452 2.448z" transform="translate(-514.671 -439.793)" style="fill:#055452"/>
    <path d="M615.329 544.819a2.451 2.451 0 0 1-2.448-2.448v-7.345a2.448 2.448 0 1 1 4.9 0v7.345a2.451 2.451 0 0 1-2.452 2.448z" transform="translate(-532.142 -439.793)" style="fill:#055452"/>
    <path d="M652.329 544.819a2.451 2.451 0 0 1-2.448-2.448v-7.345a2.448 2.448 0 0 1 4.9 0v7.345a2.451 2.451 0 0 1-2.452 2.448z" transform="translate(-559.077 -439.793)" style="fill:#055452"/>
    <path d="M676.329 544.819a2.451 2.451 0 0 1-2.448-2.448v-7.345a2.448 2.448 0 1 1 4.9 0v7.345a2.451 2.451 0 0 1-2.452 2.448z" transform="translate(-576.549 -439.793)" style="fill:#055452"/>
    <path d="M700.329 544.819a2.451 2.451 0 0 1-2.448-2.448v-7.345a2.448 2.448 0 1 1 4.9 0v7.345a2.451 2.451 0 0 1-2.452 2.448z" transform="translate(-594.02 -439.793)" style="fill:#055452"/>
    <path d="M737.329 544.819a2.451 2.451 0 0 1-2.448-2.448v-7.345a2.448 2.448 0 1 1 4.9 0v7.345a2.451 2.451 0 0 1-2.452 2.448z" transform="translate(-620.955 -439.793)" style="fill:#055452"/>
    <path d="M761.329 544.819a2.451 2.451 0 0 1-2.448-2.448v-7.345a2.448 2.448 0 0 1 4.9 0v7.345a2.451 2.451 0 0 1-2.452 2.448z" transform="translate(-638.426 -439.793)" style="fill:#055452"/>
    <path d="M785.329 544.819a2.451 2.451 0 0 1-2.448-2.448v-7.345a2.448 2.448 0 1 1 4.9 0v7.345a2.451 2.451 0 0 1-2.452 2.448z" transform="translate(-655.898 -439.793)" style="fill:#055452"/>
    <path d="M451.268 668.94h-35.211a1.645 1.645 0 0 1 0-3.29h35.211a1.645 1.645 0 1 1 0 3.29z" transform="translate(-387.661 -536.666)" style="fill:#e6e6e6"/>
    <path d="M470.19 642.94h-12.633a1.645 1.645 0 1 1 0-3.29h12.633a1.645 1.645 0 1 1 0 3.29z" transform="translate(-417.872 -517.739)" style="fill:#e6e6e6"/>
    <path transform="translate(19.533 75.375)" style="fill:#3f3d56" d="M0 0h134.108v.544H0z"/>
</svg>
