<svg xmlns="http://www.w3.org/2000/svg" width="26.934" height="20.2" viewBox="0 0 26.934 20.2">
    <circle cx="1.712" cy="1.712" r="1.712" transform="translate(4.337 12.326)"/>
    <path d="M21.322 3H5.611A5.618 5.618 0 0 0 0 8.611v8.978A5.618 5.618 0 0 0 5.611 23.2h15.711a5.618 5.618 0 0 0 5.611-5.611V8.611A5.618 5.618 0 0 0 21.322 3zM5.611 5.244h15.711a3.367 3.367 0 0 1 3.367 3.367H2.244a3.367 3.367 0 0 1 3.367-3.367zm15.711 15.712H5.611a3.367 3.367 0 0 1-3.367-3.367v-6.733h22.445v6.733a3.367 3.367 0 0 1-3.367 3.367z" transform="translate(0 -3)" />
</svg>
