<svg xmlns="http://www.w3.org/2000/svg" width="22.479" height="22.479" viewBox="0 0 22.479 22.479">
    <path data-name="Path 27817" d="M17.8 0h-4.687a.937.937 0 1 0 0 1.873H17.8a2.764 2.764 0 0 1 1.2.281L.274 20.88A.937.937 0 1 0 1.6 22.2L20.325 3.48a2.764 2.764 0 0 1 .281 1.2v4.686a.937.937 0 1 0 1.873 0V4.683A4.689 4.689 0 0 0 17.8 0z" style="fill:#fff"/>
    <path data-name="Path 27818" d="M5.747 9.493A3.747 3.747 0 1 0 2 5.747a3.747 3.747 0 0 0 3.747 3.746zm0-5.62a1.873 1.873 0 1 1-1.874 1.874 1.873 1.873 0 0 1 1.874-1.874z" transform="translate(-.127 -.127)" style="fill:#fff"/>
    <path data-name="Path 27819" d="M17.747 14a3.747 3.747 0 1 0 3.747 3.747A3.747 3.747 0 0 0 17.747 14zm0 5.62a1.873 1.873 0 1 1 1.873-1.873 1.873 1.873 0 0 1-1.873 1.873z" transform="translate(-.887 -.887)" style="fill:#fff"/>
</svg>
