<svg xmlns="http://www.w3.org/2000/svg" width="21.503" height="21.734" viewBox="0 0 21.503 21.734">
    <path data-name="Path 1131" d="M10.393 13.584a.906.906 0 0 0-.906.906v2.717a2.717 2.717 0 0 1-2.717 2.716H4.528a2.717 2.717 0 0 1-2.717-2.717V4.528a2.717 2.717 0 0 1 2.717-2.717H6.77a2.717 2.717 0 0 1 2.717 2.717v2.717a.906.906 0 1 0 1.811 0V4.528A4.533 4.533 0 0 0 6.77 0H4.528A4.533 4.533 0 0 0 0 4.528v12.678a4.533 4.533 0 0 0 4.528 4.528H6.77a4.533 4.533 0 0 0 4.53-4.528V14.49a.906.906 0 0 0-.907-.906z" style="fill:#fff"/>
    <path data-name="Path 1132" d="m21.18 9.418-4.153-4.153a.906.906 0 1 0-1.281 1.281l3.86 3.86-13.7.027a.906.906 0 1 0 0 1.811l13.754-.028-3.915 3.916a.906.906 0 1 0 1.281 1.281l4.153-4.153a2.717 2.717 0 0 0 .001-3.842z" transform="translate(-.472 -.472)" style="fill:#fff"/>
</svg>
