<svg xmlns="http://www.w3.org/2000/svg" width="26.842" height="22.395" viewBox="0 0 26.842 22.395">
    <path d="M23.513 13.672v-1.594a10.078 10.078 0 0 0-20.156 0v1.595A5.6 5.6 0 0 0 5.6 24.4a2.24 2.24 0 0 0 2.24-2.24v-6.723A2.24 2.24 0 0 0 5.6 13.2v-1.12a7.838 7.838 0 0 1 15.677 0v1.12a2.24 2.24 0 0 0-2.24 2.24v6.719h-3.362a1.12 1.12 0 1 0 0 2.24h5.6a5.6 5.6 0 0 0 2.24-10.723zM5.6 22.156a3.359 3.359 0 0 1 0-6.719zm15.677 0v-6.719a3.359 3.359 0 0 1 0 6.719z" transform="translate(-.014 -2)"/>
</svg>
