<svg xmlns="http://www.w3.org/2000/svg" width="13.005" height="13.056" viewBox="0 0 13.005 13.056">
    <path data-name="Path 36978" d="M6.548 1.088a5.457 5.457 0 0 1 3.874 1.632h-1.7a.544.544 0 0 0-.544.544.544.544 0 0 0 .544.544h2.254a1.011 1.011 0 0 0 1.01-1.01V.544A.544.544 0 0 0 11.444 0a.544.544 0 0 0-.544.544v1.13A6.517 6.517 0 0 0 .048 5.929a.548.548 0 0 0 .544.6.534.534 0 0 0 .538-.479 5.447 5.447 0 0 1 5.418-4.962z" transform="translate(-.046 .001)" style="fill:#055452"/>
    <path data-name="Path 36979" d="M13.4 12a.534.534 0 0 0-.538.478 5.432 5.432 0 0 1-9.293 3.33h1.7a.544.544 0 0 0 .544-.544.544.544 0 0 0-.544-.544H3.01A1.01 1.01 0 0 0 2 15.73v2.254a.544.544 0 0 0 .544.544.544.544 0 0 0 .544-.544v-1.13A6.517 6.517 0 0 0 13.94 12.6a.548.548 0 0 0-.54-.6z" transform="translate(-.937 -5.472)" style="fill:#055452"/>
</svg>
