<svg xmlns="http://www.w3.org/2000/svg" width="17.544" height="14.014" viewBox="0 0 17.544 14.014">
    <path d="M9.731 5.462h9.5a.731.731 0 1 0 0-1.462h-9.5a.731.731 0 1 0 0 1.462z" transform="translate(-2.421 -2.841)" style="fill:#231942"/>
    <path d="M19.233 11h-9.5a.731.731 0 1 0 0 1.462h9.5a.731.731 0 1 0 0-1.462z" transform="translate(-2.421 -4.724)" style="fill:#231942"/>
    <path d="M19.233 18h-9.5a.731.731 0 1 0 0 1.462h9.5a.731.731 0 1 0 0-1.462z" transform="translate(-2.421 -6.607)" style="fill:#231942"/>
    <path d="M4.449 5.035a.365.365 0 0 0 .258-.624L2.924 2.628a.731.731 0 0 0-1.034 0L.107 4.411a.365.365 0 0 0 .258.624h1.312v8.772H.365a.365.365 0 0 0-.259.624l1.784 1.783a.731.731 0 0 0 1.034 0l1.784-1.783a.365.365 0 0 0-.258-.624H3.139V5.035z" transform="translate(.001 -2.414)" style="fill:#231942"/>
</svg>
