<svg xmlns="http://www.w3.org/2000/svg" width="21.692" height="20.745" viewBox="0 0 21.692 20.745">
    <path data-name="star (1)" d="m11.894 1.7 2.446 4.955a1.168 1.168 0 0 0 .88.639l5.471.8a1.168 1.168 0 0 1 .647 1.992L17.38 13.94a1.168 1.168 0 0 0-.336 1.034l.934 5.449a1.168 1.168 0 0 1-1.695 1.232l-4.893-2.573a1.169 1.169 0 0 0-1.087 0L5.41 21.655a1.168 1.168 0 0 1-1.695-1.232l.934-5.449a1.168 1.168 0 0 0-.336-1.034L.355 10.082A1.168 1.168 0 0 1 1 8.089l5.471-.8a1.168 1.168 0 0 0 .88-.639L9.8 1.7a1.168 1.168 0 0 1 2.094 0z" transform="translate(-.001 -1.047)" style="fill:#ed8a19"/>
</svg>
