<svg xmlns="http://www.w3.org/2000/svg" width="22.442" height="22.442" viewBox="0 0 22.442 22.442">
    <path d="M22.442 11.221a11.221 11.221 0 1 1-22.442 0 .935.935 0 1 1 1.87 0 9.351 9.351 0 1 0 9.351-9.351.935.935 0 1 1 0-1.87 11.233 11.233 0 0 1 11.221 11.221zM9.61 10.286H7.481a.935.935 0 1 0 0 1.87H9.61a1.865 1.865 0 1 0 2.546-2.546V6.546a.935.935 0 0 0-1.87 0V9.61a1.87 1.87 0 0 0-.676.676zm-7.9-2.072a.935.935 0 1 0-.935-.935.935.935 0 0 0 .933.935zm2.237-3.345a.935.935 0 1 0-.935-.935.935.935 0 0 0 .935.935zm3.327-2.212a.935.935 0 1 0-.935-.935.935.935 0 0 0 .935.935z" style="fill:#fff"/>
</svg>
