<svg xmlns="http://www.w3.org/2000/svg" width="24.327" height="32.436" viewBox="0 0 24.327 32.436">
    <path d="M14.109 16.218A8.109 8.109 0 1 0 6 8.109a8.109 8.109 0 0 0 8.109 8.109zm0-13.515A5.406 5.406 0 1 1 8.7 8.109 5.406 5.406 0 0 1 14.109 2.7z" transform="translate(-1.946)" style="fill:#e99d7b"/>
    <path d="M15.163 14A12.177 12.177 0 0 0 3 26.163a1.351 1.351 0 1 0 2.7 0 9.46 9.46 0 1 1 18.921 0 1.351 1.351 0 0 0 2.7 0A12.177 12.177 0 0 0 15.163 14z" transform="translate(-3 4.921)" style="fill:#e99d7b"/>
</svg>
