<svg xmlns="http://www.w3.org/2000/svg" width="29.46" height="29.463" viewBox="0 0 29.46 29.463">
  <path id="bitcoin-svgrepo-com" d="M29.019,18.3A14.726,14.726,0,1,1,18.292.441,14.728,14.728,0,0,1,29.019,18.3Zm-7.794-5.662c.293-1.96-1.2-3.014-3.24-3.717l.662-2.655-1.616-.4-.645,2.585c-.425-.106-.861-.206-1.295-.3l.649-2.6-1.616-.4-.662,2.654c-.352-.08-.7-.159-1.032-.243l0-.008L10.2,6.98l-.43,1.726s1.2.275,1.174.292a.86.86,0,0,1,.753.94l-.754,3.025a1.325,1.325,0,0,1,.168.054l-.171-.042L9.886,17.213a.588.588,0,0,1-.741.384c.016.023-1.175-.293-1.175-.293l-.8,1.85,2.1.524c.391.1.775.2,1.152.3l-.669,2.686,1.614.4.662-2.657c.441.12.869.23,1.288.334l-.66,2.645,1.616.4.669-2.681c2.756.522,4.829.311,5.7-2.182a2.836,2.836,0,0,0-1.485-3.92,2.578,2.578,0,0,0,2.064-2.373Zm-3.693,5.179c-.5,2.007-3.879.922-4.975.65l.888-3.558c1.1.273,4.609.815,4.087,2.908Zm.5-5.208c-.456,1.826-3.269.9-4.181.671l.8-3.227c.912.227,3.851.652,3.376,2.556Z" fill="#f90" fill-rule="evenodd"/>
</svg>
