<svg xmlns="http://www.w3.org/2000/svg" width="37.617" height="17.275" viewBox="0 0 37.617 17.275">
  <g id="Arrow" transform="translate(37.617) rotate(90)">
    <path id="Vector" d="M8.636,0A2.193,2.193,0,0,0,7.111.612a2.057,2.057,0,0,0-.632,1.477V30.484L3.7,27.768a2.215,2.215,0,0,0-3.063,0,2.052,2.052,0,0,0,0,2.967L7.1,37a2.18,2.18,0,0,0,1.107.564,2.221,2.221,0,0,0,1.244-.126,2.144,2.144,0,0,0,.969-.765,2.044,2.044,0,0,0,.368-1.157V2.089A2.057,2.057,0,0,0,10.161.612,2.193,2.193,0,0,0,8.636,0Z" transform="translate(0 0)" fill="#fff"/>
    <path id="Vector-2" data-name="Vector" d="M8.636,0a2.218,2.218,0,0,0-.828.155,2.164,2.164,0,0,0-.7.451L.634,6.874A2.065,2.065,0,0,0,0,8.357a2.041,2.041,0,0,0,.165.8,2.1,2.1,0,0,0,.469.681,2.172,2.172,0,0,0,.7.455,2.226,2.226,0,0,0,.829.16A2.2,2.2,0,0,0,3.7,9.841l6.47-6.268a2.087,2.087,0,0,0,.472-.68,2.029,2.029,0,0,0,0-1.607,2.087,2.087,0,0,0-.472-.68,2.164,2.164,0,0,0-.7-.451A2.218,2.218,0,0,0,8.636,0Z" transform="translate(6.47 27.162)" fill="#fff"/>
  </g>
</svg>
