<svg xmlns="http://www.w3.org/2000/svg" width="29.271" height="20.733" viewBox="0 0 29.271 20.733">
    <path data-name="Path 47257" d="M1.22 6.439h26.831a1.22 1.22 0 0 0 0-2.439H1.22a1.22 1.22 0 1 0 0 2.439z" style="fill:#231942" transform="translate(0 -4)"/>
    <path data-name="Path 47258" d="M28.051 9H1.22a1.22 1.22 0 0 0 0 2.439h26.831a1.22 1.22 0 0 0 0-2.439z" transform="translate(0 -2.902)" style="fill:#231942"/>
    <path data-name="Path 47259" d="M28.051 19H1.22a1.22 1.22 0 1 0 0 2.439h26.831a1.22 1.22 0 0 0 0-2.439z" transform="translate(0 -.706)" style="fill:#231942"/>
    <path data-name="Path 47260" d="M28.051 14H1.22a1.22 1.22 0 1 0 0 2.439h26.831a1.22 1.22 0 0 0 0-2.439z" transform="translate(0 -1.804)" style="fill:#231942"/>
</svg>
