<svg xmlns="http://www.w3.org/2000/svg" width="482.531" height="278.522" viewBox="0 0 482.531 278.522">
  <g id="Group_11071" data-name="Group 11071" transform="translate(-162 -3873.262)">
    <g id="freepik--background-complete--inject-2" transform="translate(162.59 3873.262)">
      <path id="Path_36710" data-name="Path 36710" d="M572.848,118.66l.7,2.461L571.328,136.8l-4.135,1.15,2.189-14.978-5.467,1.506.746,2.678-3.361.948-1.611-5.78Z" transform="translate(-189.424 -71.078)" fill="#e99d7b"/>
      <path id="Path_36711" data-name="Path 36711" d="M596.578,124.585c.809,2.915-.621,6.045-5.313,7.349a11.791,11.791,0,0,1-6.764,0l.7-3.333a8.249,8.249,0,0,0,5.09.181c1.9-.53,2.852-1.653,2.482-2.991s-1.443-1.9-4.428-1.074l-4.184,1.171-1.729-9.49,10.027-2.789.83,3.061-6.861,1.9.614,3.2,1.339-.377C593.238,120.025,595.769,121.678,596.578,124.585Z" transform="translate(-196.308 -69.549)" fill="#e99d7b"/>
      <path id="Path_36712" data-name="Path 36712" d="M602.176,115.068c-.739-2.678.265-4.881,2.475-5.495s4.184.7,4.951,3.431-.286,4.881-2.475,5.495S602.922,117.745,602.176,115.068Zm6.275-1.736c-.593-2.134-1.952-3.124-3.486-2.7s-2.182,1.994-1.59,4.114,1.932,3.131,3.486,2.7,2.155-1.973,1.562-4.114Zm6.213-6.408,1.395-.383L609.406,126.1l-1.395.384Zm-.23,13.095c-.739-2.678.286-4.881,2.468-5.495s4.184.753,4.958,3.431-.265,4.881-2.475,5.495-4.232-.753-4.979-3.431Zm6.276-1.736c-.586-2.092-1.932-3.131-3.486-2.7s-2.189,1.973-1.59,4.107,1.952,3.124,3.486,2.7,2.12-1.994,1.534-4.107Z" transform="translate(-202.213 -67.409)" fill="#e99d7b"/>
      <rect id="Rectangle_2483" data-name="Rectangle 2483" width="49.096" height="61.974" transform="translate(468.332 276.857) rotate(-179.55)" fill="#ebebeb"/>
      <path id="Path_36713" data-name="Path 36713" d="M669.735,361.206l-.872,60-7.754-.056,1.659-60Z" transform="translate(-220.126 -144.484)" fill="#fafafa"/>
      <path id="Path_36714" data-name="Path 36714" d="M589.99,360.58l28.163.223,49.1.384L618.1,367.65l-.418,53.154-28.156-.216Z" transform="translate(-198.458 -144.311)" fill="#e0e0e0"/>
      <path id="Path_36715" data-name="Path 36715" d="M608.066,360.723l-1.123,60-8.353-.063,1.367-60Z" transform="translate(-201.2 -144.336)" fill="#fafafa"/>
      <path id="Path_36716" data-name="Path 36716" d="M634.781,326.893c0,.125-.83.279-2.343.425A61.193,61.193,0,0,1,626,327.6a36.044,36.044,0,0,1-9.608-1.262,6.894,6.894,0,0,1-1.395-.628,3.773,3.773,0,0,1-1.283-1.213,3.39,3.39,0,0,1-.516-1.792,6.723,6.723,0,0,1,.209-1.646,36.5,36.5,0,0,1,1.82-5.9,15.031,15.031,0,0,1,1.59-2.831,8.867,8.867,0,0,1,2.336-2.308,4.755,4.755,0,0,1,1.618-.7,4.183,4.183,0,0,1,1.785,0,7.07,7.07,0,0,1,2.712,1.478,28.172,28.172,0,0,1,6.387,7.328,23.5,23.5,0,0,1,2.587,5.976,5.225,5.225,0,0,1,.321,2.371c-.307.091-1-3.263-3.989-7.67a29.6,29.6,0,0,0-6.352-6.673,5.685,5.685,0,0,0-2.092-1.109,2.65,2.65,0,0,0-2.057.446,7.3,7.3,0,0,0-1.827,1.869,13.941,13.941,0,0,0-1.395,2.5,38.339,38.339,0,0,0-1.75,5.578,2.788,2.788,0,0,0,.049,2.092,3.34,3.34,0,0,0,1.764,1.185,22.821,22.821,0,0,0,2.419.642c.8.181,1.6.321,2.371.439,1.541.244,2.991.383,4.33.474,2.671.181,4.881.216,6.366.293A5.888,5.888,0,0,1,634.781,326.893Z" transform="translate(-205.623 -128.767)" fill="#e0e0e0"/>
      <path id="Path_36717" data-name="Path 36717" d="M642.69,326.285a7.857,7.857,0,0,1,2.545-.767c1.653-.377,4.065-.872,6.973-1.576a66.5,66.5,0,0,0,10.027-3.166,11.22,11.22,0,0,0,2.517-1.339,2.788,2.788,0,0,0,.809-.893,1.556,1.556,0,0,0,.14-1.018,5.632,5.632,0,0,0-.481-1.325c-.23-.5-.467-1-.7-1.5a24.194,24.194,0,0,0-1.6-2.887,12.493,12.493,0,0,0-2.092-2.433,7.984,7.984,0,0,0-2.5-1.611,3.988,3.988,0,0,0-2.587-.112,6.749,6.749,0,0,0-2.322,1.395,35.194,35.194,0,0,0-6.715,7.914,30.515,30.515,0,0,0-2.984,6.373,10.518,10.518,0,0,1-.872,2.489c-.139-.021-.133-.969.188-2.664a24.457,24.457,0,0,1,2.552-6.847,33.562,33.562,0,0,1,6.729-8.521,8.15,8.15,0,0,1,2.894-1.806,5.7,5.7,0,0,1,3.716.091,7.858,7.858,0,0,1,1.66.83,13,13,0,0,1,1.443,1.109,13.837,13.837,0,0,1,2.364,2.789,26.383,26.383,0,0,1,1.722,3.1l.7,1.541a6.869,6.869,0,0,1,.6,1.785,3.271,3.271,0,0,1-.342,2.134,4.477,4.477,0,0,1-1.311,1.443,12.549,12.549,0,0,1-2.929,1.506,57.565,57.565,0,0,1-10.4,2.873c-3.005.558-5.453.844-7.14,1.018A7.1,7.1,0,0,1,642.69,326.285Z" transform="translate(-214.55 -127.706)" fill="#fafafa"/>
      <rect id="Rectangle_2484" data-name="Rectangle 2484" width="72.169" height="20.514" transform="translate(454.762 216.747) rotate(-179.55)" fill="#e0e0e0"/>
      <rect id="Rectangle_2485" data-name="Rectangle 2485" width="65.231" height="20.514" transform="translate(474.371 216.895) rotate(-179.55)" fill="#ebebeb"/>
      <path id="Path_36718" data-name="Path 36718" d="M677,331.843l-.453,20.6-7.607-.16.53-20.507Z" transform="translate(-222.496 -135.593)" fill="#fafafa"/>
      <path id="Path_36719" data-name="Path 36719" d="M599.039,331.337l-.739,20.423-8.36-.07.446-20.521Z" transform="translate(-198.582 -135.408)" fill="#fafafa"/>
      <rect id="Rectangle_2486" data-name="Rectangle 2486" width="22.425" height="28.31" transform="translate(479.111 277.374) rotate(-179.55)" fill="#ebebeb"/>
      <path id="Path_36720" data-name="Path 36720" d="M701.807,408.828l-.4,27.4-3.549-.021.76-27.41Z" transform="translate(-231.251 -158.909)" fill="#fafafa"/>
      <path id="Path_36721" data-name="Path 36721" d="M665.379,408.54l12.865.1,22.425.181-22.445,2.95-.2,24.279-12.858-.1Z" transform="translate(-221.355 -158.83)" fill="#e0e0e0"/>
      <path id="Path_36722" data-name="Path 36722" d="M673.63,408.608l-.509,27.41-3.821-.035.628-27.4Z" transform="translate(-222.605 -158.842)" fill="#fafafa"/>
      <path id="Path_36723" data-name="Path 36723" d="M685.631,392.954c0,.23-1.5.579-4.023.7a15.649,15.649,0,0,1-4.525-.5,2.643,2.643,0,0,1-1.478-1.018,2.009,2.009,0,0,1-.314-1.067,3.947,3.947,0,0,1,.1-.872,16.644,16.644,0,0,1,.851-2.789,7.311,7.311,0,0,1,.781-1.395,4.422,4.422,0,0,1,1.206-1.192,2.469,2.469,0,0,1,1.918-.342,3.655,3.655,0,0,1,1.395.781,12.6,12.6,0,0,1,2.935,3.486c1.262,2.308,1.248,3.975,1.032,4s-.7-1.395-2.092-3.305a13.892,13.892,0,0,0-2.887-2.873,2.049,2.049,0,0,0-.774-.411.739.739,0,0,0-.572.153,2.948,2.948,0,0,0-.7.732,5.855,5.855,0,0,0-.579,1.053,16.864,16.864,0,0,0-.781,2.461c-.1.391-.084.565-.049.607a1.067,1.067,0,0,0,.551.356,14.561,14.561,0,0,0,2.092.523c.7.126,1.339.209,1.938.272C684.069,392.57,685.624,392.682,685.631,392.954Z" transform="translate(-224.419 -151.528)" fill="#e0e0e0"/>
      <path id="Path_36724" data-name="Path 36724" d="M689.418,392.726c-.042-.265,1.639-.7,4.281-1.395a34.568,34.568,0,0,0,4.484-1.527,4.928,4.928,0,0,0,1.039-.565.835.835,0,0,0,.23-.258v-.16a7.737,7.737,0,0,0-.5-1.158,12.109,12.109,0,0,0-.7-1.262,5.585,5.585,0,0,0-.858-1.018,3.307,3.307,0,0,0-.976-.641,1.332,1.332,0,0,0-.878-.056,2.567,2.567,0,0,0-.9.53,16.779,16.779,0,0,0-3.068,3.452c-1.471,2.217-1.778,3.919-2.092,3.877-.112,0-.188-.467-.1-1.269a9.978,9.978,0,0,1,1.053-3.249,14.835,14.835,0,0,1,3.075-4.065,4.073,4.073,0,0,1,1.478-.927,3.026,3.026,0,0,1,2,.035,3.7,3.7,0,0,1,.865.425,6.074,6.074,0,0,1,.7.544,6.975,6.975,0,0,1,1.164,1.395,12.434,12.434,0,0,1,.816,1.471c.112.244.216.481.328.7a3.725,3.725,0,0,1,.307.941,2.022,2.022,0,0,1-.209,1.276,2.553,2.553,0,0,1-.739.809,5.781,5.781,0,0,1-1.45.7,24.486,24.486,0,0,1-4.846,1.234C691.2,392.942,689.459,392.921,689.418,392.726Z" transform="translate(-228.673 -151.062)" fill="#fafafa"/>
      <rect id="Rectangle_2487" data-name="Rectangle 2487" width="32.96" height="9.371" transform="translate(472.914 249.915) rotate(-179.55)" fill="#e0e0e0"/>
      <rect id="Rectangle_2488" data-name="Rectangle 2488" width="29.795" height="9.371" transform="translate(481.868 249.987) rotate(-179.55)" fill="#ebebeb"/>
      <path id="Path_36725" data-name="Path 36725" d="M705.121,395.418l-.209,9.406-3.472-.07.244-9.364Z" transform="translate(-232.335 -154.849)" fill="#fafafa"/>
      <path id="Path_36726" data-name="Path 36726" d="M669.506,395.177l-.335,9.33-3.821-.028.209-9.378Z" transform="translate(-221.41 -154.761)" fill="#fafafa"/>
      <rect id="Rectangle_2489" data-name="Rectangle 2489" width="40.219" height="50.769" transform="translate(70.231 277.417) rotate(-179.55)" fill="#ebebeb"/>
      <path id="Path_36727" data-name="Path 36727" d="M104.32,377.582l-.711,49.158-6.359-.049,1.367-49.151Z" transform="translate(-49.435 -149.446)" fill="#fafafa"/>
      <path id="Path_36728" data-name="Path 36728" d="M39,377.07l23.073.181,40.219.314-40.261,5.3-.342,43.545-23.066-.181Z" transform="translate(-31.686 -149.303)" fill="#e0e0e0"/>
      <path id="Path_36729" data-name="Path 36729" d="M53.8,377.189l-.913,49.151-6.847-.049,1.116-49.151Z" transform="translate(-33.933 -149.324)" fill="#fafafa"/>
      <path id="Path_36730" data-name="Path 36730" d="M75.238,349.036c0,.251-.7.509-1.9.76a34.354,34.354,0,0,1-9.065.488c-.7-.063-1.395-.139-2.092-.265a17.973,17.973,0,0,1-2.3-.5,6.557,6.557,0,0,1-1.36-.593,4.128,4.128,0,0,1-1.395-1.3,3.856,3.856,0,0,1-.593-2,6.527,6.527,0,0,1,.188-1.6A29.732,29.732,0,0,1,58.245,339a13.568,13.568,0,0,1,1.395-2.51,12.051,12.051,0,0,1,.955-1.13,6.381,6.381,0,0,1,1.262-1.025,5.027,5.027,0,0,1,1.68-.7,4.372,4.372,0,0,1,1.9.042,6.66,6.66,0,0,1,2.6,1.436,22.53,22.53,0,0,1,5.271,6.338,16.623,16.623,0,0,1,1.876,5.174c.2,1.283.1,2.022-.132,2.092-.537.132-1.395-2.5-3.9-5.857a25.463,25.463,0,0,0-5.174-5.09,3.521,3.521,0,0,0-1.318-.7,1.157,1.157,0,0,0-.893.251,3.809,3.809,0,0,0-.593.516c-.2.216-.411.488-.607.753a10.619,10.619,0,0,0-1.018,1.848,32.2,32.2,0,0,0-1.395,4.386,3.116,3.116,0,0,0-.132.739v.209a1.757,1.757,0,0,0,.9.572,18.257,18.257,0,0,0,1.848.544c.635.16,1.262.286,1.869.4,1.22.223,2.385.383,3.486.509,2.148.244,3.933.39,5.167.579S75.231,348.785,75.238,349.036Z" transform="translate(-37.108 -136.128)" fill="#e0e0e0"/>
      <path id="Path_36731" data-name="Path 36731" d="M82.117,348.511c-.091-.516,2.922-1.353,7.67-2.657a61.21,61.21,0,0,0,8-2.789,8.032,8.032,0,0,0,1.813-1,1.193,1.193,0,0,0,.37-.4v-.174a4.142,4.142,0,0,0-.321-.809l-.579-1.206a20.719,20.719,0,0,0-1.248-2.238,9.392,9.392,0,0,0-1.506-1.792,7.145,7.145,0,0,0-.865-.7,3.793,3.793,0,0,0-.823-.439,2.224,2.224,0,0,0-1.457-.1,4.436,4.436,0,0,0-1.555.92,30.353,30.353,0,0,0-5.5,6.115c-2.657,3.933-3.256,6.973-3.807,6.889-.237,0-.4-.844-.251-2.294a17.773,17.773,0,0,1,1.841-5.878,26.5,26.5,0,0,1,5.509-7.349,7.615,7.615,0,0,1,2.712-1.708,5.7,5.7,0,0,1,3.716.063,7.271,7.271,0,0,1,1.583.781,10.646,10.646,0,0,1,1.311,1,12.307,12.307,0,0,1,2.092,2.475,22.8,22.8,0,0,1,1.478,2.671l.586,1.283a6.749,6.749,0,0,1,.565,1.736,3.731,3.731,0,0,1-.4,2.406,4.644,4.644,0,0,1-1.395,1.513A10.945,10.945,0,0,1,99,346.154a42.776,42.776,0,0,1-8.723,2.176,44.745,44.745,0,0,1-5.948.509C82.954,348.881,82.152,348.762,82.117,348.511Z" transform="translate(-44.817 -135.241)" fill="#fafafa"/>
      <rect id="Rectangle_2490" data-name="Rectangle 2490" width="59.115" height="16.804" transform="translate(59.114 228.175) rotate(-179.55)" fill="#e0e0e0"/>
      <rect id="Rectangle_2491" data-name="Rectangle 2491" width="53.44" height="16.804" transform="translate(75.167 228.297) rotate(-179.55)" fill="#ebebeb"/>
      <path id="Path_36732" data-name="Path 36732" d="M110.273,353.529l-.37,16.881-6.234-.132.432-16.8Z" transform="translate(-51.378 -142.162)" fill="#fafafa"/>
      <path id="Path_36733" data-name="Path 36733" d="M46.4,353.112l-.6,16.735-6.854-.056.37-16.811Z" transform="translate(-31.786 -142.011)" fill="#fafafa"/>
      <path id="Path_36737" data-name="Path 36737" d="M321.366,134.764c.056,2.88-2.092,5.578-6.973,5.634a11.686,11.686,0,0,1-6.533-1.715l1.478-3.047a8.368,8.368,0,0,0,4.881,1.45c1.973-.035,3.18-.858,3.159-2.252,0-1.29-.99-2.092-3.228-2.036h-1.806l-.042-2.608,3.438-4.03-7.266.126-.049-3.173,11.937-.2.049,2.559-3.758,4.477C319.735,130.385,321.324,132.254,321.366,134.764Z" transform="translate(-113.191 -72.364)" fill="#f0b86c"/>
      <path id="Path_36738" data-name="Path 36738" d="M329.769,131.232c-.1-5.662,2.949-8.876,7.133-8.953s7.363,3.068,7.461,8.7-2.943,8.883-7.154,8.953S329.867,136.86,329.769,131.232Zm10.654-.188c-.07-3.87-1.464-5.46-3.438-5.425s-3.284,1.667-3.214,5.578,1.457,5.46,3.4,5.425S340.486,134.921,340.423,131.044Z" transform="translate(-119.822 -72.173)" fill="#f0b86c"/>
      <path id="Path_36739" data-name="Path 36739" d="M353.51,126.875c-.049-2.789,1.478-4.658,3.772-4.7s3.884,1.764,3.933,4.567-1.506,4.658-3.772,4.693S353.558,129.651,353.51,126.875Zm6.485-.112c-.042-2.217-1.109-3.486-2.691-3.486s-2.615,1.395-2.573,3.584,1.081,3.486,2.691,3.486S360.029,129.009,359.994,126.764Zm7.621-4.644h1.436L357.7,139.378h-1.436Zm-3.486,12.614c-.042-2.789,1.506-4.658,3.772-4.693s3.884,1.785,3.933,4.56-1.478,4.658-3.772,4.7-3.912-1.785-3.961-4.567Zm6.485-.112c-.035-2.189-1.081-3.486-2.691-3.486s-2.608,1.36-2.573,3.577,1.109,3.486,2.691,3.486,2.587-1.381,2.545-3.577Z" transform="translate(-127.009 -72.125)" fill="#f0b86c"/>
      <path id="Path_36740" data-name="Path 36740" d="M441.139,60.119c-.335,2.176-2.224,3.828-5.739,3.291a8.6,8.6,0,0,1-4.49-2.029l1.457-2.008a5.983,5.983,0,0,0,3.326,1.639c1.429.216,2.4-.244,2.552-1.248s-.39-1.694-2.622-2.036l-3.145-.481,1.687-6.826,7.5,1.144-.349,2.287-5.132-.781-.551,2.3,1,.153C440.281,56.082,441.474,57.937,441.139,60.119Z" transform="translate(-150.44 -50.42)" fill="#f5f5f5"/>
      <path id="Path_36741" data-name="Path 36741" d="M447.689,58.861c.621-4.065,3.221-6.024,6.276-5.578s4.923,3.1,4.3,7.168-3.207,6.018-6.276,5.578S447.075,62.919,447.689,58.861Zm7.67,1.171c.425-2.789-.383-4.107-1.806-4.323s-2.566.795-2.991,3.591.377,4.1,1.785,4.316,2.6-.788,3.026-3.577Z" transform="translate(-155.484 -51.268)" fill="#f5f5f5"/>
      <path id="Path_36742" data-name="Path 36742" d="M465.545,58.49c.307-2,1.639-3.166,3.291-2.915s2.573,1.743,2.266,3.765-1.653,3.166-3.291,2.915S465.238,60.5,465.545,58.49ZM476.3,56.8l1.039.16L467.03,67.98l-1.039-.16Zm-6.045,2.406c.244-1.6-.37-2.664-1.513-2.838s-2.043.7-2.287,2.259.349,2.657,1.513,2.838,2.008-.662,2.252-2.259Zm1.973,6.234c.307-2,1.653-3.166,3.291-2.915s2.573,1.764,2.266,3.765-1.639,3.166-3.291,2.915-2.608-1.757-2.3-3.765Zm4.679.7c.237-1.583-.349-2.664-1.513-2.838s-2.043.655-2.287,2.252.37,2.671,1.513,2.845,2.008-.683,2.252-2.238Z" transform="translate(-160.907 -51.97)" fill="#f5f5f5"/>
      <path id="Path_36743" data-name="Path 36743" d="M42.009,148.718l-2.552,10.9-2.5-.572,2.092-8.876-2.182-.509.474-2.029Z" transform="translate(-31.157 -79.847)" fill="#f5f5f5"/>
      <path id="Path_36744" data-name="Path 36744" d="M45.038,155.618c.837-3.6,3.312-5.174,5.99-4.546s4.184,3.138,3.347,6.729-3.291,5.174-5.99,4.546S44.194,159.216,45.038,155.618Zm6.805,1.59c.579-2.475-.056-3.71-1.318-4s-2.357.53-2.936,3.005.049,3.71,1.3,4S51.257,159.683,51.843,157.208Z" transform="translate(-33.558 -80.848)" fill="#f5f5f5"/>
      <path id="Path_36745" data-name="Path 36745" d="M70.852,155.7l.92.216-10,9.155-.913-.216Zm-9.762.76c.418-1.778,1.694-2.726,3.159-2.385s2.182,1.743,1.764,3.535-1.7,2.719-3.152,2.385-2.162-1.764-1.75-3.535Zm4.142.969c.335-1.395-.139-2.413-1.151-2.65s-1.883.46-2.21,1.862.126,2.413,1.157,2.65,1.9-.411,2.224-1.862Zm1.339,5.732c.411-1.778,1.7-2.719,3.152-2.385s2.182,1.764,1.771,3.535-1.694,2.726-3.159,2.385-2.162-1.764-1.743-3.535Zm4.149.969c.328-1.395-.126-2.413-1.151-2.65s-1.883.446-2.21,1.862.139,2.413,1.151,2.65S70.406,165.536,70.72,164.135Z" transform="translate(-38.419 -81.779)" fill="#f5f5f5"/>
    </g>
    <path id="Path_36746" data-name="Path 36746" d="M118.091,304.471A50.252,50.252,0,0,0,70.16,291.32a87.335,87.335,0,0,0,48.5,15.152" transform="translate(121.358 3750.398)" fill="#65a79f"/>
    <path id="Path_36747" data-name="Path 36747" d="M109.468,210.822c2-14.127-3.486-29.983-14.064-40.282-.349,14,5.578,29.753,14.064,40.282" transform="translate(113.721 3786.479)" fill="#65a79f"/>
    <path id="Path_36748" data-name="Path 36748" d="M112.662,252.2A75.418,75.418,0,0,0,78,219.1a47.6,47.6,0,0,0,34.766,33.253" transform="translate(118.984 3771.779)" fill="#65a79f"/>
    <path id="Path_36749" data-name="Path 36749" d="M109.8,267.419c-8.528.237-17.167-.063-25.416-2.245s-16.149-6.38-21.616-12.914a84.957,84.957,0,0,1,46.878,14.3" transform="translate(123.593 3761.741)" fill="#65a79f"/>
    <path id="Path_36750" data-name="Path 36750" d="M124,233.771c4.33-16.233,11.477-27.459,24.231-36.551A33.748,33.748,0,0,1,124,233.771" transform="translate(105.059 3778.403)" fill="#65a79f"/>
    <path id="Path_36751" data-name="Path 36751" d="M163.854,280.12a24.014,24.014,0,0,0-14.594-22.25c.7,8.367,7.294,18.074,14.594,22.25" transform="translate(97.412 3760.043)" fill="#65a79f"/>
    <path id="Path_36752" data-name="Path 36752" d="M176,256.894a35.794,35.794,0,0,1,23.45-30.534c-2.922,13.562-10.759,24.851-23.45,30.534" transform="translate(89.317 3769.582)" fill="#65a79f"/>
    <path id="Path_36753" data-name="Path 36753" d="M167.23,300.716c3.005-4.3,7.914-6.973,13-8.312s10.389-1.443,15.64-1.555a36.558,36.558,0,0,1-28.24,11.763" transform="translate(91.973 3750.059)" fill="#65a79f"/>
    <path id="Path_36754" data-name="Path 36754" d="M158.48,353.814a40.066,40.066,0,0,1,48.914,23.171c-17.767-3.361-35.3-11.261-48.914-23.171" transform="translate(94.62 3731.54)" fill="#65a79f"/>
    <path id="Path_36755" data-name="Path 36755" d="M128.152,337.35c2.95,8.723,2.385,19.273-4.184,26.789a31.991,31.991,0,0,1,4.184-26.789" transform="translate(105.453 3735.983)" fill="#65a79f"/>
    <path id="Path_36756" data-name="Path 36756" d="M105.082,330.4a32.842,32.842,0,0,1-18.129,26.636,2.036,2.036,0,0,1-1.6.258c-.8-.321-.872-1.395-.774-2.273,1.283-11.157,9.567-21.985,20.507-24.621" transform="translate(117.004 3738.087)" fill="#65a79f"/>
    <path id="Path_36757" data-name="Path 36757" d="M86.12,328.235a26.922,26.922,0,0,1-39.32.2c12.5-1.395,26.922-2.28,39.32-.2" transform="translate(128.427 3739.115)" fill="#65a79f"/>
    <path id="Path_36758" data-name="Path 36758" d="M100.51,185.47a2.281,2.281,0,0,0,.112.37c.1.258.223.607.384,1.053.356.948.858,2.308,1.506,4.051s1.45,3.9,2.35,6.415l1.443,4.009c.5,1.395,1.018,2.943,1.562,4.525,2.217,6.331,4.672,13.946,7.328,22.383s5.348,17.829,8.04,27.7,5.013,19.343,7.015,27.982,3.626,16.456,4.832,23.052q.467,2.468.886,4.7c.258,1.485.5,2.894.7,4.184.453,2.622.837,4.881,1.1,6.743s.5,3.27.655,4.267c.077.467.139.837.181,1.109a2.342,2.342,0,0,0,.077.377,2.262,2.262,0,0,0,0-.383c-.035-.272-.077-.642-.139-1.116-.132-1-.321-2.44-.565-4.281s-.593-4.128-1.018-6.757c-.216-1.318-.439-2.726-.7-4.219s-.551-3.054-.851-4.707c-1.171-6.61-2.789-14.427-4.735-23.087s-4.33-18.129-6.973-28.01-5.446-19.231-8.081-27.7-5.167-16.037-7.426-22.362q-.837-2.371-1.6-4.511l-1.478-4c-.927-2.5-1.729-4.651-2.427-6.394s-1.22-3.075-1.59-4.016l-.425-1.039a2.734,2.734,0,0,0-.167-.328Z" transform="translate(112.17 3781.96)" fill="#263238"/>
    <path id="Path_36759" data-name="Path 36759" d="M184.139,236.75a1.341,1.341,0,0,0-.216.2l-.6.628c-.523.558-1.276,1.395-2.217,2.482a87.251,87.251,0,0,0-7.363,9.818,65.619,65.619,0,0,0-7.67,16.463c-2.092,6.548-3.347,14-4.616,21.783-2.545,15.584-5.662,29.544-7.921,39.64-1.137,5.027-2.092,9.1-2.705,11.958-.307,1.395-.551,2.475-.7,3.249-.077.356-.132.635-.181.851a1.506,1.506,0,0,0-.042.293,1.392,1.392,0,0,0,.091-.286c.056-.209.133-.488.223-.837.2-.767.46-1.848.809-3.228.7-2.845,1.653-6.91,2.852-11.924,2.343-10.076,5.516-24.035,8.061-39.64,1.276-7.782,2.538-15.208,4.567-21.734a66.652,66.652,0,0,1,7.559-16.407,93.345,93.345,0,0,1,7.217-9.873c.92-1.116,1.653-1.966,2.155-2.545.23-.272.418-.488.558-.662a1.587,1.587,0,0,0,.139-.23Z" transform="translate(97.216 3766.436)" fill="#263238"/>
    <path id="Path_36760" data-name="Path 36760" d="M97.84,327.993a1.5,1.5,0,0,0,.446.084l1.3.139.934.1,1.1.16c.795.119,1.7.237,2.685.453l1.555.314,1.66.418c1.158.258,2.35.7,3.626,1.067a53.212,53.212,0,0,1,7.914,3.486,44.4,44.4,0,0,1,7.1,4.937,35.1,35.1,0,0,1,2.719,2.615,27.453,27.453,0,0,1,2.155,2.489,25.025,25.025,0,0,1,1.6,2.2,17.514,17.514,0,0,1,1.095,1.764l.662,1.123a1.75,1.75,0,0,0,.258.377,1.542,1.542,0,0,0-.174-.425l-.586-1.164a13.984,13.984,0,0,0-1.032-1.792,24.037,24.037,0,0,0-1.548-2.259,28.341,28.341,0,0,0-2.134-2.552,34.334,34.334,0,0,0-2.726-2.671,42.616,42.616,0,0,0-7.154-5.014,50.985,50.985,0,0,0-8-3.486c-1.29-.377-2.5-.788-3.668-1.032l-1.68-.4-1.569-.279c-1-.2-1.911-.293-2.712-.39l-1.116-.126-.941-.049-1.3-.084a1.732,1.732,0,0,0-.453,0Z" transform="translate(112.977 3738.82)" fill="#263238"/>
    <path id="Path_36761" data-name="Path 36761" d="M92.73,237.17a6.1,6.1,0,0,0,.886.872l2.573,2.231c2.189,1.869,5.23,4.421,8.6,7.224s6.457,5.32,8.7,7.119l2.671,2.092a5.74,5.74,0,0,0,1.018.7,6.1,6.1,0,0,0-.9-.872L113.7,254.3c-2.189-1.869-5.23-4.421-8.6-7.224s-6.45-5.313-8.688-7.112l-2.671-2.092a6.9,6.9,0,0,0-1.011-.7Z" transform="translate(114.525 3766.309)" fill="#263238"/>
    <path id="Path_36762" data-name="Path 36762" d="M88.32,260.887c0,.125,6.527,2.176,14.643,4.581s14.761,4.246,14.8,4.121-6.527-2.183-14.643-4.581S88.362,260.762,88.32,260.887Z" transform="translate(115.86 3759.131)" fill="#263238"/>
    <path id="Path_36763" data-name="Path 36763" d="M123.08,241.306a5.89,5.89,0,0,0,.7-.941l1.729-2.636c1.464-2.224,3.549-5.251,6.018-8.479s4.839-6.031,6.589-8.033c.823-.948,1.52-1.743,2.092-2.371a6.011,6.011,0,0,0,.7-.906,4.594,4.594,0,0,0-.865.774c-.53.523-1.283,1.3-2.2,2.273-1.813,1.952-4.239,4.741-6.715,7.977s-4.518,6.31-5.92,8.577c-.7,1.137-1.248,2.092-1.6,2.726A4.935,4.935,0,0,0,123.08,241.306Z" transform="translate(105.336 3772.131)" fill="#263238"/>
    <path id="Path_36764" data-name="Path 36764" d="M155.76,264.61a22.68,22.68,0,0,0,1.541,2.531c.983,1.541,2.315,3.682,3.689,6.1s2.538,4.665,3.368,6.276a22.311,22.311,0,0,0,1.395,2.615,15.5,15.5,0,0,0-1.088-2.789c-.746-1.673-1.869-3.947-3.249-6.387s-2.789-4.553-3.821-6.052a15.337,15.337,0,0,0-1.834-2.294Z" transform="translate(95.445 3758.003)" fill="#263238"/>
    <path id="Path_36765" data-name="Path 36765" d="M167,302.073c.035.063,1.283-.551,3.333-1.471s4.881-2.092,8.144-3.263,6.227-1.973,8.4-2.524a30.427,30.427,0,0,0,3.486-.934,3.755,3.755,0,0,0-.976.1c-.628.091-1.52.258-2.622.5a71.824,71.824,0,0,0-8.486,2.413,72.974,72.974,0,0,0-8.13,3.4c-1.011.5-1.813.927-2.364,1.248a4.01,4.01,0,0,0-.788.53Z" transform="translate(92.042 3749.142)" fill="#263238"/>
    <path id="Path_36766" data-name="Path 36766" d="M158.14,354.67a1.6,1.6,0,0,0,.4.133l1.185.3,4.365,1.011a143.548,143.548,0,0,1,14.252,3.765,63.1,63.1,0,0,1,13.3,6.276c1.59,1.011,2.831,1.9,3.668,2.552a13.632,13.632,0,0,0,1.318.976,3.189,3.189,0,0,0-.293-.314c-.2-.2-.5-.474-.913-.809a38.406,38.406,0,0,0-3.6-2.692,58.306,58.306,0,0,0-13.325-6.415,117.849,117.849,0,0,0-14.343-3.64l-4.4-.913A11.028,11.028,0,0,0,158.14,354.67Z" transform="translate(94.724 3730.74)" fill="#263238"/>
    <path id="Path_36767" data-name="Path 36767" d="M126.3,357.792c.126,0,.906-4.581,1.743-10.278s1.395-10.334,1.269-10.355-.906,4.588-1.743,10.285S126.169,357.779,126.3,357.792Z" transform="translate(104.367 3736.041)" fill="#263238"/>
    <path id="Path_36768" data-name="Path 36768" d="M93.16,347.391a24.7,24.7,0,0,0,2.092-2.475c1.248-1.555,2.977-3.7,4.937-6.025s3.765-4.407,5.083-5.906a23.133,23.133,0,0,0,2.092-2.475,3.326,3.326,0,0,0-.7.565c-.4.39-.969.962-1.666,1.687-1.395,1.443-3.235,3.486-5.2,5.822s-3.654,4.511-4.839,6.122c-.593.809-1.06,1.471-1.395,1.931a2.984,2.984,0,0,0-.4.753Z" transform="translate(114.394 3738.053)" fill="#263238"/>
    <path id="Path_36769" data-name="Path 36769" d="M159.538,385.46v11.422h-2.859l-10.145,32.04H124.019L114.187,397.2l-3.807-.314V385.46Z" transform="translate(109.181 3721.419)" fill="#455a64"/>
    <path id="Path_36770" data-name="Path 36770" d="M113.11,402.187c0,.132,9.936.244,22.194.244s22.2-.112,22.2-.244-9.936-.237-22.2-.237S113.11,402.055,113.11,402.187Z" transform="translate(108.355 3716.427)" fill="#263238"/>
    <path id="Path_36771" data-name="Path 36771" d="M89.89,296.94a8.962,8.962,0,0,0,1.443.391l3.947.955c3.333.823,7.907,2.092,12.865,3.737s9.364,3.438,12.551,4.8l3.723,1.625a9.537,9.537,0,0,0,1.395.565,8.433,8.433,0,0,0-1.3-.732c-.851-.446-2.092-1.053-3.668-1.771a129.752,129.752,0,0,0-25.437-8.556c-1.673-.37-3.04-.641-3.988-.8A9.307,9.307,0,0,0,89.89,296.94Z" transform="translate(115.384 3748.216)" fill="#263238"/>
    <path id="Path_36772" data-name="Path 36772" d="M123.83,427.707c0,.132,6.973.237,15.57.237s15.577-.1,15.577-.237S148,427.47,139.4,427.47,123.83,427.574,123.83,427.707Z" transform="translate(105.111 3708.702)" fill="#fafafa"/>
    <path id="Path_36773" data-name="Path 36773" d="M122.57,423.9c0,.132,7.391.237,16.5.237s16.512-.1,16.512-.237-7.391-.237-16.512-.237S122.57,423.772,122.57,423.9Z" transform="translate(105.49 3709.855)" fill="#fafafa"/>
    <path id="Path_36774" data-name="Path 36774" d="M534.6,295.751l-46.488-52.226a19.691,19.691,0,0,0-14.559-6.6L320.5,235.82a19.677,19.677,0,0,0-19.824,19.726l.258,108.371A19.677,19.677,0,0,0,320.7,383.552l152.516-.641a19.67,19.67,0,0,0,14.838-6.812l46.767-54.388A19.691,19.691,0,0,0,534.6,295.751Zm-25.869,18.827a29.639,29.639,0,1,1,0-.028Z" transform="translate(51.574 3766.718)" fill="#ff725e"/>
    <g id="Group_11057" data-name="Group 11057" transform="translate(352.253 4002.537)" opacity="0.4">
      <path id="Path_36775" data-name="Path 36775" d="M534.6,295.751l-46.488-52.226a19.691,19.691,0,0,0-14.559-6.6L320.5,235.82a19.677,19.677,0,0,0-19.824,19.726l.258,108.371A19.677,19.677,0,0,0,320.7,383.552l152.516-.641a19.67,19.67,0,0,0,14.838-6.812l46.767-54.388A19.691,19.691,0,0,0,534.6,295.751Zm-25.869,18.827a29.639,29.639,0,1,1,0-.028Z" transform="translate(-300.68 -235.819)" fill="#f0b86c"/>
    </g>
    <path id="Path_36776" data-name="Path 36776" d="M546.138,295.751l-46.509-52.226a19.7,19.7,0,0,0-14.559-6.6L332.024,235.82A19.67,19.67,0,0,0,312.2,255.546l.251,108.371a19.684,19.684,0,0,0,19.831,19.635l152.509-.641a19.684,19.684,0,0,0,14.838-6.812l46.76-54.388a19.684,19.684,0,0,0-.251-25.96Zm-25.862,18.827a29.485,29.485,0,1,1,0-.028Z" transform="translate(48.086 3766.718)" fill="#f0b86c"/>
    <path id="Path_36777" data-name="Path 36777" d="M385.239,307.311c.118-13.137,8.214-21.413,19.566-21.3s19.182,8.416,19.064,21.658-8.116,21.413-19.461,21.309S385.114,320.448,385.239,307.311Zm27.494.258c.077-8.367-3.11-12.391-8.012-12.433-4.783-.049-8.165,4.037-8.242,12.279s3.228,12.384,8.012,12.433C409.393,319.89,412.656,315.916,412.733,307.569Zm38.483-20.221,13.248.125-53.935,77.4-13.248-.126Zm-13.332,57.226c.125-13.137,8.214-21.413,19.461-21.309,11.352.112,19.287,8.535,19.168,21.664s-8.214,21.379-19.573,21.26C445.735,366.1,437.765,357.676,437.884,344.574Zm27.382.251c.077-8.235-3.11-12.384-8.012-12.426-4.783-.049-8.158,3.926-8.235,12.279s3.221,12.384,8,12.432c4.9.014,8.165-4.079,8.235-12.321Z" transform="translate(25.977 3751.525)" fill="#fff"/>
    <path id="Path_36778" data-name="Path 36778" d="M623.579,361.309a7.105,7.105,0,0,1,1.527,1.095c.955.76,2.35,1.9,4.114,3.417s3.912,3.382,6.324,5.634,5.118,4.881,7.914,8a81.055,81.055,0,0,1,8.319,10.857l.99,1.583.934,1.653a36.258,36.258,0,0,1,1.771,3.486,21.817,21.817,0,0,1,1.994,8.047,12.707,12.707,0,0,1-.641,4.386,11.3,11.3,0,0,1-2.3,3.954,14.837,14.837,0,0,1-7.977,4.56,21.7,21.7,0,0,1-9.42-.223,41.21,41.21,0,0,1-8.946-3.3,55.909,55.909,0,0,1-15-11.156,72.122,72.122,0,0,1-5.794-6.736q-2.622-3.438-4.993-6.84a130.385,130.385,0,0,1-14.224-25.576c-.767-1.945-1.429-3.814-2-5.613-.279-.9-.544-1.778-.76-2.65a16.45,16.45,0,0,1-.509-2.573,6.38,6.38,0,0,1,1.15-4.679,6.8,6.8,0,0,1,3.305-2.3,9.261,9.261,0,0,1,1.66-.383,9.063,9.063,0,0,1,1.492-.035,7.013,7.013,0,0,1,2.273.5,4.614,4.614,0,0,1,1.213.746c.237.216.342.335.321.363s-.167-.049-.432-.209a5.372,5.372,0,0,0-1.227-.551,7.182,7.182,0,0,0-2.162-.307,10.028,10.028,0,0,0-1.395.112,9.065,9.065,0,0,0-1.513.432,6.143,6.143,0,0,0-2.845,2.148,5.46,5.46,0,0,0-.837,4.044,15.261,15.261,0,0,0,.544,2.42c.23.837.516,1.687.809,2.566q.913,2.636,2.092,5.495a134.448,134.448,0,0,0,14.4,25.1q2.371,3.347,5,6.743a71.22,71.22,0,0,0,5.7,6.554,54.869,54.869,0,0,0,14.531,10.794,39.925,39.925,0,0,0,8.576,3.166,20.06,20.06,0,0,0,8.646.244,13.2,13.2,0,0,0,7.056-3.974,10.25,10.25,0,0,0,2.566-7.154,20.31,20.31,0,0,0-1.841-7.468,35.263,35.263,0,0,0-1.667-3.375l-.872-1.611-.948-1.576a82.149,82.149,0,0,0-8.012-10.8c-2.692-3.124-5.306-5.8-7.67-8.116s-4.407-4.253-6.1-5.836l-3.849-3.654a7.672,7.672,0,0,1-1.283-1.395Z" transform="translate(-34.445 3733.395)" fill="#055452"/>
    <path id="Path_36779" data-name="Path 36779" d="M532.6,186.305c-.1,0-2.05-13.632-4.365-30.478s-4.107-30.513-4-30.527,2.05,13.632,4.365,30.478S532.7,186.291,532.6,186.305Z" transform="translate(-16.097 3800.174)" fill="#055452"/>
    <path id="Path_36780" data-name="Path 36780" d="M605.944,105.76a.87.87,0,0,1-.063.209l-.223.607-.886,2.322-3.319,8.521c-2.789,7.2-6.61,17.153-10.668,28.219s-7.579,21.128-10.09,28.428c-1.248,3.633-2.259,6.582-2.963,8.653-.349,1-.62,1.785-.816,2.35-.091.251-.167.446-.223.607a1.034,1.034,0,0,1-.084.2.727.727,0,0,1,.049-.216l.188-.621c.174-.565.425-1.395.746-2.371.655-2.057,1.631-5.027,2.859-8.688,2.455-7.321,5.941-17.432,10-28.47s7.9-21.016,10.759-28.191c1.395-3.584,2.608-6.485,3.438-8.479l.955-2.294c.1-.244.2-.439.258-.593Z" transform="translate(-31.956 3806.09)" fill="#055452"/>
    <path id="Path_36781" data-name="Path 36781" d="M658.3,182.72c.063.077-9.915,7.893-22.313,17.432S613.533,217.4,613.47,217.319s9.922-7.893,22.313-17.432S658.242,182.636,658.3,182.72Z" transform="translate(-43.114 3782.793)" fill="#055452"/>
    <path id="Path_36782" data-name="Path 36782" d="M494.145,206.8c-.084.063-3.94-4.881-8.618-10.989s-8.416-11.156-8.367-11.205,3.94,4.881,8.618,10.989S494.222,206.742,494.145,206.8Z" transform="translate(-1.85 3782.22)" fill="#055452"/>
    <path id="Path_36783" data-name="Path 36783" d="M659.185,268.113c0,.1-6.143-1.6-13.66-3.793s-13.583-4.044-13.555-4.142,6.143,1.6,13.66,3.793S659.219,268.016,659.185,268.113Z" transform="translate(-48.714 3759.345)" fill="#055452"/>
    <path id="Path_36784" data-name="Path 36784" d="M544.99,268.092l4.532-2.608,2.406-4.644,2.615,4.532,4.644,2.413-4.532,2.608-2.413,4.644-2.608-4.532Z" transform="translate(-22.385 3759.144)" fill="#fff"/>
    <path id="Path_36785" data-name="Path 36785" d="M509.85,259.818l1.59-.913.844-1.625.913,1.583,1.625.844-1.59.913-.844,1.625-.913-1.583Z" transform="translate(-11.747 3760.221)" fill="#fff"/>
    <path id="Path_36786" data-name="Path 36786" d="M532.29,304.719l3.068-1.764,1.632-3.145,1.764,3.068,3.145,1.632-3.068,1.764-1.632,3.145-1.764-3.068Z" transform="translate(-18.54 3747.347)" fill="#fff"/>
    <g id="freepik--Floor--inject-2" transform="translate(162 4150.159)">
      <path id="Path_36787" data-name="Path 36787" d="M508.242,447.711c0,.1-107.556.181-240.2.181s-240.213-.084-240.213-.181,107.528-.181,240.213-.181S508.242,447.607,508.242,447.711Z" transform="translate(-27.83 -447.53)" fill="#263238"/>
    </g>
    <g id="freepik--speech-bubble--inject-2" transform="translate(291.361 3945.241)">
      <path id="Path_36788" data-name="Path 36788" d="M212.208,164.773l-6.415-11.31a30.29,30.29,0,1,0-7.259,8.075h0Z" transform="translate(-149.637 -107.246)" fill="#fff"/>
      <path id="Path_36789" data-name="Path 36789" d="M212.175,164.755l-13.7-3.138a.084.084,0,0,1-.07-.1s0,0,0-.035h0l.126.125a30.741,30.741,0,0,1-6.22,3.751,30.317,30.317,0,0,1-8.263,2.378,26.956,26.956,0,0,1-4.783.237c-.83-.042-1.667-.063-2.51-.132l-2.559-.39a30.513,30.513,0,0,1-18.9-12.133,30.185,30.185,0,0,1-5.111-11.686,30.841,30.841,0,0,1,.356-13.458,29.871,29.871,0,0,1,6.485-12.439l1.234-1.395c.411-.46.893-.837,1.332-1.255a10.928,10.928,0,0,1,1.395-1.192l1.45-1.088a12.8,12.8,0,0,1,1.506-1l1.534-.927,1.6-.781a14.077,14.077,0,0,1,1.625-.7,30.82,30.82,0,0,1,13.555-2.092,29.78,29.78,0,0,1,12.446,3.675,30.68,30.68,0,0,1,14.329,17.7,32.57,32.57,0,0,1,1.318,9.839,30.206,30.206,0,0,1-1.478,8.493,30.752,30.752,0,0,1-3.04,6.513v-.091l6.338,11.352-6.506-11.3a.091.091,0,0,1,0-.084,30.8,30.8,0,0,0,2.977-6.485,29.878,29.878,0,0,0,1.436-8.437,32.631,32.631,0,0,0-1.332-9.762,30.45,30.45,0,0,0-14.238-17.467,29.5,29.5,0,0,0-12.307-3.619,30.52,30.52,0,0,0-13.4,2.092,14.273,14.273,0,0,0-1.6.7l-1.583.767-1.52.92a13.033,13.033,0,0,0-1.485.983l-1.436,1.074c-.488.349-.9.795-1.353,1.185a12.889,12.889,0,0,0-1.311,1.234l-1.22,1.346a29.516,29.516,0,0,0-6.415,12.293,30.541,30.541,0,0,0-.363,13.3,29.928,29.928,0,0,0,5.041,11.561,30.269,30.269,0,0,0,18.687,12.049l2.531.39c.837.07,1.667.091,2.482.139a26.659,26.659,0,0,0,4.755-.223,30.066,30.066,0,0,0,8.235-2.315,30.68,30.68,0,0,0,6.2-3.689.091.091,0,0,1,.132,0,.1.1,0,0,1,0,.112h0l-.049-.146Z" transform="translate(-149.604 -107.228)" fill="#263238"/>
      <path id="Path_36790" data-name="Path 36790" d="M177.995,142.346a4.184,4.184,0,0,0-1.506-.39,4.5,4.5,0,0,0-4.149,1.534c3.27,1.9,7.726,4.414,10.912,6.234l4.023-2.3C184.375,145.825,180.735,143.817,177.995,142.346Z" transform="translate(-156.486 -117.723)" fill="#ff725e"/>
      <g id="Group_11058" data-name="Group 11058" transform="translate(15.854 24.175)" opacity="0.3">
        <path id="Path_36791" data-name="Path 36791" d="M177.995,142.346a4.184,4.184,0,0,0-1.506-.39,4.5,4.5,0,0,0-4.149,1.534c3.27,1.9,7.726,4.414,10.912,6.234l4.023-2.3C184.375,145.825,180.735,143.817,177.995,142.346Z" transform="translate(-172.34 -141.898)"/>
      </g>
      <path id="Path_36792" data-name="Path 36792" d="M190.222,152.2l-.146-.126c-1-.579-2.092-1.68-3.082-1.66-.384,0-.8.342-1.8.9-1.66.941-4.456,2.58-6.129,3.486a6.155,6.155,0,0,1-4.79.865,6.861,6.861,0,0,1-2.245-1.36l18.185-10.543c-.091-.272-.188-.53-.279-.795a5.209,5.209,0,1,1,4.358,3.486,2.378,2.378,0,0,0-1.213.244c-.7.335-1.339.76-2.169,1.234,1.395.628,2.35,1.632,3.988,1.478a4.917,4.917,0,0,1,4.951,3.612,5.208,5.208,0,1,1-9.915-.119C190.02,152.7,190.138,152.461,190.222,152.2Zm4.644-8.367a2.489,2.489,0,0,0,2.517-2.538,2.524,2.524,0,0,0-2.5-2.482,2.566,2.566,0,0,0-2.538,2.552,2.531,2.531,0,0,0,2.517,2.454Zm0,13.3a2.524,2.524,0,0,0,2.545-2.434,2.482,2.482,0,0,0-2.468-2.587,2.538,2.538,0,0,0-2.566,2.42,2.566,2.566,0,0,0,2.461,2.587Z" transform="translate(-156.393 -115.957)" fill="#ff725e"/>
      <path id="Path_36793" data-name="Path 36793" d="M193.959,152.418a1.621,1.621,0,0,0-.551-.837,1.06,1.06,0,0,0-.983-.119,1.032,1.032,0,0,0,0,1.917,1.06,1.06,0,0,0,.983-.119c.516-.37.488-.858.551-.844s.056.112,0,.307a1.165,1.165,0,0,1-.418.739,1.3,1.3,0,0,1-1.255.23,1.346,1.346,0,0,1,0-2.545,1.3,1.3,0,0,1,1.255.23,1.15,1.15,0,0,1,.418.732C194.015,152.307,193.98,152.418,193.959,152.418Z" transform="translate(-162.25 -120.502)" fill="#263238"/>
      <path id="Path_36794" data-name="Path 36794" d="M197.21,151.73a3.6,3.6,0,0,1-.37.244l-1.039.628-3.438,2.022-3.486,1.98-1.06.586a2.586,2.586,0,0,1-.4.2,2.939,2.939,0,0,1,.37-.251l1.039-.628,3.438-2.015,3.486-1.98,1.06-.593A2.884,2.884,0,0,1,197.21,151.73Z" transform="translate(-161.051 -120.699)" fill="#263238"/>
      <path id="Path_36795" data-name="Path 36795" d="M189.516,147.73a1.4,1.4,0,0,1-.167.119l-.5.314-1.855,1.151c-1.562.948-3.73,2.245-6.164,3.619l-6.213,3.528-1.918,1.018-.516.279-.181.091s.056-.042.167-.112l.5-.307,1.869-1.095,6.2-3.563c2.427-1.395,4.6-2.657,6.185-3.577l1.876-1.081.516-.293Z" transform="translate(-156.383 -119.489)" fill="#263238"/>
    </g>
    <g id="freepik--Stars--inject-2" transform="translate(391.488 3927.308)">
      <path id="Path_36796" data-name="Path 36796" d="M360.694,202.18l1.325,2.42,2.42,1.325-2.42,1.325-1.325,2.42-1.325-2.42-2.42-1.325,2.42-1.325Z" transform="translate(-356.95 -150.407)" fill="#ff725e"/>
      <path id="Path_36797" data-name="Path 36797" d="M375,154.263l1.374-.091,1.109-.823.091,1.381.823,1.109-1.381.091-1.109.816-.091-1.374Z" transform="translate(-362.414 -135.625)" fill="#ff725e"/>
      <path id="Path_36798" data-name="Path 36798" d="M694.86,312.063l1.374-.091,1.109-.823.091,1.381.823,1.109-1.381.091-1.109.816-.091-1.374Z" transform="translate(-459.242 -183.394)" fill="#ff725e"/>
      <path id="Path_36799" data-name="Path 36799" d="M469.55,213.336l1.374-.091,1.116-.816.091,1.374.816,1.109-1.374.091-1.116.816-.084-1.374Z" transform="translate(-391.036 -153.51)" fill="#ff725e"/>
      <path id="Path_36800" data-name="Path 36800" d="M481.57,128.836l1.374-.091,1.109-.816.091,1.374.816,1.109-1.374.091-1.109.823-.091-1.381Z" transform="translate(-394.675 -127.93)" fill="#ff725e"/>
      <path id="Path_36801" data-name="Path 36801" d="M421.02,180.217l2.092-1.206,1.109-2.141,1.206,2.092,2.148,1.116-2.092,1.2-1.116,2.148-1.206-2.092Z" transform="translate(-376.345 -142.745)" fill="#ff725e"/>
      <path id="Path_36802" data-name="Path 36802" d="M673.07,350.727l2.092-1.206,1.109-2.141,1.206,2.092,2.141,1.109-2.092,1.206-1.109,2.141-1.206-2.092Z" transform="translate(-452.646 -194.362)" fill="#ff725e"/>
      <path id="Path_36803" data-name="Path 36803" d="M658,295.877l2.092-1.206,1.116-2.141,1.206,2.092,2.141,1.109-2.092,1.206-1.116,2.148-1.2-2.1Z" transform="translate(-448.084 -177.758)" fill="#ff725e"/>
    </g>
  </g>
</svg>
