<svg version="1.2" xmlns="http://www.w3.org/2000/svg" viewBox="0 0 440 212" width="440" height="212">
	<title>OffSinglePicBack-svg</title>
	<style>
		.s0 { fill: #ffffff } 
		.s1 { fill: #707070 } 
	</style>
	<g id="Layer">
		<g id="Subtraction 1">
			<path id="Layer" class="s0" d="m421 210.9h-401q-2 0-3.9-0.4-1.9-0.4-3.7-1.1-1.8-0.8-3.5-1.8-1.6-1.1-3-2.5-1.4-1.4-2.5-3-1-1.7-1.8-3.5-0.7-1.8-1.1-3.7-0.4-1.9-0.4-3.9v-79.9c9.9-0.1 18-8.2 18-18.1 0-9.9-8.1-18-18-18.1v-306.9q0-2 0.4-3.9 0.4-1.9 1.1-3.7 0.8-1.8 1.8-3.5 1.1-1.6 2.5-3 1.4-1.4 3-2.5 1.7-1 3.5-1.8 1.8-0.7 3.7-1.1 1.9-0.4 3.9-0.4h401q2 0 3.9 0.4 1.9 0.4 3.7 1.1 1.8 0.8 3.5 1.8 1.6 1.1 3 2.5 1.4 1.4 2.5 3 1 1.7 1.8 3.5 0.7 1.8 1.1 3.7 0.4 1.9 0.4 3.9v306.9c-9.9 0.1-18 8.2-18 18.1 0 9.9 8.1 18 18 18.1v79.9q0 2-0.4 3.9-0.4 1.9-1.1 3.7-0.8 1.8-1.8 3.5-1.1 1.6-2.5 3-1.4 1.4-3 2.5-1.7 1-3.5 1.8-1.8 0.7-3.7 1.1-1.9 0.4-3.9 0.4z"/>
			<path id="Layer" fill-rule="evenodd" class="s1" d="m421 211h-401q-2 0-3.9-0.4-1.9-0.4-3.8-1.1-1.8-0.8-3.4-1.9-1.7-1.1-3-2.5-1.4-1.3-2.5-3-1.1-1.6-1.9-3.4-0.7-1.9-1.1-3.8-0.4-1.9-0.4-3.9v-80c9.9 0 18-8.1 18-18 0-9.9-8.1-18-18-18v-307c0-5.3 2.1-10.4 5.9-14.1q1.3-1.4 3-2.5 1.6-1.1 3.4-1.9 1.9-0.7 3.8-1.1 1.9-0.4 3.9-0.4h401c5.3 0 10.4 2.1 14.1 5.9q1.4 1.3 2.5 3 1.1 1.6 1.9 3.4 0.7 1.9 1.1 3.8 0.4 1.9 0.4 3.9v307c-9.9 0-18 8.1-18 18 0 9.9 8.1 18 18 18v80c0 5.3-2.1 10.4-5.9 14.1q-1.3 1.4-3 2.5-1.6 1.1-3.4 1.9-1.9 0.7-3.8 1.1-1.9 0.4-3.9 0.4zm0-0.2q2 0 3.9-0.4 1.9-0.4 3.7-1.1 1.8-0.7 3.4-1.8 1.6-1.1 3-2.5 1.4-1.4 2.5-3 1.1-1.6 1.8-3.4 0.7-1.8 1.1-3.7 0.4-1.9 0.4-3.9v-79.8c-9.9-0.1-18-8.2-18-18.2 0-10 8.1-18.1 18-18.2v-306.8q0-2-0.4-3.9-0.4-1.9-1.1-3.7-0.7-1.8-1.8-3.4-1.1-1.6-2.5-3-1.4-1.4-3-2.5-1.6-1.1-3.4-1.8-1.8-0.7-3.7-1.1-1.9-0.4-3.9-0.4h-401q-2 0-3.9 0.4-1.9 0.4-3.7 1.1-1.8 0.7-3.4 1.8-1.6 1.1-3 2.5-1.4 1.4-2.5 3-1.1 1.6-1.8 3.4-0.7 1.8-1.1 3.7-0.4 1.9-0.4 3.9v306.8c9.9 0.1 18 8.2 18 18.2 0 10-8.1 18.1-18 18.2v79.8q0 1.9 0.4 3.9 0.4 1.9 1.1 3.7 0.7 1.8 1.8 3.4 1.1 1.6 2.5 3 1.4 1.4 3 2.5 1.6 1.1 3.4 1.8 1.8 0.7 3.7 1.1 1.9 0.4 3.9 0.4z"/>
		</g>
	</g>
</svg>