<svg xmlns="http://www.w3.org/2000/svg" width="17.377" height="17.377" viewBox="0 0 17.377 17.377">
    <path d="M15.2 4.344h-2.167a4.344 4.344 0 0 0-8.689 0H2.172A2.172 2.172 0 0 0 0 6.516v7.24a3.625 3.625 0 0 0 3.62 3.62h10.137a3.625 3.625 0 0 0 3.62-3.62v-7.24A2.172 2.172 0 0 0 15.2 4.344zm-6.516-2.9a2.9 2.9 0 0 1 2.9 2.9H5.792a2.9 2.9 0 0 1 2.897-2.896zm7.24 12.309a2.172 2.172 0 0 1-2.172 2.172H3.62a2.172 2.172 0 0 1-2.172-2.172V6.516a.724.724 0 0 1 .724-.724h2.172V7.24a.724.724 0 0 0 1.448 0V5.792h5.792V7.24a.724.724 0 0 0 1.448 0V5.792H15.2a.724.724 0 0 1 .724.724z" style="fill:#055452"/>
</svg>
