<svg xmlns="http://www.w3.org/2000/svg" width="56.531" height="18.198" viewBox="0 0 56.531 18.198">
  <path id="visa" d="M36.852.031c-4.014,0-7.6,2.067-7.6,5.886,0,4.38,6.362,4.682,6.362,6.882,0,.926-1.069,1.756-2.894,1.756A9.655,9.655,0,0,1,28.193,13.4l-.828,3.854a14.205,14.205,0,0,0,5.191.979c4.389,0,7.842-2.169,7.842-6.053,0-4.628-6.388-4.921-6.388-6.964,0-.726.877-1.521,2.7-1.521a9.214,9.214,0,0,1,3.729.843L41.245.812A12.2,12.2,0,0,0,36.852.031ZM.128.312l-.1.562a18.975,18.975,0,0,1,3.21.92C5.2,2.5,5.338,2.9,5.668,4.174L9.262,17.939H14.08L21.5.312H16.7L11.926,12.3,9.98,2.138A2.1,2.1,0,0,0,7.791.312Zm23.307,0L19.664,17.939h4.584L28,.312ZM49,.312a2.16,2.16,0,0,0-2.121,1.615L40.163,17.939H44.97l.93-2.669h5.856l.566,2.669h4.241L52.862.312Zm.625,4.762,1.425,6.615H47.231l2.392-6.615Z" transform="translate(-0.031 -0.031)" fill="#1434cb"/>
</svg>
