<svg xmlns="http://www.w3.org/2000/svg" width="887.5" height="568.354" viewBox="0 0 887.5 568.354">
    <g data-name="404 error with person looking for-pana">
        <path data-name="Path 47462" d="M315.329 62.08a1.883 1.883 0 0 1-.189.239l-.592.655c-.5.592-1.26 1.411-2.268 2.52a61.874 61.874 0 0 0-7.17 10.585 49.145 49.145 0 0 0-5.61 18.663 51.664 51.664 0 0 0 3.78 24.27l.1.239-.252.076a82.21 82.21 0 0 0-41.584 27.937A79.387 79.387 0 0 0 251.29 164l-.076.176-.189-.063a58.72 58.72 0 0 0-10.333-2.319c-1.663-.252-3.314-.34-4.9-.454a33.862 33.862 0 0 0-4.662 0 59.957 59.957 0 0 0-15.424 2.52 61.213 61.213 0 0 0-9.413 3.7c-1.059.517-1.827.983-2.369 1.26l-.617.328c-.139.063-.214.1-.214.088l.2-.126.592-.353c.529-.29 1.26-.769 2.344-1.26a57.589 57.589 0 0 1 9.4-3.78 59.391 59.391 0 0 1 15.487-2.6c1.512-.088 3.075 0 4.688 0a33.443 33.443 0 0 1 4.94.441 57.347 57.347 0 0 1 10.421 2.306l-.277.113a79.941 79.941 0 0 1 10.27-16.848 82.476 82.476 0 0 1 41.861-28.088l-.151.315a51.841 51.841 0 0 1-3.78-24.484 48.855 48.855 0 0 1 5.759-18.662 58.413 58.413 0 0 1 7.309-10.547c.97-1.134 1.8-1.941 2.331-2.52l.6-.63z" transform="translate(24.032 -20.395)" style="fill:#e0e0e0"/>
        <path data-name="Path 47463" d="M202.43 62.08a2.448 2.448 0 0 1 .2.328l.542.983c.491.882 1.172 2.155 2.054 3.78 1.777 3.289 4.3 8.065 7.359 14 6.137 11.87 14.378 28.391 22.985 46.864s15.941 35.422 21.069 47.759c2.52 6.162 4.612 11.177 5.986 14.643.68 1.726 1.26 3.062 1.575 4.007.164.441.3.781.4 1.046a1.26 1.26 0 0 1 .113.365s-.063-.113-.164-.353-.265-.592-.441-1.021l-1.663-3.969-6.137-14.58c-5.2-12.3-12.6-29.21-21.2-47.683s-16.838-35.006-22.836-46.914c-3.037-5.923-5.494-10.724-7.221-14.076l-1.966-3.78c-.2-.428-.365-.756-.491-1.008a3.125 3.125 0 0 1-.164-.391z" transform="translate(23.86 -20.395)" style="fill:#e0e0e0"/>
        <path data-name="Path 47464" d="M338.094 62.3h-10.573l-28.87.088-95.618.076.113-.479 2.734 1.437c33.822 17.642 64.1 34.288 85.9 46.536a2902.19 2902.19 0 0 1 25.744 14.617l6.956 4.045 1.815 1.059c.4.239.6.378.6.378l-.63-.34-1.84-1.021-7.006-3.944c-6.112-3.428-14.92-8.38-25.82-14.479a3709.794 3709.794 0 0 0-85.945-46.415l-2.734-1.437-.92-.416h1.008l95.618.076 28.87.076h9.879a7.175 7.175 0 0 0 .719.143z" transform="translate(23.749 -20.421)" style="fill:#e0e0e0"/>
        <path data-name="Path 47465" d="M203.09 131.038a9.665 9.665 0 0 1 1.336-.895 16.989 16.989 0 0 1 1.638-.945c.655-.328 1.374-.769 2.23-1.109a30.239 30.239 0 0 1 2.81-1.147 33.432 33.432 0 0 1 3.327-1.046 41.068 41.068 0 0 1 7.888-1.26 40.323 40.323 0 0 1 7.964.479 33.449 33.449 0 0 1 3.4.731 30.016 30.016 0 0 1 2.911.869c.882.265 1.638.63 2.331.907a17.832 17.832 0 0 1 1.714.781 9.537 9.537 0 0 1 1.411.769 11.983 11.983 0 0 1-1.5-.592c-.466-.214-1.046-.466-1.739-.706s-1.449-.58-2.331-.819a27.913 27.913 0 0 0-2.9-.806 34.024 34.024 0 0 0-3.377-.68 41.383 41.383 0 0 0-7.863-.428 42.466 42.466 0 0 0-7.8 1.159c-1.172.315-2.281.617-3.3 1s-1.953.718-2.8 1.071-1.588.743-2.256 1.046a15.134 15.134 0 0 0-1.663.857 9.338 9.338 0 0 1-1.437.769z" transform="translate(24.032 -4.13)" style="fill:#e0e0e0"/>
        <path data-name="Path 47466" d="M235.863 138.793a4.534 4.534 0 0 1 0-.668v-1.9a37.93 37.93 0 0 1 .983-6.956 40.512 40.512 0 0 1 3.667-9.753 39.983 39.983 0 0 1 7.662-10.194 40.69 40.69 0 0 1 20.451-10.412 37.2 37.2 0 0 1 6.994-.655 18.5 18.5 0 0 1 1.9 0 2.76 2.76 0 0 1 .668 0 4.532 4.532 0 0 1-.668 0h-1.9a40.324 40.324 0 0 0-34.7 21.284 41.584 41.584 0 0 0-3.78 9.615 40.928 40.928 0 0 0-1.121 6.893c-.088.819-.088 1.462-.126 1.89a3.945 3.945 0 0 1-.03.856z" transform="translate(32.554 -10.991)" style="fill:#e0e0e0"/>
        <path data-name="Path 47467" d="M276.973 62.08a1.614 1.614 0 0 1-.227.428l-.731 1.159c-.328.5-.731 1.109-1.134 1.852s-.932 1.55-1.386 2.52-1.021 1.978-1.5 3.138-.97 2.394-1.449 3.717a47.885 47.885 0 0 0-2.621 17.957c.088 1.4.151 2.734.34 3.969s.34 2.382.529 3.428.441 1.978.617 2.81.391 1.525.554 2.092l.378 1.26a1.83 1.83 0 0 1 .088.479 2.758 2.758 0 0 1-.189-.441l-.466-1.26c-.189-.567-.428-1.26-.63-2.092s-.517-1.739-.693-2.8-.466-2.193-.6-3.453-.29-2.583-.378-3.995a49.335 49.335 0 0 1 .416-9.2 50.065 50.065 0 0 1 2.218-8.934c.5-1.336.97-2.6 1.512-3.78s1.059-2.193 1.563-3.138 1.033-1.752 1.462-2.52a20.483 20.483 0 0 1 1.26-1.815l.807-1.109a2.515 2.515 0 0 1 .265-.277z" transform="translate(40.765 -20.395)" style="fill:#e0e0e0"/>
        <path data-name="Path 47468" d="M257.42 62.08a7.217 7.217 0 0 1-.895 1.071 35.689 35.689 0 0 0-2.331 2.974A25.594 25.594 0 0 0 251.536 71a23.476 23.476 0 0 0-1.588 6.6 27.724 27.724 0 0 0 1.638 12.185 29.755 29.755 0 0 0 1.537 3.44 10.712 10.712 0 0 1 .63 1.26 6.728 6.728 0 0 1-.794-1.147 22.362 22.362 0 0 1-1.7-3.415 26.349 26.349 0 0 1-1.815-12.362 22.682 22.682 0 0 1 4.511-11.644 24.536 24.536 0 0 1 2.52-2.9 6.74 6.74 0 0 1 .945-.945z" transform="translate(36.06 -20.395)" style="fill:#e0e0e0"/>
        <path data-name="Path 47469" d="M226.262 119.1a3.462 3.462 0 0 1 0-.491 11.624 11.624 0 0 1 .239-1.4c.088-.554.315-1.336.517-2.193a20.755 20.755 0 0 1 .907-2.835 40.9 40.9 0 0 1 9-14.617c4.662-4.864 10.081-8.266 14.416-9.2a12 12 0 0 1 5.23-.076 9.627 9.627 0 0 1 1.361.441 1.525 1.525 0 0 1 .441.227 13.282 13.282 0 0 0-1.84-.479 12.6 12.6 0 0 0-5.116.227c-4.259 1-9.514 4.4-14.126 9.211a42.391 42.391 0 0 0-9.035 14.378c-.416 1.021-.68 1.978-.97 2.8s-.441 1.563-.592 2.155-.239 1.008-.328 1.374a1.412 1.412 0 0 1-.104.478z" transform="translate(30.057 -13.642)" style="fill:#e0e0e0"/>
        <path data-name="Path 47470" d="M202.83 113.167a6.036 6.036 0 0 1 1.033-.592 27.223 27.223 0 0 1 2.961-1.26 28.733 28.733 0 0 1 4.625-1.26 30.582 30.582 0 0 1 5.872-.554 29.335 29.335 0 0 1 10.446 2.067 27.028 27.028 0 0 1 2.949 1.361 5.419 5.419 0 0 1 1.008.6c0 .088-1.525-.706-4.07-1.638a30.633 30.633 0 0 0-20.7-.2c-2.574.796-4.074 1.564-4.124 1.476z" transform="translate(23.964 -8.06)" style="fill:#e0e0e0"/>
        <path data-name="Path 47471" d="M203.09 97.552a5.144 5.144 0 0 1 .554-.542 17.785 17.785 0 0 1 15.159-3.7 14.806 14.806 0 0 1 2.041.567c.466.164.731.277.718.315s-1.084-.239-2.823-.529a20.464 20.464 0 0 0-6.817 0 20.829 20.829 0 0 0-6.427 2.407c-1.473.877-2.355 1.557-2.405 1.482z" transform="translate(24.032 -12.379)" style="fill:#e0e0e0"/>
        <path data-name="Path 47472" d="M241.62 78.42c0 .1-1.7.328-4.31 1.26a22.211 22.211 0 0 0-2.1.844 24.763 24.763 0 0 0-2.407 1.147 31.818 31.818 0 0 0-4.877 3.377 30.923 30.923 0 0 0-4.108 4.284c-.542.731-1.084 1.411-1.5 2.1a19.752 19.752 0 0 0-1.159 1.953c-1.26 2.432-1.815 4.1-1.915 4.058a6.915 6.915 0 0 1 .328-1.172 12.348 12.348 0 0 1 .491-1.336c.227-.5.441-1.109.781-1.714a19.47 19.47 0 0 1 1.122-2c.416-.718.945-1.424 1.487-2.18a31.026 31.026 0 0 1 4.146-4.385 29.877 29.877 0 0 1 5.04-3.39 23.6 23.6 0 0 1 2.382-1.122 20.012 20.012 0 0 1 2.155-.794 18.586 18.586 0 0 1 1.815-.5 11.782 11.782 0 0 1 1.4-.277 5.418 5.418 0 0 1 1.235-.151z" transform="translate(28.233 -16.144)" style="fill:#e0e0e0"/>
        <path data-name="Path 47473" d="M238.618 61.88c.076 0-.63 1.059-1.411 2.848a20.5 20.5 0 0 0-1.109 3.239 23.643 23.643 0 0 0-.592 4.146 22.125 22.125 0 0 0 .239 4.171 20.163 20.163 0 0 0 .819 3.314c.63 1.852 1.26 2.911 1.159 2.949s-.2-.227-.491-.706a14.188 14.188 0 0 1-.97-2.167 18.8 18.8 0 0 1-.932-3.365 20.961 20.961 0 0 1-.328-4.2 21.421 21.421 0 0 1 .655-4.234 19.166 19.166 0 0 1 1.26-3.264 13.245 13.245 0 0 1 1.2-2.029c.274-.475.463-.715.501-.702z" transform="translate(32.332 -20.447)" style="fill:#e0e0e0"/>
        <path data-name="Path 47474" d="M202.882 62.23c.139 0 .252 31.138.252 69.559s-.113 69.559-.252 69.559-.252-31.138-.252-69.559.113-69.559.252-69.559z" transform="translate(23.912 -20.356)" style="fill:#e0e0e0"/>
        <path data-name="Path 47475" d="m475.23 264.07.176.139.492.441c.441.378 1.058.983 1.915 1.689a45.046 45.046 0 0 0 7.9 5.368 36.7 36.7 0 0 0 13.861 4.2 38.66 38.66 0 0 0 18.209-2.848l.189-.076v.189a61.494 61.494 0 0 0 20.905 31.138 59.224 59.224 0 0 0 12.513 7.674h.139v.151a42.589 42.589 0 0 0-1.739 7.725c-.189 1.26-.252 2.52-.34 3.667a24.652 24.652 0 0 0 0 3.478 44.459 44.459 0 0 0 1.852 11.53 45.833 45.833 0 0 0 2.772 7.044c.378.794.731 1.374.932 1.777l.239.454.076.164-.1-.151-.265-.441c-.214-.391-.58-.97-.97-1.752a42.841 42.841 0 0 1-2.873-7.031 43.966 43.966 0 0 1-1.94-11.581c-.063-1.134 0-2.306 0-3.5a25.251 25.251 0 0 1 .328-3.7 43.509 43.509 0 0 1 1.726-7.775l.088.2a60.183 60.183 0 0 1-12.6-7.687 61.115 61.115 0 0 1-11.341-11.707 60.4 60.4 0 0 1-9.665-19.595l.239.113a38.825 38.825 0 0 1-18.31 2.823 36.771 36.771 0 0 1-13.962-4.31 45.276 45.276 0 0 1-7.888-5.456c-.844-.743-1.437-1.361-1.865-1.752l-.479-.454z" transform="translate(94.823 32.148)" style="fill:#e0e0e0"/>
        <path data-name="Path 47476" d="m475.23 340.774.239-.151.731-.4 2.835-1.537c2.457-1.323 6.036-3.2 10.472-5.494 8.821-4.587 21.221-10.749 35.044-17.188s26.463-11.921 35.712-15.764a843.773 843.773 0 0 1 10.951-4.473l2.986-1.172.781-.3.277-.088-.265.126-.769.328-2.961 1.26-10.9 4.587c-9.2 3.894-21.838 9.413-35.662 15.852s-26.173 12.6-35.082 17.075l-10.519 5.399-2.9 1.449-.743.378z" transform="translate(94.823 39.986)" style="fill:#e0e0e0"/>
        <path data-name="Path 47477" d="M475.4 250.72v7.9c0 5.1 0 12.475.063 21.586v71.5l-.353-.088 1.071-2.041c13.231-25.278 25.656-47.885 34.8-64.266a2068.874 2068.874 0 0 1 10.938-19.255l3.012-5.2c.353-.592.617-1.033.794-1.348l.29-.454-.252.466c-.176.328-.428.781-.769 1.374l-2.835 5.305-10.82 19.301c-9.1 16.382-21.485 39-34.7 64.266-.378.706-.743 1.4-1.071 2.041l-.353.68V251.249a.746.746 0 0 1 .185-.529z" transform="translate(94.791 28.675)" style="fill:#e0e0e0"/>
        <path data-name="Path 47478" d="M526.79 336.687a6.371 6.371 0 0 1-.668-1 10.987 10.987 0 0 1-.706-1.26 17.349 17.349 0 0 1-.832-1.676 18.671 18.671 0 0 1-.857-2.1 23.062 23.062 0 0 1-.781-2.52 27.924 27.924 0 0 1-.567-11.845 23.623 23.623 0 0 1 .555-2.52 19.338 19.338 0 0 1 .655-2.167 16.98 16.98 0 0 1 .668-1.739 12.981 12.981 0 0 1 .592-1.26 6.67 6.67 0 0 1 .567-1.059 7.957 7.957 0 0 1-.441 1.122c-.151.353-.34.781-.529 1.26a15.481 15.481 0 0 0-.6 1.752c-.176.668-.441 1.374-.6 2.155s-.353 1.638-.517 2.52a32.56 32.56 0 0 0-.315 5.885 32.109 32.109 0 0 0 .87 5.822c.239.882.454 1.714.744 2.52s.542 1.462.806 2.092.542 1.2.769 1.689.466.907.655 1.26a7.834 7.834 0 0 1 .542 1.071z" transform="translate(106.987 43.456)" style="fill:#e0e0e0"/>
        <path data-name="Path 47479" d="M532.587 312.7h-1.928a27.01 27.01 0 0 1-5.192-.731 30.054 30.054 0 0 1-22.682-23.766 28.986 28.986 0 0 1-.491-5.229v-1.424a2.019 2.019 0 0 1 0-.5 3.979 3.979 0 0 1 0 .5v1.424a30.446 30.446 0 0 0 .6 5.179 31.5 31.5 0 0 0 2.445 7.321 30.867 30.867 0 0 0 25.2 17.087c.617.063 1.1 0 1.424.088a1.854 1.854 0 0 1 .618.05z" transform="translate(101.858 36.565)" style="fill:#e0e0e0"/>
        <path data-name="Path 47480" d="M475.23 276.94a1.044 1.044 0 0 1 .315.164l.87.542c.378.252.832.542 1.386.857s1.159.693 1.878 1.033 1.474.769 2.344 1.122 1.789.731 2.772 1.084a36.179 36.179 0 0 0 13.433 1.953c1.046-.063 2.041-.113 2.974-.252s1.777-.252 2.52-.391 1.474-.328 2.1-.466 1.134-.29 1.563-.416l.983-.277a1.261 1.261 0 0 1 .353-.076 2.166 2.166 0 0 1-.328.151l-.97.34a14.634 14.634 0 0 1-1.55.479c-.617.151-1.26.378-2.1.517s-1.638.34-2.52.454-1.941.214-3 .29a38.252 38.252 0 0 1-6.88-.315 37.8 37.8 0 0 1-6.679-1.663c-1-.378-1.941-.718-2.785-1.134s-1.638-.794-2.344-1.172-1.26-.769-1.865-1.084a8.817 8.817 0 0 1-1.348-.907l-.832-.6a1.563 1.563 0 0 1-.29-.233z" transform="translate(94.823 35.496)" style="fill:#e0e0e0"/>
        <path data-name="Path 47481" d="M475.23 291.29a7.142 7.142 0 0 1 .794.668 24.778 24.778 0 0 0 2.23 1.739 18.657 18.657 0 0 0 3.642 2 17.854 17.854 0 0 0 4.94 1.185 20.541 20.541 0 0 0 9.111-1.26 21.917 21.917 0 0 0 2.52-1.147 6.175 6.175 0 0 1 .932-.466 5.592 5.592 0 0 1-.857.592 18.111 18.111 0 0 1-2.52 1.26 19.7 19.7 0 0 1-9.249 1.348 17.012 17.012 0 0 1-5.04-1.26 18.3 18.3 0 0 1-3.68-2.1 19.35 19.35 0 0 1-2.155-1.84 4.739 4.739 0 0 1-.668-.718z" transform="translate(94.823 39.229)" style="fill:#e0e0e0"/>
        <path data-name="Path 47482" d="M517.86 318.3a1.336 1.336 0 0 1-.365 0l-1.046-.176c-.454-.088-1-.227-1.638-.391a17.533 17.533 0 0 1-2.13-.668 30.848 30.848 0 0 1-10.925-6.729c-3.642-3.491-6.175-7.5-6.88-10.787a8.821 8.821 0 0 1 0-3.906 5.878 5.878 0 0 1 .328-1.008 1.937 1.937 0 0 1 .164-.34 9.964 9.964 0 0 0-.353 1.374 9.311 9.311 0 0 0 .176 3.78c.744 3.176 3.276 7.12 6.88 10.56a31.794 31.794 0 0 0 10.749 6.754c.769.315 1.487.517 2.092.731l1.613.441 1.033.239a1.37 1.37 0 0 1 .302.126z" transform="translate(99.876 40.009)" style="fill:#e0e0e0"/>
        <path data-name="Path 47483" d="M513.437 335.319a5.207 5.207 0 0 1-.441-.769 21.433 21.433 0 0 1-.97-2.218 21.817 21.817 0 0 1-.97-3.453 22.676 22.676 0 0 1-.416-4.385 22.292 22.292 0 0 1 .5-4.385 21.2 21.2 0 0 1 1.046-3.44 19.431 19.431 0 0 1 1.008-2.193 3.581 3.581 0 0 1 .466-.756c.063 0-.542 1.147-1.26 3.049a23.463 23.463 0 0 0-1.424 7.725 24.108 24.108 0 0 0 1.26 7.75c.697 1.915 1.277 3.049 1.201 3.075z" transform="translate(104.034 45.063)" style="fill:#e0e0e0"/>
        <path data-name="Path 47484" d="M501.714 333.518a2.244 2.244 0 0 1-.4-.416 13.073 13.073 0 0 1-.932-1.26 13.7 13.7 0 0 1-1.915-4.852 13.862 13.862 0 0 1 .088-5.217 10.083 10.083 0 0 1 .428-1.525c.126-.353.2-.542.227-.529s-.176.806-.391 2.1a15.312 15.312 0 0 0 0 5.1 15.487 15.487 0 0 0 1.777 4.776 11.213 11.213 0 0 1 1.118 1.823z" transform="translate(100.813 46.624)" style="fill:#e0e0e0"/>
        <path data-name="Path 47485" d="M487.44 305.33c.088 0 .252 1.26.932 3.226a16.387 16.387 0 0 0 .63 1.575c.227.555.542 1.134.857 1.739a23.124 23.124 0 0 0 2.52 3.642 25 25 0 0 0 3.2 3.075c.554.4 1.059.806 1.588 1.122s1 .617 1.449.87c1.827.983 3.062 1.348 3.037 1.424a4.383 4.383 0 0 1-.87-.239c-.277-.088-.617-.2-1.008-.365a12.165 12.165 0 0 1-1.26-.592 13.009 13.009 0 0 1-1.55-.769c-.542-.315-1.071-.706-1.638-1.109a24.044 24.044 0 0 1-3.276-3.1 23.533 23.533 0 0 1-2.52-3.78 17.4 17.4 0 0 1-.844-1.789 15.947 15.947 0 0 1-.542-1.563c-.176-.5-.265-.97-.365-1.374a7.365 7.365 0 0 1-.214-1.046 4.309 4.309 0 0 1-.126-.947z" transform="translate(97.999 42.881)" style="fill:#e0e0e0"/>
        <path data-name="Path 47486" d="M475.08 304.671c0-.063.781.454 2.13 1.046a16.074 16.074 0 0 0 2.407.832 15.814 15.814 0 0 0 6.212.265 14.248 14.248 0 0 0 2.52-.617c1.386-.466 2.18-.92 2.218-.857a2.23 2.23 0 0 1-.542.353 9.036 9.036 0 0 1-1.588.756 13.86 13.86 0 0 1-2.52.706 16.133 16.133 0 0 1-3.2.214 15.713 15.713 0 0 1-3.15-.491 12.792 12.792 0 0 1-2.445-.92 10.31 10.31 0 0 1-1.525-.882 2.523 2.523 0 0 1-.517-.405z" transform="translate(94.784 42.708)" style="fill:#e0e0e0"/>
        <path data-name="Path 47487" d="M475.34 330.9c0-.1 23.287-.189 52.005-.189s52.031.088 52.031.189-23.287.189-52.031.189-52.005-.089-52.005-.189z" transform="translate(94.851 49.483)" style="fill:#e0e0e0"/>
        <path data-name="Path 47488" d="M598.567 66.75a6.3 6.3 0 0 0 1.89-.466 4.788 4.788 0 0 0 1.815-1.487 4.7 4.7 0 0 0 .932-3.012V44.131a4.561 4.561 0 0 0-1.386-2.684 4.423 4.423 0 0 0-2.911-1.26H533.28a4.436 4.436 0 0 0-4.436 4.461v16.935a4.524 4.524 0 0 0 1.689 3.78 4.436 4.436 0 0 0 1.915.882 13.861 13.861 0 0 0 2.193.076h35.473l20.931.113h7.17a2.673 2.673 0 0 1 .5 0 2.255 2.255 0 0 1-.5 0h-1.487l-5.683.063-20.931.1-31.037.076h-4.436a13.1 13.1 0 0 1-2.306-.088 5.1 5.1 0 0 1-2.193-1A5.2 5.2 0 0 1 528 61.646V44.761a5.024 5.024 0 0 1 5.091-5.041h65.7a4.927 4.927 0 0 1 3.2 1.374 5.04 5.04 0 0 1 1.5 2.961c.1 1.109 0 2.092 0 3.1v14.617a5.04 5.04 0 0 1-1.021 3.138 4.9 4.9 0 0 1-1.915 1.474 4.777 4.777 0 0 1-1.449.353z" transform="translate(108.549 -26.211)" style="fill:#e0e0e0"/>
        <path data-name="Path 47489" d="M133.036 55.967a6.162 6.162 0 0 0 1.915-.5 4.713 4.713 0 0 0 2.734-4.486V33.322a4.486 4.486 0 0 0-1.386-2.684 4.423 4.423 0 0 0-2.9-1.26H67.761a4.448 4.448 0 0 0-3.856 2.243 4.385 4.385 0 0 0-.781 2.419v16.823a4.536 4.536 0 0 0 1.7 3.78 4.373 4.373 0 0 0 1.915.882 13.861 13.861 0 0 0 2.193.076h4.436l31.037.063 20.918.113-20.918.1-31.037.076h-4.4a14.391 14.391 0 0 1-2.306-.088 5.1 5.1 0 0 1-2.193-1 5.167 5.167 0 0 1-1.941-4.322V34.041a5.154 5.154 0 0 1 .668-2.52A5.041 5.041 0 0 1 67.622 29h65.7a5.041 5.041 0 0 1 4.7 4.335c.088 1.109 0 2.092 0 3.1v14.617a4.927 4.927 0 0 1-1.021 3.138 4.826 4.826 0 0 1-2.054 1.424 4.612 4.612 0 0 1-1.449.353z" transform="translate(-12.533 -29)" style="fill:#e0e0e0"/>
        <path data-name="Path 47490" d="M111.635 77.377a5.86 5.86 0 0 0 1.9-.466 4.713 4.713 0 0 0 2.734-4.486V54.771a4.436 4.436 0 0 0-1.374-2.684 4.562 4.562 0 0 0-2.911-1.26H46.311a4.486 4.486 0 0 0-3.869 2.256 4.65 4.65 0 0 0-.58 2.218v16.885a4.5 4.5 0 0 0 1.689 3.78 4.436 4.436 0 0 0 1.915.882 13.861 13.861 0 0 0 2.193.088h4.436l31.037.076 20.842.239h7.158a3.781 3.781 0 0 1 .5 0 2.52 2.52 0 0 1-.5 0h-7.158l-20.931.391H47.571a16.079 16.079 0 0 1-2.306 0 5.267 5.267 0 0 1-2.193-1 5.2 5.2 0 0 1-1.941-4.322V55.351a5.293 5.293 0 0 1 .668-2.52 5.154 5.154 0 0 1 4.436-2.52h65.7a5.041 5.041 0 0 1 4.637 4.4c.088 1.109 0 2.092 0 3.1v14.614a4.877 4.877 0 0 1-1.033 3.125 4.751 4.751 0 0 1-1.915 1.487 5.04 5.04 0 0 1-1.437.353 2.029 2.029 0 0 1-.554-.013z" transform="translate(-18.099 -23.456)" style="fill:#e0e0e0"/>
        <path data-name="Path 47491" d="M217.675 376.3a6.68 6.68 0 0 0 1.9-.479 4.713 4.713 0 0 0 2.735-4.486v-14.622c0-.983 0-2.054-.063-3.037a4.524 4.524 0 0 0-4.284-3.906H152.3a4.486 4.486 0 0 0-3.869 2.256 4.65 4.65 0 0 0-.58 2.218v16.886a4.587 4.587 0 0 0 1.7 3.78 4.5 4.5 0 0 0 1.915.87 12.516 12.516 0 0 0 2.193.088h4.441l31.037.063 20.918.1 5.7.063h1.474a2.524 2.524 0 0 1 .5 0h-1.978l-5.7.063-20.918.1-31.037.063h-4.436a14.383 14.383 0 0 1-2.306-.088 5.1 5.1 0 0 1-2.193-1 5.166 5.166 0 0 1-1.941-4.322v-16.931a5.1 5.1 0 0 1 5.1-5.129h65.69a5.04 5.04 0 0 1 4.7 4.335c.088 1.109 0 2.092 0 3.1v5.62c0 3.5 0 6.515-.063 9a4.877 4.877 0 0 1-2.936 4.612 5.04 5.04 0 0 1-1.449.353z" transform="translate(9.497 54.201)" style="fill:#e0e0e0"/>
        <path data-name="Path 47492" d="M700.2 297.317a6.163 6.163 0 0 0 1.9-.479 4.713 4.713 0 0 0 2.734-4.486c0-2.52 0-5.494-.063-9V274.7a4.562 4.562 0 0 0-1.386-2.684 4.423 4.423 0 0 0-2.9-1.26H634.72a4.436 4.436 0 0 0-4.436 4.461v16.936a4.473 4.473 0 0 0 3.617 4.713 13.861 13.861 0 0 0 2.193.076h4.436l31.037.063 20.918.113-20.918.1-31.037.076h-4.4a14.6 14.6 0 0 1-2.319-.088 5.041 5.041 0 0 1-2.18-1 5.166 5.166 0 0 1-1.941-4.322V275a5.154 5.154 0 0 1 .668-2.52 5.041 5.041 0 0 1 4.423-2.52h65.7a5.041 5.041 0 0 1 4.713 4.335c.088 1.109 0 2.092 0 3.1v14.617a5.041 5.041 0 0 1-1.021 3.138 4.9 4.9 0 0 1-1.915 1.474 4.776 4.776 0 0 1-1.449.353z" transform="translate(135 33.68)" style="fill:#e0e0e0"/>
        <path data-name="Path 47493" d="M506.166 146.208a6.68 6.68 0 0 0 1.9-.479 4.713 4.713 0 0 0 2.734-4.486v-14.617c0-.983 0-2.054-.063-3.037a4.524 4.524 0 0 0-4.284-3.906H440.74a4.486 4.486 0 0 0-3.869 2.256 4.65 4.65 0 0 0-.58 2.218v16.886a4.574 4.574 0 0 0 1.7 3.78 4.5 4.5 0 0 0 1.915.87 12.514 12.514 0 0 0 2.193.088h35.473l20.918.1h7.17a2.52 2.52 0 0 1 .5 0h-7.674l-20.918.1-31.037.076H442.1a14.389 14.389 0 0 1-2.306-.088 5.1 5.1 0 0 1-2.193-1 5.167 5.167 0 0 1-1.941-4.322v-16.478a5.1 5.1 0 0 1 5.1-5.129h65.69a5.04 5.04 0 0 1 4.7 4.335c.088 1.109 0 2.092 0 3.1v5.62c0 3.5 0 6.515-.063 9a4.877 4.877 0 0 1-2.936 4.612 5.04 5.04 0 0 1-1.449.353 1.3 1.3 0 0 1-.536.148z" transform="translate(84.528 -5.578)" style="fill:#e0e0e0"/>
        <path data-name="Path 47494" d="M104.7 213.9a5.835 5.835 0 0 0 1.89-.466 4.789 4.789 0 0 0 1.815-1.487 4.687 4.687 0 0 0 .932-3V191.28a4.562 4.562 0 0 0-1.386-2.684 4.423 4.423 0 0 0-2.911-1.26H39.272a4.436 4.436 0 0 0-4.436 4.461v16.936a4.524 4.524 0 0 0 1.689 3.78 4.436 4.436 0 0 0 1.915.882 13.86 13.86 0 0 0 2.193.076h4.436l31.037.063 20.931.113 5.683.063h1.487a2.672 2.672 0 0 1 .5 0h-1.987l-5.683.063-20.931.1-31.037.076h-4.448a13.1 13.1 0 0 1-2.306-.088 4.965 4.965 0 0 1-2.193-1 5.179 5.179 0 0 1-1.941-4.322v-16.878a5.024 5.024 0 0 1 5.091-5.041h65.7a5.04 5.04 0 0 1 4.7 4.335c.1 1.109 0 2.092 0 3.1v14.63a4.965 4.965 0 0 1-1.021 3.125 4.9 4.9 0 0 1-2 1.752 4.777 4.777 0 0 1-1.449.353z" transform="translate(-19.907 12.001)" style="fill:#e0e0e0"/>
        <g>
            <path data-name="Path 47495" d="M867.543 390.488c0 .176-182.781.328-408.192.328s-408.281-.151-408.281-.328 182.718-.328 408.281-.328 408.192.151 408.192.328z" transform="translate(-15.512 64.947)" style="fill:#263238"/>
        </g>
        <g>
            <path data-name="Path 47496" d="M32.8 209.4h207.7a10.434 10.434 0 0 0 10.3-10.3V60.125l-10.3 10.308h340.85l-10.308-10.308v353.591a10.459 10.459 0 0 0 10.308 10.308h228.99c10.812 0 79.249-.365 90.061-.365 13.257 0 13.282-20.616 0-20.616-29.512 0-116.65.365-146.175.365H581.35l10.308 10.308V60.125a10.446 10.446 0 0 0-10.308-10.3H240.5a10.446 10.446 0 0 0-10.308 10.3V199.1l10.308-10.3H32.8c-13.257 0-13.282 20.6 0 20.6z" transform="translate(-22.852 -23.581)" style="fill:#e0e0e0"/>
            <path data-name="Path 47497" d="M207.7 70.691c-.126 0-.391-1.537-1.26-3.906a26.06 26.06 0 0 0-1.966-3.957 28.277 28.277 0 0 0-3.352-4.335 28.769 28.769 0 0 0-4.108-3.528 26.222 26.222 0 0 0-3.856-2.193c-2.306-1.046-3.856-1.4-3.78-1.512a3.289 3.289 0 0 1 1.1.164 11.618 11.618 0 0 1 1.26.34 14.806 14.806 0 0 1 1.638.592 22.683 22.683 0 0 1 4.007 2.117 26.363 26.363 0 0 1 4.247 3.566 27.145 27.145 0 0 1 3.339 4.448 23.109 23.109 0 0 1 1.89 4.121c.227.592.353 1.172.491 1.663a9.748 9.748 0 0 1 .265 1.26 4.058 4.058 0 0 1 .085 1.16z" transform="translate(20.465 -23.209)" style="fill:#263238"/>
            <path data-name="Rectangle 2938" transform="translate(204.566 142.999)" style="fill:#e0e0e0" d="M0 0h26.047v9.212H0z"/>
            <path data-name="Path 47498" d="M211.338 149.808c0 .176-5.784.328-12.929.328s-12.929-.151-12.929-.328 5.784-.328 12.929-.328 12.929.151 12.929.328z" transform="translate(19.451 2.34)" style="fill:#263238"/>
            <path data-name="Path 47499" d="M211.385 142.557c0 .176-5.834.328-13.042.328s-13.042-.151-13.042-.328a127.173 127.173 0 0 1 13.042-.328 127.168 127.168 0 0 1 13.042.328z" transform="translate(19.404 .443)" style="fill:#263238"/>
            <path data-name="Rectangle 2939" transform="rotate(-90 291.377 -241.716)" style="fill:#e0e0e0" d="M0 0h26.047v9.212H0z"/>
            <path data-name="Path 47500" d="M453.228 47.62a124.973 124.973 0 0 1 .328 12.929 125.2 125.2 0 0 1-.328 12.929c-.176 0-.328-5.8-.328-12.929s.126-12.929.328-12.929z" transform="translate(89.014 -24.156)" style="fill:#263238"/>
            <path data-name="Path 47501" d="M445.968 47.62a127.146 127.146 0 0 1 .332 13.08 127.381 127.381 0 0 1-.328 13.042c-.176 0-.328-5.847-.328-13.042s.147-13.08.324-13.08z" transform="translate(87.125 -24.156)" style="fill:#263238"/>
            <path data-name="Rectangle 2940" transform="rotate(180 285.669 38.478)" style="fill:#e0e0e0" d="M0 0h26.047v9.212H0z"/>
            <path data-name="Path 47502" d="M455.45 82.887a124.969 124.969 0 0 1 12.929-.328 124.974 124.974 0 0 1 12.929.328c0 .176-5.784.328-12.929.328s-12.929-.089-12.929-.328z" transform="translate(89.677 -15.079)" style="fill:#263238"/>
            <path data-name="Path 47503" d="M455.45 90.147a127.182 127.182 0 0 1 13.042-.328 127.17 127.17 0 0 1 13.042.328c0 .176-5.834.328-13.042.328s-13.042-.152-13.042-.328z" transform="translate(89.677 -13.19)" style="fill:#263238"/>
            <path data-name="Rectangle 2941" transform="rotate(90 111.695 487.063)" style="fill:#e0e0e0" d="M0 0h26.047v9.212H0z"/>
            <path data-name="Path 47504" d="M490.827 353.008a124.973 124.973 0 0 1-.328-12.929 124.973 124.973 0 0 1 .328-12.929c.176 0 .328 5.784.328 12.929s-.155 12.929-.328 12.929z" transform="translate(98.783 48.557)" style="fill:#263238"/>
            <path data-name="Path 47505" d="M498.077 353.047a127.19 127.19 0 0 1-.328-13.047 127.183 127.183 0 0 1 .328-13c.176 0 .328 5.834.328 13.042s-.139 13.005-.328 13.005z" transform="translate(100.669 48.518)" style="fill:#263238"/>
            <path data-name="Rectangle 2942" transform="translate(545.77 351.878)" style="fill:#e0e0e0" d="M0 0h26.047v9.212H0z"/>
            <path data-name="Path 47506" d="M482.088 315.577c0 .176-5.784.328-12.929.328s-12.929-.151-12.929-.328a125.161 125.161 0 0 1 12.929-.328 124.974 124.974 0 0 1 12.929.328z" transform="translate(89.88 45.45)" style="fill:#263238"/>
            <path data-name="Path 47507" d="M482.135 308.313c0 .176-5.834.328-13.042.328s-13.042-.151-13.042-.328a125.033 125.033 0 0 1 13.042-.3 124.848 124.848 0 0 1 13.042.3z" transform="translate(89.833 43.565)" style="fill:#263238"/>
            <path data-name="Rectangle 2943" transform="rotate(90 180.845 204.41)" style="fill:#e0e0e0" d="M0 0h26.047v9.212H0z"/>
            <path data-name="Path 47508" d="M321.4 73.82a124.972 124.972 0 0 1-.328-12.929A125.166 125.166 0 0 1 321.4 48c.176 0 .328 5.8.328 12.929s-.155 12.891-.328 12.891z" transform="translate(54.71 -24.057)" style="fill:#263238"/>
            <path data-name="Path 47509" d="M328.648 73.875c-.176 0-.328-5.834-.328-13.042s.151-13.042.328-13.042.328 5.847.328 13.042-.152 13.042-.328 13.042z" transform="translate(56.607 -24.112)" style="fill:#263238"/>
            <path data-name="Rectangle 2944" transform="rotate(90 14.458 177.406)" style="fill:#e0e0e0" d="M0 0h26.047v9.212H0z"/>
            <path data-name="Path 47510" d="M167.908 184.438c-.176 0-.328-5.784-.328-12.929s.151-12.929.328-12.929a125.182 125.182 0 0 1 .328 12.929 124.977 124.977 0 0 1-.328 12.929z" transform="translate(14.795 4.708)" style="fill:#263238"/>
            <path data-name="Path 47511" d="M175.168 184.485c-.176 0-.328-5.834-.328-13.042s.151-13.042.328-13.042a127.377 127.377 0 0 1 .328 13.042 127.168 127.168 0 0 1-.328 13.042z" transform="translate(16.683 4.661)" style="fill:#263238"/>
        </g>
        <g>
            <path data-name="Path 47512" d="M707.317 373.585a5.835 5.835 0 0 0 1.89-.466 4.787 4.787 0 0 0 1.815-1.487 4.688 4.688 0 0 0 .932-3c0-2.52 0-5.507-.063-9.01v-8.657a4.587 4.587 0 0 0-1.386-2.684 4.423 4.423 0 0 0-2.911-1.26h-11.039l-16.659.1h-38.005a4.436 4.436 0 0 0-4.436 4.461v16.961a4.524 4.524 0 0 0 1.689 3.78 4.436 4.436 0 0 0 1.915.882 15.568 15.568 0 0 0 2.193.088h4.436l31.037.076 20.931.1 5.683.063h1.487a2.674 2.674 0 0 1 .5 0h-1.991l-5.683.063-20.931.1-31.037.076h-4.436a13.106 13.106 0 0 1-2.306-.088 4.965 4.965 0 0 1-2.193-1 5.179 5.179 0 0 1-1.953-4.146v-16.9a5.041 5.041 0 0 1 5.041-5.116h65.7a5.041 5.041 0 0 1 4.7 4.347c.1 1.1 0 2.079 0 3.087v14.63a4.965 4.965 0 0 1-1.021 3.125 4.788 4.788 0 0 1-1.915 1.474 4.424 4.424 0 0 1-1.449.353z" transform="translate(136.851 53.598)" style="fill:#263238"/>
            <path data-name="Path 47513" d="M718.687 120.243a6.679 6.679 0 0 0 1.9-.479 4.713 4.713 0 0 0 2.734-4.486c0-2.52 0-5.494-.063-9v-8.655a4.561 4.561 0 0 0-1.386-2.684 4.423 4.423 0 0 0-2.9-1.26h-65.64a4.461 4.461 0 0 0-3.856 2.256 4.385 4.385 0 0 0-.58 2.218v16.936a4.436 4.436 0 0 0 3.616 4.7 12.411 12.411 0 0 0 2.193.088h35.473l20.918.1h7.17a2.672 2.672 0 0 1 .5 0H711.1l-20.918.1-31.037.076h-4.436a14.593 14.593 0 0 1-2.319-.088 5.04 5.04 0 0 1-2.18-1 5.166 5.166 0 0 1-1.941-4.322v-16.5a5.04 5.04 0 0 1 .668-2.52 5.129 5.129 0 0 1 4.423-2.583h65.7a4.889 4.889 0 0 1 3.2 1.374 4.965 4.965 0 0 1 1.5 2.961c.1 1.109 0 2.092 0 3.1V115.2a4.94 4.94 0 0 1-1.021 3.125 4.838 4.838 0 0 1-1.915 1.487 5.193 5.193 0 0 1-1.449.353z" transform="translate(139.833 -12.313)" style="fill:#263238"/>
            <path data-name="Path 47514" d="M697.3 141.6a5.86 5.86 0 0 0 1.9-.466 4.826 4.826 0 0 0 1.815-1.474 4.737 4.737 0 0 0 .92-3.012v-17.672a4.524 4.524 0 0 0-4.284-3.906h-11.083l-16.672.063H631.9a4.5 4.5 0 0 0-3.869 2.243 4.587 4.587 0 0 0-.58 2.218v16.9a4.512 4.512 0 0 0 1.7 3.78 4.373 4.373 0 0 0 1.915.882 15.561 15.561 0 0 0 2.193.088h4.441l31.037.076 20.918.1 5.7.063h1.474a2.156 2.156 0 0 1 .5 0 2.521 2.521 0 0 1-.5 0h-7.17l-20.918.113-31.037.063h-4.436a16.02 16.02 0 0 1-2.306-.088 5.129 5.129 0 0 1-4.158-5.015v-16.95a5.1 5.1 0 0 1 5.1-5.116h65.69a5.04 5.04 0 0 1 4.7 4.335c.088 1.1 0 2.092 0 3.087v14.63a4.877 4.877 0 0 1-2.936 4.612 5.04 5.04 0 0 1-1.449.353 3.114 3.114 0 0 1-.6.088z" transform="translate(134.25 -6.762)" style="fill:#263238"/>
            <path data-name="Path 47515" d="M283.6 259.055a6.843 6.843 0 0 0 1.89-.466 4.8 4.8 0 0 0 1.8-1.474 4.574 4.574 0 0 0 .932-2.986v-17.592a4.625 4.625 0 0 0-1.26-2.709 4.574 4.574 0 0 0-2.86-1.26h-65.3a4.473 4.473 0 0 0-3.843 2.23 4.385 4.385 0 0 0-.832 2.243v16.81a4.574 4.574 0 0 0 1.6 3.869 4.448 4.448 0 0 0 1.878.92 10.157 10.157 0 0 0 2.167.113h4.436l30.9.063 20.817.1-20.817.1-30.9.076h-4.423a11.015 11.015 0 0 1-2.293-.126 5.041 5.041 0 0 1-2.155-1.046 5.43 5.43 0 0 1-1.449-1.953 6.048 6.048 0 0 1-.391-2.394V237.04a5.1 5.1 0 0 1 5.04-5.041h65.338a4.965 4.965 0 0 1 3.15 1.449 5.1 5.1 0 0 1 1.424 2.987V254.076a4.9 4.9 0 0 1-1.033 3.113 4.827 4.827 0 0 1-1.915 1.462 4.638 4.638 0 0 1-1.437.353z" transform="translate(26.739 23.805)" style="fill:#263238"/>
            <path data-name="Path 47516" d="M261.228 280.5a6.21 6.21 0 0 0 1.726-.391 4.726 4.726 0 0 0 1.714-1.26 4.6 4.6 0 0 0 1.159-2.583c.063-2.18 0-4.927 0-8.077v-7.8a19.668 19.668 0 0 0-.1-2.86 4.549 4.549 0 0 0-4.184-3.579h-55.786a4.448 4.448 0 0 0-3.6 1.852 4.222 4.222 0 0 0-.781 1.9 17.434 17.434 0 0 0 0 2.167v15.059a6.3 6.3 0 0 0 .189 1.966 4.474 4.474 0 0 0 2.407 2.8 4.8 4.8 0 0 0 1.815.4h1.978l27.9.076 18.8.1 5.116.063h1.336a1.7 1.7 0 0 1 .441 0h-1.777l-5.116.063-18.8.113h-29.882a4.927 4.927 0 0 1-2.067-.454 5.041 5.041 0 0 1-2.76-3.175 7.006 7.006 0 0 1-.214-2.142v-15.02c0-.743 0-1.449.063-2.268a5.217 5.217 0 0 1 .895-2.193 5.154 5.154 0 0 1 4.146-2.117h55.824a5.04 5.04 0 0 1 4.6 3.995 19.59 19.59 0 0 1 .088 2.949v7.8c0 3.163 0 5.86-.1 8.115a4.713 4.713 0 0 1-1.26 2.684 4.813 4.813 0 0 1-1.8 1.26 4.5 4.5 0 0 1-1.26.277z" transform="translate(23.419 29.304)" style="fill:#263238"/>
            <path data-name="Path 47517" d="M414.05 126.6a5.784 5.784 0 0 0 1.9-.466 4.713 4.713 0 0 0 2.734-4.486v-14.63c0-.97 0-2.041-.063-3.037a4.5 4.5 0 0 0-4.284-3.906h-65.674a4.461 4.461 0 0 0-3.856 2.243 4.6 4.6 0 0 0-.592 2.218v16.9a4.5 4.5 0 0 0 1.689 3.78 4.436 4.436 0 0 0 1.915.882 13.862 13.862 0 0 0 2.193.088h4.436l31.037.076 20.931.1 5.683.063h1.474a2.153 2.153 0 0 1 .5 0 2.52 2.52 0 0 1-.5 0h-7.158l-20.931.113h-35.473a16.075 16.075 0 0 1-2.306-.088 5.129 5.129 0 0 1-4.133-5.318v-16.546a5.04 5.04 0 0 1 5.04-5.116h65.7a5.04 5.04 0 0 1 4.7 4.335c.1 1.1 0 2.092 0 3.087v14.63a4.877 4.877 0 0 1-1.033 3.125 4.751 4.751 0 0 1-1.915 1.487 5.042 5.042 0 0 1-1.437.353z" transform="translate(60.573 -10.669)" style="fill:#263238"/>
            <path data-name="Path 47518" d="M392.647 148.038a5.86 5.86 0 0 0 1.9-.466 4.751 4.751 0 0 0 1.8-1.487 4.612 4.612 0 0 0 .932-3c0-2.52 0-5.507-.063-9.01v-8.657a4.587 4.587 0 0 0-1.386-2.684 4.423 4.423 0 0 0-2.9-1.26H327.3a4.436 4.436 0 0 0-4.436 4.461v16.949a4.524 4.524 0 0 0 1.689 3.78 4.423 4.423 0 0 0 1.928.882 13.862 13.862 0 0 0 2.193.076h4.436l31.024.063 20.931.113 5.683.063h-5.683l-20.931.1-31.024.076h-4.436a13.246 13.246 0 0 1-2.319-.088 4.914 4.914 0 0 1-2.18-1 5.141 5.141 0 0 1-1.941-4.31v-16.893a5.04 5.04 0 0 1 5.041-5.116h65.7a5.041 5.041 0 0 1 4.7 4.335c.1 1.109 0 2.092 0 3.1v14.63a4.965 4.965 0 0 1-1.021 3.125 4.9 4.9 0 0 1-1.915 1.474 4.776 4.776 0 0 1-1.449.353z" transform="translate(55.022 -5.165)" style="fill:#263238"/>
            <path data-name="Path 47519" d="M178.053 128.85a6.137 6.137 0 0 0 1.89-.479 4.536 4.536 0 0 0 1.815-1.474 4.7 4.7 0 0 0 .932-3.012c0-2.52 0-5.494-.063-9v-8.657a4.561 4.561 0 0 0-1.386-2.684 4.423 4.423 0 0 0-2.9-1.26h-65.714a4.436 4.436 0 0 0-4.436 4.461v16.936a4.436 4.436 0 0 0 3.617 4.7 12.413 12.413 0 0 0 2.193.088h4.423l31.037.063 20.931.1h7.17a2.669 2.669 0 0 1 .5 0h-7.674l-20.931.1-31.037.076H114a14.59 14.59 0 0 1-2.319-.088 5.041 5.041 0 0 1-2.18-1 5.167 5.167 0 0 1-1.941-4.322V106.513a5.04 5.04 0 0 1 .668-2.52 5.129 5.129 0 0 1 4.423-2.52h65.7a4.889 4.889 0 0 1 3.2 1.374 4.965 4.965 0 0 1 1.5 2.961c.1 1.109 0 2.092 0 3.1v14.617a4.94 4.94 0 0 1-1.021 3.125 4.839 4.839 0 0 1-1.915 1.487 5.192 5.192 0 0 1-1.449.353z" transform="translate(-.819 -10.146)" style="fill:#263238"/>
        </g>
        <g>
            <path data-name="Path 47520" d="M124.994 330.936a16.508 16.508 0 0 1 8.506 9.64 28.983 28.983 0 0 1 1.122 13.055c-.958 8.468-6.149 18.549-11.341 25.316-7.132-6.225-8.392-18.612-8.821-24.169-.769-8.821 3.176-25.2 10.585-23.842" transform="translate(.953 49.52)" style="fill:#055452"/>
            <path data-name="Path 47521" d="M124.683 380.875c-1.764-4.587.643-9.527 3.78-13.269a18.612 18.612 0 0 1 13.156-6.061c2.268-.126 4.788.2 6.3 1.89a5.973 5.973 0 0 1 .895 6 12.173 12.173 0 0 1-3.869 5.041c-5.608 4.662-12.3 7.561-19.507 6.389" transform="translate(3.481 57.497)" style="fill:#055452"/>
            <path data-name="Path 47522" d="M124.37 386.559c0-10.837-8.821-19.973-18.209-24.446-2.382-1.147-5.494-1.89-7.447-.113s-1.525 4.952-.567 7.422c3.995 10.27 15.21 17.276 26.223 17.138" transform="translate(-3.476 57.345)" style="fill:#055452"/>
            <path data-name="Path 47523" d="M125.672 390.273c-.088 0-.932-1.462-2.52-3.78a66.256 66.256 0 0 0-14.6-15.915c-2.193-1.726-3.629-2.7-3.566-2.8a4.876 4.876 0 0 1 1.084.58c.68.391 1.626 1.021 2.76 1.84a55.446 55.446 0 0 1 8.191 7.309 56.144 56.144 0 0 1 6.578 8.821c.731 1.26 1.26 2.205 1.613 2.911a3.956 3.956 0 0 1 .46 1.034z" transform="translate(-1.489 59.125)" style="fill:#263238"/>
            <path data-name="Path 47524" d="M122.717 346.73a12.854 12.854 0 0 1 0 2.167c-.088 1.5-.189 3.491-.328 5.885-.277 4.978-.529 11.858-.58 19.456s0 14.391 0 19.482c0 2.52 0 4.5-.076 5.9a12.892 12.892 0 0 1-.126 2.167 14.87 14.87 0 0 1-.126-2.167c0-1.5-.076-3.491-.126-5.9-.088-5.041-.214-11.87-.164-19.482s.378-14.5.769-19.482c.2-2.52.378-4.5.542-5.885a14.748 14.748 0 0 1 .214-2.142z" transform="translate(2.726 53.649)" style="fill:#263238"/>
            <path data-name="Path 47525" d="M139.478 367.47c0 .113-1.4.668-3.5 1.978a33.058 33.058 0 0 0-3.516 2.52 41.587 41.587 0 0 0-3.78 3.7 39.769 39.769 0 0 0-5.519 7.939c-1.159 2.193-1.676 3.654-1.789 3.617a3.781 3.781 0 0 1 .265-1.071 20.4 20.4 0 0 1 1.109-2.76 34.314 34.314 0 0 1 5.444-8.153 35.811 35.811 0 0 1 3.919-3.78 28.319 28.319 0 0 1 3.654-2.52 15.66 15.66 0 0 1 1.512-.769 9.166 9.166 0 0 1 1.185-.5 4.208 4.208 0 0 1 1.021-.2z" transform="translate(2.775 59.044)" style="fill:#263238"/>
        </g>
        <g>
            <path data-name="Path 47526" d="M586.443 360a17.554 17.554 0 0 0-17.5 17.5v21h34.351v-21.665A16.848 16.848 0 0 0 586.443 360z" transform="translate(119.199 57.102)" style="fill:#455a64"/>
            <path data-name="Path 47527" d="M589.059 360.32c-8.027 1.638-14.139 9.8-14.139 19.658v18.045h28.29v-18.045c0-9.854-6.11-18.02-14.151-19.658z" transform="translate(120.755 57.185)" style="fill:#263238"/>
        </g>
        <g>
            <path data-name="Rectangle 2945" style="fill:#e0e0e0" d="M0 0h152.601v110.211H0z" transform="translate(41.556 257.33)"/>
            <path data-name="Path 47528" d="m80.575 331.1-12.475.227V243.32h12.475z" transform="translate(-11.082 26.75)" style="fill:#263238"/>
            <path data-name="Rectangle 2946" transform="translate(84.337 270.448)" style="fill:#263238" d="M0 0h12.475v87.188H0z"/>
            <path data-name="Rectangle 2947" transform="translate(111.657 270.448)" style="fill:#263238" d="M0 0h12.475v87.188H0z"/>
            <path data-name="Rectangle 2948" transform="translate(138.976 270.448)" style="fill:#263238" d="M0 0h12.475v87.188H0z"/>
            <path data-name="Path 47529" d="m167.308 331.377-12.488-.239V243.13h12.488z" transform="translate(11.476 26.7)" style="fill:#263238"/>
            <path data-name="Path 47530" d="M65.856 240.9a4.121 4.121 0 1 1-1.2-2.922 4.133 4.133 0 0 1 1.2 2.922z" transform="translate(-13.816 25.046)" style="fill:#e0e0e0"/>
            <path data-name="Path 47531" d="M65.956 240.978c-.076 0-.1-.378-.3-.97a4.045 4.045 0 0 0-1.525-2.054 3.78 3.78 0 0 0-3.554-.454 3.7 3.7 0 0 0 0 6.943 3.78 3.78 0 0 0 3.554-.454 4.045 4.045 0 0 0 1.525-2.054c.2-.592.227-.97.3-.958s.151.365 0 1.046a4.083 4.083 0 0 1-1.474 2.52 4.4 4.4 0 0 1-4.247.743 4.536 4.536 0 0 1 0-8.556 4.4 4.4 0 0 1 4.247.743A4.083 4.083 0 0 1 65.956 240c.151.6.05.978 0 .978z" transform="translate(-13.916 24.971)" style="fill:#263238"/>
            <path data-name="Path 47532" d="M63.771 238.2c.164.2-.743 1.26-1.9 2.394s-2.18 2.067-2.382 1.9.529-1.348 1.726-2.52 2.392-2.015 2.556-1.774z" transform="translate(-13.331 25.407)" style="fill:#263238"/>
            <path data-name="Path 47533" d="M64.255 241.9c-.113.227-1.437-.239-2.86-1.172s-2.394-1.941-2.23-2.142 1.336.466 2.734 1.374 2.482 1.677 2.356 1.94z" transform="translate(-13.412 25.509)" style="fill:#263238"/>
            <path data-name="Path 47534" d="M177.376 315.221a4.133 4.133 0 1 1-4.121-4.121 4.133 4.133 0 0 1 4.121 4.121z" transform="translate(15.193 44.381)" style="fill:#e0e0e0"/>
            <path data-name="Path 47535" d="M177.476 315.3c-.076 0-.1-.365-.3-.958a3.994 3.994 0 0 0-1.525-2.054 3.729 3.729 0 1 0 0 6.036 4.1 4.1 0 0 0 1.525-2.054c.2-.6.227-.97.3-.97s.151.365 0 1.059a4.121 4.121 0 0 1-1.474 2.52 4.436 4.436 0 0 1-4.247.743 4.536 4.536 0 0 1 0-8.556 4.436 4.436 0 0 1 4.247.731 4.146 4.146 0 0 1 1.474 2.52c.151.613.05.983 0 .983z" transform="translate(15.094 44.306)" style="fill:#263238"/>
            <path data-name="Path 47536" d="M175.291 312.516c.164.2-.743 1.26-1.9 2.394s-2.18 2.079-2.382 1.915.529-1.361 1.726-2.52 2.393-1.978 2.556-1.789z" transform="translate(15.678 44.742)" style="fill:#263238"/>
            <path data-name="Path 47537" d="M175.775 316.234c-.113.227-1.437-.239-2.86-1.172s-2.394-1.953-2.23-2.155 1.336.479 2.734 1.374 2.481 1.726 2.356 1.953z" transform="translate(15.598 44.842)" style="fill:#263238"/>
            <path data-name="Path 47538" d="M177.376 240.193a4.108 4.108 0 1 1-1.2-2.926 4.133 4.133 0 0 1 1.2 2.926z" transform="translate(15.193 24.861)" style="fill:#e0e0e0"/>
            <path data-name="Path 47539" d="M177.476 240.27c-.076 0-.1-.365-.3-.97a4.1 4.1 0 0 0-1.525-2.054 3.78 3.78 0 0 0-3.554-.454 3.7 3.7 0 0 0 0 6.943 3.78 3.78 0 0 0 3.554-.454 4.045 4.045 0 0 0 1.525-2.054c.2-.592.227-.958.3-.958s.151.365 0 1.046a4.146 4.146 0 0 1-1.474 2.52 4.436 4.436 0 0 1-4.247.731 4.536 4.536 0 0 1 0-8.556 4.436 4.436 0 0 1 4.247.743 4.083 4.083 0 0 1 1.474 2.52 1.393 1.393 0 0 1 0 .997z" transform="translate(15.094 24.785)" style="fill:#263238"/>
            <path data-name="Path 47540" d="M175.291 237.486c.164.2-.743 1.26-1.9 2.394s-2.18 2.079-2.382 1.9.529-1.348 1.726-2.52 2.393-1.96 2.556-1.774z" transform="translate(15.678 25.225)" style="fill:#263238"/>
            <path data-name="Path 47541" d="M175.775 241.192c-.113.227-1.437-.239-2.86-1.172s-2.394-1.941-2.23-2.142 1.336.466 2.734 1.374 2.481 1.713 2.356 1.94z" transform="translate(15.598 25.325)" style="fill:#263238"/>
            <path data-name="Path 47542" d="M67.186 315.853a4.121 4.121 0 1 1-1.207-2.926 4.133 4.133 0 0 1 1.207 2.926z" transform="translate(-13.47 44.542)" style="fill:#e0e0e0"/>
            <path data-name="Path 47543" d="M67.291 315.924c-.076 0-.113-.365-.315-.97a4.1 4.1 0 0 0-1.55-2.029 3.781 3.781 0 0 0-3.554-.454 3.717 3.717 0 0 0 0 6.956 3.78 3.78 0 0 0 3.554-.454 4.07 4.07 0 0 0 1.525-2.067c.2-.592.239-.958.315-.958s.151.365 0 1.046a4.146 4.146 0 0 1-1.474 2.52 4.436 4.436 0 0 1-4.247.731 4.536 4.536 0 0 1 0-8.556 4.474 4.474 0 0 1 4.247.743 4.121 4.121 0 0 1 1.474 2.52c.176.631.076.972.025.972z" transform="translate(-13.575 44.472)" style="fill:#263238"/>
            <path data-name="Path 47544" d="M65.088 313.166c.164.2-.731 1.26-1.9 2.394s-2.18 2.079-2.369 1.915.517-1.361 1.714-2.52 2.391-1.99 2.555-1.789z" transform="translate(-12.985 44.911)" style="fill:#263238"/>
            <path data-name="Path 47545" d="M65.575 316.884c-.113.214-1.437-.239-2.86-1.172s-2.394-1.953-2.23-2.155 1.348.466 2.734 1.374 2.481 1.714 2.356 1.953z" transform="translate(-13.068 45.011)" style="fill:#263238"/>
            <path data-name="Path 47546" d="M193.013 243.416c0 .252-28.365.454-63.347.454s-63.347-.2-63.347-.454 28.353-.466 63.347-.466 63.347.202 63.347.466z" transform="translate(-11.545 26.654)" style="fill:#263238"/>
            <path data-name="Path 47547" d="M193.013 313.256c0 .265-28.365.466-63.347.466s-63.347-.2-63.347-.466 28.353-.466 63.347-.466 63.347.265 63.347.466z" transform="translate(-11.545 44.821)" style="fill:#263238"/>
        </g>
        <g transform="translate(113.109 84.42)">
            <ellipse data-name="Ellipse 232" cx="216.048" cy="26.211" rx="216.048" ry="26.211" transform="translate(77.898 388.681)" style="fill:#263238"/>
            <path data-name="Path 47548" d="M424.826 349.72c.832 1.386 58.508 74.927 58.508 74.927l75.608 45.365-17.176 18.07s-82.072-20.452-90.981-30.344-43.865-49.309-43.865-49.309z" transform="translate(-36.055 -29.993)" style="fill:#ffbf9d"/>
            <path data-name="Path 47549" d="M451.65 427.9a3.027 3.027 0 0 1 .214-.945 14.754 14.754 0 0 1 .983-2.432 22.43 22.43 0 0 1 12.765-11.2 15.465 15.465 0 0 1 2.52-.655c.617-.1.958-.139.958-.088s-1.26.378-3.339 1.185a24.914 24.914 0 0 0-7.208 4.4 25.429 25.429 0 0 0-5.318 6.578c-1.025 1.895-1.462 3.192-1.575 3.157z" transform="translate(-24.42 -13.648)" style="fill:#ff9a6c"/>
            <path data-name="Path 47550" d="m556.76 453.115 21.624 13.345a7.246 7.246 0 0 1 2.52 2.52l8.1 13.609a4.07 4.07 0 0 1-5.041 5.734l-.164-.063s-5.847 1.865-9.186-.529-10.157-13.055-10.157-13.055l-6.011-.806 7.094 13.95s-5.557 1.915-9.2-1.26-9.388-12.059-9.388-12.059l-10.081-2.7s-5.2 2.961-13.95 1.033c0 0 .176 11.694-7.813 15.222-3.667 1.6-3.4-4.146-3.4-4.146l1.059-8.922c-.076-.769-1.046-3.125-.857-3.869l4.209-16.709 11.282-10.67z" transform="translate(-8.797 -5.536)" style="fill:#ffbf9d"/>
            <path data-name="Path 47551" d="M550.068 468.052a10.948 10.948 0 0 1 1.437.832l3.932 2.52c1.714 2.319 3.982 5.381 6.742 8.821.693.87 1.411 1.764 2.18 2.671A7.3 7.3 0 0 0 567 485.19a7.863 7.863 0 0 0 3.667.4 15.918 15.918 0 0 0 3.843-.844l-.176.454c-.68-1.26-1.411-2.659-2.155-4.045l-7.342-13.855.113.113-13.105-8.166-3.7-2.369a9.17 9.17 0 0 1-1.26-.895 10.458 10.458 0 0 1 1.374.731l3.78 2.23 13.231 7.964h.076v.076c2.23 4.171 4.751 8.821 7.4 13.861l2.155 4.045.176.328-.353.126a16.911 16.911 0 0 1-4.02.882 8.292 8.292 0 0 1-3.957-.479 5.892 5.892 0 0 1-.882-.466 7.372 7.372 0 0 1-.743-.643c-.441-.454-.832-.907-1.26-1.374-.769-.92-1.487-1.827-2.18-2.709a225.064 225.064 0 0 1-6.6-9l-3.78-2.621a9.409 9.409 0 0 1-1.222-.882z" transform="translate(.352 -2.352)" style="fill:#ff9a6c"/>
            <path data-name="Path 47552" d="M530.1 467.421a3.694 3.694 0 0 1 .87.151l2.432.592 8.821 2.293h.088v.088a70.329 70.329 0 0 0 5.834 8.418 20.664 20.664 0 0 0 4.209 4.037 9.527 9.527 0 0 0 5.834 1.4 6.3 6.3 0 0 0 2.306-.693l-.113.416c-3.617-6.994-6.88-13.345-9.438-18.284l.076.088-6.893-5.393-1.739-1.411a3.78 3.78 0 0 1-.617-.567 4.811 4.811 0 0 1 .706.454l1.941 1.4 7.006 5.217c2.52 4.927 5.91 11.24 9.577 18.209l.151.277-.265.151a6.64 6.64 0 0 1-2.583.807 10.081 10.081 0 0 1-6.3-1.512 20.475 20.475 0 0 1-4.335-4.184 67.209 67.209 0 0 1-5.8-8.556l.151.113-8.819-2.532-2.394-.718a5.046 5.046 0 0 1-.706-.265z" transform="translate(-4.013 -1.683)" style="fill:#ff9a6c"/>
            <path data-name="Path 47553" d="M512.75 482.993c0-.076.378.076 1.033.076a4.019 4.019 0 0 0 2.52-.932 13.026 13.026 0 0 0 2.709-3.15 22.036 22.036 0 0 0 1.26-2.13 12 12 0 0 0 1-2.432 36.084 36.084 0 0 0 1.26-7.561v-.139h.1c1.437-.97 2.621-1.764 3.465-2.293a6.7 6.7 0 0 1 1.361-.781 11.24 11.24 0 0 1-1.185 1.033c-.794.617-1.941 1.462-3.339 2.52l.113-.214a31.366 31.366 0 0 1-1.172 7.687 11.531 11.531 0 0 1-1.071 2.52q-.668 1.147-1.361 2.155a12.059 12.059 0 0 1-2.949 3.175 4.019 4.019 0 0 1-2.823.819 2.71 2.71 0 0 1-.781-.189c-.064-.164-.152-.164-.14-.164z" transform="translate(-8.526 -.357)" style="fill:#ff9a6c"/>
            <path data-name="Path 47554" d="M517.675 451.938a47.422 47.422 0 0 0-2.949 5.04 46.794 46.794 0 0 0-1.663 5.633 13.219 13.219 0 0 1 4.612-10.711z" transform="translate(-8.449 -3.413)" style="fill:#ff9a6c"/>
            <path data-name="Path 47555" d="M292.333 349.72c-.819 1.386-58.5 74.927-58.5 74.927l-75.603 45.365 17.176 18.07s82.059-20.452 90.981-30.344 43.865-49.309 43.865-49.309z" transform="translate(-100.746 -29.993)" style="fill:#ffbf9d"/>
            <path data-name="Path 47556" d="M237.748 427.9c-.113 0-.554-1.26-1.613-3.163a24.66 24.66 0 0 0-12.513-10.976c-2.029-.807-3.365-1.071-3.352-1.185s.353 0 .97.088a15.47 15.47 0 0 1 2.52.655 22.43 22.43 0 0 1 12.765 11.2 15.975 15.975 0 0 1 1.046 2.457 3.025 3.025 0 0 1 .176.92z" transform="translate(-84.608 -13.654)" style="fill:#ff9a6c"/>
            <path data-name="Path 47557" d="m145.448 452.262-21.624 13.345a7.284 7.284 0 0 0-2.583 2.52l-8.14 13.647a4.07 4.07 0 0 0 5.041 5.734l.164-.076s5.847 1.878 9.186-.517 10.157-13.055 10.157-13.055l6-.807L136.564 487s5.557 1.915 9.2-1.26 9.388-12.059 9.388-12.059l10.081-2.709s5.2 2.961 13.95 1.046c0 0-.176 11.694 7.813 15.21 3.667 1.613 3.4-4.133 3.4-4.133l-1.059-8.934c0-.769 1.046-3.113.857-3.869l-4.209-16.7L174.847 443z" transform="translate(-112.612 -5.728)" style="fill:#ffbf9d"/>
            <path data-name="Path 47558" d="M141.9 467.209a11.9 11.9 0 0 1-1.323.983l-3.78 2.634c-1.663 2.356-3.869 5.456-6.6 9-.693.882-1.411 1.789-2.18 2.709a17.823 17.823 0 0 1-1.26 1.374c-.214.214-.491.428-.743.643a5.905 5.905 0 0 1-.882.466 8.607 8.607 0 0 1-3.957.479 16.913 16.913 0 0 1-4.02-.882l-.353-.126.176-.34 2.155-4.032c2.646-4.965 5.167-9.665 7.4-13.861v-.076h.076l13.231-7.977 3.78-2.218a8.825 8.825 0 0 1 1.374-.731 9.166 9.166 0 0 1-1.26.895l-3.7 2.357-13.105 8.178.113-.113-7.347 13.861c-.743 1.386-1.474 2.747-2.155 4.045l-.176-.466a15.95 15.95 0 0 0 3.78.857 7.726 7.726 0 0 0 3.667-.416 7.259 7.259 0 0 0 2.646-2.281c.769-.907 1.487-1.8 2.18-2.671 2.76-3.491 5.041-6.565 6.742-8.821l3.932-2.52a11.6 11.6 0 0 1 1.6-.945z" transform="translate(-111.523 -2.542)" style="fill:#ff9a6c"/>
            <path data-name="Path 47559" d="M162.436 466.583a4.221 4.221 0 0 1-.832.3l-2.394.718-8.821 2.52.151-.113a66.093 66.093 0 0 1-5.809 8.556 20.716 20.716 0 0 1-4.322 4.184 10.081 10.081 0 0 1-6.3 1.5 6.615 6.615 0 0 1-2.583-.794l-.265-.151.151-.277 9.577-18.209 7.006-5.229 1.941-1.386a4.814 4.814 0 0 1 .706-.454 3.783 3.783 0 0 1-.617.567l-1.852 1.5-6.893 5.393.076-.088c-2.52 4.94-5.822 11.341-9.438 18.284l-.113-.428a6.3 6.3 0 0 0 2.306.706 9.527 9.527 0 0 0 5.834-1.4 20.668 20.668 0 0 0 4.209-4.032 70.34 70.34 0 0 0 5.834-8.418l.063-.088h.088l8.821-2.293 2.432-.592a4.361 4.361 0 0 1 1.046-.277z" transform="translate(-107.761 -1.891)" style="fill:#ff9a6c"/>
            <path data-name="Path 47560" d="M176.438 482.148a.918.918 0 0 1-.239.126 2.305 2.305 0 0 1-.781.2 4.02 4.02 0 0 1-2.823-.819 12.261 12.261 0 0 1-2.949-3.176 31.54 31.54 0 0 1-1.361-2.155 11.8 11.8 0 0 1-1.071-2.52 31.5 31.5 0 0 1-1.172-7.687l.113.2c-1.4-1.021-2.52-1.865-3.339-2.52s-1.26-.97-1.185-1.021a6.954 6.954 0 0 1 1.361.769c.844.542 2.029 1.323 3.465 2.293l.1.076v.139a36.074 36.074 0 0 0 1.26 7.561 12.3 12.3 0 0 0 1 2.432c.428.743.869 1.462 1.26 2.13a13.244 13.244 0 0 0 2.722 3.138 4.121 4.121 0 0 0 2.52.945c.741-.035 1.094-.186 1.119-.111z" transform="translate(-99.863 -.583)" style="fill:#ff9a6c"/>
            <path data-name="Path 47561" d="M169.41 451.11a13.181 13.181 0 0 1 4.612 10.711 46.8 46.8 0 0 0-1.663-5.633 45.921 45.921 0 0 0-2.949-5.078z" transform="translate(-97.837 -3.619)" style="fill:#ff9a6c"/>
            <path data-name="Path 47562" d="M394.708 210.8a11.82 11.82 0 0 0-11.341-19.381 14.139 14.139 0 0 0-21.888-10.484 15.878 15.878 0 0 0-19.57.592 11.341 11.341 0 0 0-9 19.671l58.067 31.906a11.341 11.341 0 0 0 3.692-22.3z" transform="translate(-56.279 -74.7)" style="fill:#263238"/>
            <path data-name="Path 47563" d="m345.3 189.829 2.52-.126a48.2 48.2 0 0 1 50.191 41.887c3.024 23.161 6.074 48.792 6.54 61.28.97 25.858-24.673 31.15-24.673 31.15l3.78 30.936-62.8 1.172-11.139-112.3C306 217.123 318.5 192.727 345.3 189.829z" transform="translate(-61.508 -71.633)" style="fill:#ffbf9d"/>
            <path data-name="Path 47564" d="M372.5 297.936a62.779 62.779 0 0 1-34.351-8.216s8.884 18.2 34.553 14.592z" transform="translate(-53.944 -45.6)" style="fill:#ff9a6c"/>
            <path data-name="Path 47565" d="M375.935 243.3a3.692 3.692 0 0 1-3.365 3.894 3.528 3.528 0 0 1-3.969-3.138 3.692 3.692 0 0 1 3.365-3.906 3.541 3.541 0 0 1 3.969 3.15z" transform="translate(-46.025 -58.503)" style="fill:#263238"/>
            <path data-name="Path 47566" d="M378.733 233.919c-.441.5-3.339-1.424-7.309-1.26s-6.779 2.344-7.233 1.878c-.214-.2.2-1.1 1.424-2.092a10.244 10.244 0 0 1 5.759-2.092 9.829 9.829 0 0 1 5.847 1.575c1.272.907 1.726 1.764 1.512 1.991z" transform="translate(-47.184 -61.046)" style="fill:#263238"/>
            <path data-name="Path 47567" d="M349.248 245.4a3.7 3.7 0 0 1-3.377 3.906 3.553 3.553 0 0 1-3.969-3.138 3.7 3.7 0 0 1 3.377-3.906 3.528 3.528 0 0 1 3.969 3.138z" transform="translate(-52.97 -57.952)" style="fill:#263238"/>
            <path data-name="Path 47568" d="M347.794 236.039c-.441.5-3.339-1.424-7.309-1.26s-6.779 2.331-7.233 1.865c-.227-.2.2-1.1 1.424-2.079a10.081 10.081 0 0 1 5.759-2.092 9.652 9.652 0 0 1 5.847 1.575c1.26.92 1.789 1.764 1.512 1.991z" transform="translate(-55.233 -60.496)" style="fill:#263238"/>
            <path data-name="Path 47569" d="M358.091 264.908c0-.227 2.419-.769 6.389-1.487 1.008-.151 1.966-.4 2.1-1.1a5.167 5.167 0 0 0-.832-2.974c-1.071-2.407-2.205-4.927-3.377-7.561-4.713-10.787-8.178-19.671-7.737-19.86s4.6 8.405 9.312 19.192a976.786 976.786 0 0 0 3.264 7.561 5.96 5.96 0 0 1 .718 3.957 2.52 2.52 0 0 1-1.588 1.563 7.562 7.562 0 0 1-1.714.328c-4.015.473-6.51.608-6.535.381z" transform="translate(-49.665 -60.634)" style="fill:#263238"/>
            <path data-name="Path 47570" d="M350.272 223.846c-.479 1.033-3.932.1-8.128.176s-7.687.945-8.128-.088c-.189-.479.517-1.424 1.978-2.306a12.676 12.676 0 0 1 6.225-1.638 12.236 12.236 0 0 1 6.162 1.563c1.437.869 2.092 1.802 1.891 2.293z" transform="translate(-55.027 -63.739)" style="fill:#263238"/>
            <path data-name="Path 47571" d="M378.57 220.963c-.781.945-4.108.164-8.052.315s-7.246.97-8.065 0c-.353-.441.126-1.361 1.537-2.293a12.854 12.854 0 0 1 6.477-1.8 12.6 12.6 0 0 1 6.515 1.5c1.437.915 1.941 1.824 1.588 2.278z" transform="translate(-47.651 -64.472)" style="fill:#263238"/>
            <path data-name="Path 47572" d="M396.228 220.541s-7.624-15.84-15.613-19.229c-9.665-4.1-13.219 6.477-22.342 4.4s-18.36-6-27.219 1.411c-9.69 8.115-4.713 13.231-4.763 24.724-.214 46.625-8.04 60.158-11.543 38.4-.391-2.394-7.132-3.969-8.632-14.05-1.928-13.08-3.226-28.983-.756-38.472 2.079-7.989 6.3-13.635 14.038-20.023 12.211-10.081 29.626-11.152 41.521-10.547s35.372 13.073 35.309 33.386z" transform="translate(-62.826 -72.317)" style="fill:#263238"/>
            <path data-name="Path 47573" d="M317.362 253.758a7.032 7.032 0 0 0-7.914-6.376c-4.788.693-10.018 3.7-9.211 13.635 1.449 17.642 18.9 12.6 18.839 12.047s-1.046-11.921-1.714-19.306z" transform="translate(-63.828 -56.629)" style="fill:#ffbf9d"/>
            <path data-name="Path 47574" d="M313.444 265.55c-.088 0-.29.252-.794.529a3.075 3.075 0 0 1-2.293.227c-1.915-.529-3.78-3.352-4.07-6.527a10.183 10.183 0 0 1 .5-4.473 3.541 3.541 0 0 1 2.117-2.52 1.563 1.563 0 0 1 1.878.693c.277.479.189.844.29.857s.353-.328.151-1.033a1.991 1.991 0 0 0-.781-1.058 2.356 2.356 0 0 0-1.739-.3 4.335 4.335 0 0 0-2.987 3 10.484 10.484 0 0 0-.655 5.04c.4 3.541 2.52 6.716 5.1 7.246a3.365 3.365 0 0 0 2.772-.693c.511-.559.574-.95.511-.988z" transform="translate(-62.569 -55.441)" style="fill:#ff9a6c"/>
            <path data-name="Path 47575" d="M303.13 226.143c14.668-7.044 27.294-10.787 43.449-14.844s37-7.359 46.94-6.049a36.732 36.732 0 0 1 4.461 13.143s-67.656 5.041-93.879 21.989z" transform="translate(-63.054 -67.649)" style="fill:#455a64"/>
            <path data-name="Path 47576" d="M313.348 230.577s0 4.461 6.049 6.742a6.439 6.439 0 0 0 8.09-2.621c.617-1.084 3.175-4.347 3.175-4.347s3.957.781 5.444.869c5.167.29 10.875-6.754 10.837-11.266 1.4 1.89 3.969 1.689 6.225.97a8.657 8.657 0 0 0 4.259-3.566c3.428-4.6 2.23-8.493 2.23-8.493a18.423 18.423 0 0 0 7.246-2.331c1.714-1.512 4.889-5.444 5.129-7.762s-1.084 5.04.819 3.692 4.158-.693 6.3-.491 4.889-.428 5.33-2.52a4.221 4.221 0 0 0-.945-3.163 11.48 11.48 0 0 0-13.723-3.654 15.525 15.525 0 0 0-28.643-1.588 15.752 15.752 0 0 0-24.862 6.981 11.417 11.417 0 0 0-12.034 17.239c-3.087 1.966-6.641 5.419-5.532 8.909 3.289 10.409 11.127 7.561 14.6 6.427" transform="translate(-64.249 -73.557)" style="fill:#263238"/>
            <path data-name="Path 47577" d="M371 194.54a1.258 1.258 0 0 1 0 .328 8.554 8.554 0 0 1-.076.945 10.876 10.876 0 0 1-1.109 3.465 12.69 12.69 0 0 1-3.7 4.373 11.694 11.694 0 0 1-7.132 2.419l.277-.4a6.427 6.427 0 0 1-.113 4.9 18.172 18.172 0 0 1-2.81 4.486 12.6 12.6 0 0 1-1.878 2.13 6.162 6.162 0 0 1-2.747 1.172 6.464 6.464 0 0 1-5.784-1.752l.655-.227a13.282 13.282 0 0 1-5.167 9.451 9.665 9.665 0 0 1-5.708 2.193 17.717 17.717 0 0 1-5.771-.97l.454-.239a13.937 13.937 0 0 1-3.906 5.671 7.46 7.46 0 0 1-6.074 1.978 9.741 9.741 0 0 1-7.863-7.246l.4.164a9.1 9.1 0 0 1-6.023 1.26 9.892 9.892 0 0 1-4.322-1.676 8.355 8.355 0 0 1-2.079-2.067 5.507 5.507 0 0 1-.5-.882 10.925 10.925 0 0 0 2.747 2.7 9.678 9.678 0 0 0 4.209 1.5 8.7 8.7 0 0 0 5.683-1.26l.328-.2.088.365a9.161 9.161 0 0 0 7.435 6.7 6.7 6.7 0 0 0 5.507-1.865 13.143 13.143 0 0 0 3.667-5.368l.126-.328.34.1a16.822 16.822 0 0 0 5.532.92 8.959 8.959 0 0 0 5.267-2.029 12.6 12.6 0 0 0 4.877-8.909l.076-.844.58.63a5.771 5.771 0 0 0 5.116 1.55 5.6 5.6 0 0 0 2.432-1.033 12.35 12.35 0 0 0 1.764-1.991 17.779 17.779 0 0 0 2.747-4.3 5.8 5.8 0 0 0 .176-4.436l-.176-.416h.454a11.467 11.467 0 0 0 6.842-2.218 12.715 12.715 0 0 0 3.692-4.146 14.114 14.114 0 0 0 1.474-4.6z" transform="translate(-63.862 -70.359)" style="fill:#455a64"/>
            <rect data-name="Rectangle 2949" width="25.959" height="18.108" rx="2.24" transform="rotate(-7.56 1172.89 -2207.633)" style="fill:#455a64"/>
            <path data-name="Path 47578" d="M376.489 218.842a1.692 1.692 0 0 0 .781-.3 2.785 2.785 0 0 0 1.437-1.764 3.6 3.6 0 0 0 0-1.676c-.1-.643-.2-1.26-.3-2.067l-.718-5.04c-.126-.945-.265-1.915-.4-2.936l-.227-1.563a2.608 2.608 0 0 0-.529-1.374 2.684 2.684 0 0 0-2.823-.895l-3.6.491-16.067 2.155a2.52 2.52 0 0 0-2.155 2.646q.265 2.079.529 4.083c.34 2.684.68 5.28 1.008 7.75a3.894 3.894 0 0 0 .416 1.651 2.634 2.634 0 0 0 1.26 1.033 2.772 2.772 0 0 0 1.575.151l1.676-.214 6.112-.769 8.821-1.071 2.419-.265a3.563 3.563 0 0 1 .844 0 7.075 7.075 0 0 1-.832.176l-2.394.378-8.821 1.26-6.112.857-1.663.227a3.415 3.415 0 0 1-1.865-.164 3.151 3.151 0 0 1-1.487-1.26 4.575 4.575 0 0 1-.517-1.89q-.491-3.7-1.046-7.737c-.176-1.361-.353-2.734-.542-4.121a3.175 3.175 0 0 1 2.722-3.352l16.009-2.13 3.6-.466a3.78 3.78 0 0 1 1.852.088 3.049 3.049 0 0 1 1.474 1.058 3.15 3.15 0 0 1 .63 1.638l.189 1.563c.139 1.021.252 1.991.378 2.936.227 1.852.428 3.541.617 5.04.088.743.164 1.437.239 2.079a3.78 3.78 0 0 1 0 1.789 2.848 2.848 0 0 1-1.626 1.815 2.118 2.118 0 0 1-.87.189z" transform="translate(-50.535 -68.79)" style="fill:#263238"/>
            <g data-name="Group 11582" style="opacity:.3">
                <path data-name="Path 47579" d="m304.055 134.76 4.584-.607 2.385 17.975-4.583.608a3.239 3.239 0 0 1-3.637-2.783l-1.532-11.543a3.239 3.239 0 0 1 2.783-3.65z"/>
            </g>
            <path data-name="Path 47580" d="M373.454 210.107a6.754 6.754 0 1 1-1.978-4.789 6.767 6.767 0 0 1 1.978 4.789z" transform="translate(-48.281 -68.07)" style="fill:#fff"/>
            <path data-name="Path 47581" d="M373.532 210.162a11.428 11.428 0 0 0-.34-1.626 6.729 6.729 0 0 0-2.52-3.566 6.578 6.578 0 0 0-6.162-.882 6.49 6.49 0 1 0 6.162 11.266 6.729 6.729 0 0 0 2.52-3.566c.29-1.021.277-1.626.34-1.626s0 .151 0 .441a5.34 5.34 0 0 1-.139 1.26 6.78 6.78 0 0 1-2.445 3.881 6.956 6.956 0 0 1-6.641 1.071 6.817 6.817 0 0 1-3.3-2.445 7.044 7.044 0 0 1 0-8.392 6.893 6.893 0 0 1 3.3-2.445 6.994 6.994 0 0 1 6.641 1.071 6.779 6.779 0 0 1 2.445 3.881 5.37 5.37 0 0 1 .139 1.26c.038.266.025.417 0 .417z" transform="translate(-48.359 -68.125)" style="fill:#263238"/>
            <path data-name="Path 47582" d="M359.081 265.857a16.608 16.608 0 0 0-5.04-1.726 5.04 5.04 0 0 0-6.074 6.212 7.561 7.561 0 0 0 4.3 5.948 5.935 5.935 0 0 0 6.931-1.626 7.826 7.826 0 0 0 1.26-4.5c.042-2.229-.71-4.119-1.377-4.308z" transform="translate(-51.436 -52.295)" style="fill:#ff9a6c"/>
            <path data-name="Path 47583" d="M359.91 274.081c.063 0-.2.428-.794 1.021a9.614 9.614 0 0 1-2.923 2.029 4.474 4.474 0 0 1-2.634.252 7.561 7.561 0 0 1-2.684-1.172 6.641 6.641 0 0 1-2.268-2.407 10.575 10.575 0 0 1-.932-3.327 6.3 6.3 0 0 1 2.331-6.2 4.763 4.763 0 0 1 2.961-.693 9.538 9.538 0 0 1 2.457.554 20.425 20.425 0 0 1 3.251 1.26c.706.479.983.857.945.92s-.454-.164-1.185-.466-1.852-.466-3.3-.882a5.444 5.444 0 0 0-4.461.265 5.267 5.267 0 0 0-1.7 5.041 9.982 9.982 0 0 0 .781 2.9 5.507 5.507 0 0 0 1.8 2 4.763 4.763 0 0 0 4.3 1.046 12.967 12.967 0 0 0 2.949-1.55c.653-.414 1.056-.666 1.106-.591z" transform="translate(-51.497 -52.404)" style="fill:#263238"/>
            <g data-name="Group 11583" transform="translate(487.004)" style="opacity:.6">
                <ellipse data-name="Ellipse 233" cx="118.956" cy="123.618" rx="118.956" ry="123.618" transform="rotate(-3.63 237.658 7.531)" style="fill:#055452"/>
            </g>
            <g data-name="Group 11584" style="opacity:.3">
                <path data-name="Path 47584" d="M543.119 230.305c-3.276-51.564 24.371-97.672 66.434-118.855L364.471 227.936c-6.112 2.117-6.553 9.842 1.6 13.13l249.9 95.518c-40.303-17.784-69.777-57.89-72.852-106.279z" transform="translate(-48.283 -91.973)" style="fill:#055452"/>
            </g>
            <path data-name="Path 47585" d="M545.527 135.6c.088.164-34.023 16.608-76.212 36.733s-76.439 36.317-76.515 36.153 34.023-16.608 76.225-36.745 76.389-36.305 76.502-36.141z" transform="translate(-39.728 -85.691)" style="fill:#fff"/>
            <path data-name="Path 47586" d="M708.209 176.2a2.056 2.056 0 0 1 .139.5c.076.378.189.882.328 1.525s.3 1.512.5 2.52.428 2.117.592 3.4a123.019 123.019 0 0 1 1.512 21.977 138.265 138.265 0 0 1-1.122 15.185c-.214 1.348-.428 2.722-.655 4.121l-.34 2.117c-.139.706-.29 1.411-.441 2.13-.29 1.424-.6 2.873-.907 4.347l-1.159 4.41a128.771 128.771 0 0 1-16.23 36.418 131.627 131.627 0 0 1-12.765 16.382 140.692 140.692 0 0 1-14.151 13.143 114.471 114.471 0 0 1-28.2 16.482 82.049 82.049 0 0 1-21.31 5.474l-1.827.227c-.58.063-1.122.063-1.613.088l-2.52.113H606a2.52 2.52 0 0 1 .529-.063l1.55-.126 2.52-.164a7.189 7.189 0 0 0 1.6-.126l1.815-.265a83.62 83.62 0 0 0 21.183-5.633 115.478 115.478 0 0 0 27.95-16.52 139.507 139.507 0 0 0 14.063-13.105 133.57 133.57 0 0 0 12.69-16.267 129.793 129.793 0 0 0 16.23-36.266l1.159-4.385c.315-1.462.617-2.9.932-4.322.139-.718.29-1.424.441-2.117l.34-2.1c.227-1.386.454-2.76.668-4.108a138.1 138.1 0 0 0 1.2-15.121 130.007 130.007 0 0 0-1.26-21.914 43.229 43.229 0 0 0-.529-3.415l-.454-2.52c-.1-.643-.189-1.159-.252-1.537a.956.956 0 0 0-.166-.485z" transform="translate(15.731 -75.13)" style="fill:#fff"/>
            <path data-name="Path 47587" d="M685.354 171.27a80.647 80.647 0 0 0-2.747-8.279 83.608 83.608 0 0 0-4.247-7.561 8.291 8.291 0 0 1 1.714 1.941 28.984 28.984 0 0 1 5.04 11.341 7.73 7.73 0 0 1 .24 2.558z" transform="translate(34.553 -80.533)" style="fill:#fff"/>
            <path data-name="Path 47588" d="M606.085 299.865c-.063.164-27.912-10.182-62.187-23.1S481.874 253.215 482 253s27.912 10.169 62.2 23.1 61.948 23.588 61.885 23.765z" transform="translate(-16.525 -55.153)" style="fill:#fff"/>
            <path data-name="Path 47589" d="M403.123 317.41c-24.22 9.4-12.085 7.435-12.11 48.313 0 42.176 9.653 63.258 9.653 63.258l65.955-33.658-18.9-38.787c-11.221-24.03-16.447-30.192-44.598-39.126z" transform="translate(-40.978 -38.397)" style="fill:#055452"/>
            <path data-name="Path 47590" d="m301.12 321.189 28.5-11.165 52.484-2.974 24.673 9.375-33.805 18.775-29.147-1.071z" transform="translate(-63.576 -41.092)" style="fill:#ffbf9d"/>
            <path data-name="Path 47591" d="m453.093 412.084-9.766-91.989s-25.707-8.821-38.824-13.055c0 0-13.861 14.391-40.047 14-25.669-.378-31.024-6.175-31.024-6.175l-35.876 13.761s-23.136 10.421-29.9 20.452c-9.35 13.773-34.023 48.074-34.023 48.074l46.083 41.584 11.48-13.294 2.268 54.463c47.885 2.18 110.11 3.465 161.157-.2L453.6 442.5z" transform="translate(-81.132 -41.095)" style="fill:#055452"/>
            <g data-name="Group 11585" style="opacity:.3">
                <path data-name="Path 47592" d="m309.648 343.581 1.991 39.114 25.795 11.53 19.074-16.255v-36.191l-46.864 1.8"/>
            </g>
            <g data-name="Group 11586" style="opacity:.3">
                <path data-name="Path 47593" d="M192.444 329.707a64.632 64.632 0 0 0 16.886 46.07c-3.441-15.953-12.262-30.797-16.886-46.07z"/>
            </g>
            <path data-name="Path 47594" d="M411.693 344.83a2.4 2.4 0 0 1 0 .63v1.8c-.076 1.663-.176 3.894-.315 6.6-.29 5.582-.756 13.282-1.348 21.788-1.172 17-2.445 30.835-3.1 30.7a10.677 10.677 0 0 0 .34-2.382c.151-1.55.34-3.78.554-6.578.4-5.671.958-13.32 1.563-21.775s1.134-16.1 1.537-21.775c.214-2.709.391-4.94.517-6.6.063-.706.126-1.26.176-1.789a1.928 1.928 0 0 1 .076-.619z" transform="translate(-36.052 -31.265)" style="fill:#263238"/>
            <path data-name="Path 47595" d="M263.69 354.82a5.693 5.693 0 0 1 .416.895l1.084 2.6c.945 2.319 2.256 5.582 3.869 9.577l12.6 31.717c.454 1.172.907 2.344 1.336 3.428v.063c.529 12.425 1 23.514 1.348 31.591.139 3.957.252 7.158.328 9.451 0 1.071 0 1.915.063 2.52a4.725 4.725 0 0 1 0 .882 3.782 3.782 0 0 1-.1-.882c0-.643-.113-1.487-.176-2.52-.139-2.293-.315-5.494-.542-9.438-.391-8.077-.932-19.167-1.55-31.591v.1c-.428-1.1-.882-2.256-1.348-3.428L268.655 368l-3.68-9.665-.958-2.634a4.234 4.234 0 0 1-.328-.882z" transform="translate(-73.313 -28.666)" style="fill:#263238"/>
            <path data-name="Path 47596" d="m422.979 461.946-24.119.668v-74.965a12.072 12.072 0 0 1 12.059-12.059 12.072 12.072 0 0 1 12.059 12.059z" transform="translate(-38.152 -23.263)" style="fill:#455a64"/>
            <path data-name="Path 47597" d="m320.983 463.258-25.543-.668 1.437-73.541a12.047 12.047 0 0 1 12.059-12.059 12.047 12.047 0 0 1 12.047 12.059z" transform="translate(-65.054 -22.899)" style="fill:#455a64"/>
            <path data-name="Rectangle 2950" transform="translate(250.737 410.343)" style="fill:#455a64" d="M0 0h118.187v17.503H0z"/>
            <path data-name="Path 47598" d="M315.838 459.965c-.176 0-.328-16.23-.328-36.241s.151-36.254.328-36.254.328 16.23.328 36.254-.139 36.241-.328 36.241z" transform="translate(-59.833 -20.173)" style="fill:#263238"/>
            <path data-name="Path 47599" d="M398.948 456.656c-.176 0-.328-14.113-.328-31.5s.151-31.5.328-31.5.328 14.1.328 31.5-.176 31.5-.328 31.5z" transform="translate(-38.214 -18.565)" style="fill:#263238"/>
        </g>
        <g>
            <path data-name="Path 47600" d="m580.445 214.948-9.174-.151-.2 11.82-17.024-.3.2-11.82-32.637-.554.2-11.341 28.353-38.068 18.083.315-25.756 35.557 12.526.214.189-10.5 16.5.29-.189 10.5 9.174.151z" transform="translate(106.887 6.255)" style="fill:#055452"/>
            <path data-name="Path 47601" d="M571.362 196c.353-20.376 12.022-31.906 27.811-31.642s26.967 12.2 26.614 32.574-12.022 31.919-27.723 31.642-27.055-12.195-26.702-32.574zm36.871.63c.227-12.967-3.78-17.881-9.312-17.982s-9.779 4.688-10.005 17.642 3.78 17.894 9.4 17.982 9.69-4.675 9.917-17.6z" transform="translate(119.827 6.21)" style="fill:#055452"/>
            <path data-name="Path 47602" d="m677.385 216.618-9.174-.151-.2 11.807-17.024-.29.2-11.82-32.637-.554.2-11.341L647.1 166.2l18.083.3-25.753 35.614 12.526.214.189-10.5 16.5.29-.189 10.5 9.174.151z" transform="translate(132.104 6.689)" style="fill:#055452"/>
            <path data-name="Path 47603" d="m577.488 240.656-.088 4.574-16.81-.277.365-20.943 16.382.277-.076 4.574-10.56-.176v3.528l9.3.164-.076 4.423-9.3-.164v3.78z" transform="translate(117.027 21.727)" style="fill:#055452"/>
            <path data-name="Path 47604" d="M585.749 239.812h-3.226l-.1 5.532-5.923-.1.353-20.943 9.577.164c5.708.1 9.249 3.125 9.174 7.914a6.943 6.943 0 0 1-4.221 6.54l4.41 6.653-6.3-.1zm.239-10.711H582.7l-.1 6.124h3.289c2.457 0 3.692-1.071 3.78-2.986s-1.2-3.087-3.717-3.138z" transform="translate(121.165 21.802)" style="fill:#055452"/>
            <path data-name="Path 47605" d="M603.319 240.107h-3.239l-.088 5.557-5.923-.1.353-20.943 9.578.179c5.708.088 9.249 3.113 9.174 7.9a6.931 6.931 0 0 1-4.221 6.54l4.41 6.666-6.3-.113zm.239-10.711h-3.288l-.1 6.137h3.289c2.445 0 3.692-1.071 3.78-2.987s-1.223-3.1-3.68-3.146z" transform="translate(125.736 21.886)" style="fill:#055452"/>
            <path data-name="Path 47606" d="M610.93 235.386c.1-6.3 5.116-10.8 11.82-10.686s11.555 4.8 11.455 11.089-5.129 10.8-11.833 10.686-11.555-4.801-11.442-11.089zm17.289.3a5.62 5.62 0 1 0-1.6 4.2 5.671 5.671 0 0 0 1.6-4.2z" transform="translate(130.121 21.906)" style="fill:#055452"/>
            <path data-name="Path 47607" d="M640.969 240.757h-3.226l-.1 5.557-5.923-.1.365-20.943 9.577.164c5.708.1 9.249 3.125 9.161 7.914a6.956 6.956 0 0 1-4.209 6.54l4.41 6.653-6.3-.1zm.252-10.711h-3.289l-.113 6.124 3.289.063c2.52 0 3.7-1.071 3.78-2.986s-1.222-3.147-3.667-3.201z" transform="translate(135.53 22.055)" style="fill:#055452"/>
            <g data-name="Group 11587" style="opacity:.2">
                <path data-name="Path 47608" d="m687.332 221.203-9.174-.151-.2 11.82-17.024-.3.2-11.82-32.637-.554.2-11.341 28.353-38.068 18.083.315-25.756 35.557 12.526.214.189-10.5 16.5.29-.189 10.5 9.174.151z"/>
                <path data-name="Path 47609" d="M691.189 202.21c.353-20.376 12.022-31.906 27.811-31.642s26.967 12.2 26.614 32.574-12.022 31.919-27.723 31.642-27.055-12.195-26.702-32.574zm36.871.63c.227-12.967-3.78-17.881-9.312-17.982s-9.779 4.688-10.005 17.642 3.78 17.894 9.4 17.982 9.69-4.675 9.917-17.6z"/>
                <path data-name="Path 47610" d="m809.489 223.307-9.174-.151-.2 11.807-17.024-.29.2-11.82-32.637-.554.2-11.341 28.35-38.069 18.083.3-25.753 35.614 12.526.214.189-10.5 16.5.29-.189 10.5 9.174.151z"/>
            </g>
            <g data-name="Group 11588" style="opacity:.2">
                <path data-name="Path 47611" d="m694.515 262.383-.088 4.574-16.81-.277.365-20.943 16.382.277-.076 4.574-10.56-.176v3.528l9.3.164-.076 4.423-9.3-.164v3.78z"/>
                <path data-name="Path 47612" d="M706.915 261.614h-3.226l-.1 5.532-5.923-.1.353-20.943 9.577.164c5.708.1 9.249 3.125 9.174 7.914a6.943 6.943 0 0 1-4.221 6.54l4.41 6.653-6.3-.1zm.239-10.711h-3.288l-.1 6.124h3.289c2.457 0 3.692-1.071 3.78-2.986s-1.2-3.087-3.717-3.138z"/>
                <path data-name="Path 47613" d="M729.055 261.993h-3.239l-.088 5.557-5.923-.1.353-20.943 9.578.179c5.708.088 9.249 3.113 9.174 7.9a6.931 6.931 0 0 1-4.221 6.54l4.41 6.666-6.3-.113zm.239-10.711h-3.288l-.1 6.137h3.289c2.445 0 3.692-1.071 3.78-2.987s-1.223-3.1-3.68-3.146z"/>
                <path data-name="Path 47614" d="M741.051 257.292c.1-6.3 5.116-10.8 11.82-10.686s11.555 4.8 11.455 11.089-5.129 10.8-11.833 10.686-11.555-4.801-11.442-11.089zm17.289.3a5.62 5.62 0 1 0-1.6 4.2 5.671 5.671 0 0 0 1.6-4.2z"/>
                <path data-name="Path 47615" d="M776.499 262.812h-3.226l-.1 5.557-5.923-.1.365-20.943 9.577.164c5.708.1 9.249 3.125 9.161 7.914a6.956 6.956 0 0 1-4.209 6.54l4.41 6.653-6.3-.1zm.252-10.711h-3.289l-.113 6.124 3.289.063c2.52 0 3.7-1.071 3.78-2.986s-1.222-3.147-3.667-3.201z"/>
            </g>
        </g>
    </g>
</svg>
