<svg id="Layer_1" data-name="Layer 1" xmlns="http://www.w3.org/2000/svg" viewBox="0 0 471.23 627.83"><defs><style>.cls-1{fill:#e99d7b;}</style></defs><title>logo Kandaka</title><path class="cls-1" d="M651.84,681.84h-6a15.77,15.77,0,0,1-.31-1.65c0-.87,0-1.76,0-2.64q0-168.22,0-336.46c0-7.28-.16-14.57-.73-21.82a212.51,212.51,0,0,0-8.48-44.67A221.37,221.37,0,0,0,490.17,127.36a216.88,216.88,0,0,0-41.5-8.52,220.54,220.54,0,0,0-30.18-1.21c-93.09,3-169.91,62.9-200,143.73a219.53,219.53,0,0,0-11.67,46.41,239.7,239.7,0,0,0-2.1,33q0,168.47,0,336.94v3.89a17.94,17.94,0,0,1-6,.2c-.09-.58-.21-1.11-.24-1.64,0-.72,0-1.44,0-2.16q0-168.6,0-337.19c0-8.16.26-16.32,1.05-24.44a224.86,224.86,0,0,1,24-81.87,227.58,227.58,0,0,1,145.6-116.19,223.67,223.67,0,0,1,35.17-6,217.59,217.59,0,0,1,31.88-.72c48,2.61,91.1,18.49,128.82,48.27,39.84,31.44,66.3,71.87,79.44,120.94a213.53,213.53,0,0,1,6.11,33.94q1.24,12.43,1.26,24.91V681.84Z" transform="translate(-189.58 -111.28)"/><path class="cls-1" d="M281.09,680.16c.59-.06,1.2-.1,1.85-.12,2.19-.06,5.15,0,8.35,0,1.64,0,3.33.1,5,.22l.3,0v-2.36h-.28a14.76,14.76,0,0,1-4.27-.67,3.74,3.74,0,0,1-2.3-1.89,7.08,7.08,0,0,1-.38-3.83,26.61,26.61,0,0,1,1.78-6.32l2.93-7.83h19.11l5,13.81c1,2.73,1.26,4.57.6,5.34s-2.44,1.28-5.19,1.4h-.28v2.35l.31,0c1.24-.12,2.87-.19,4.83-.22s4.17,0,6.51,0c1.84,0,3.66,0,5.47,0s3.34.1,4.7.22l.3,0v-2.35h-.26a5.52,5.52,0,0,1-2.75-1.15,8.78,8.78,0,0,1-2.6-4.13L309.47,619l-.07-.19h-3.22l-19.45,51.35a16.44,16.44,0,0,1-3.27,5.7,9.09,9.09,0,0,1-1.8,1.39,2.59,2.59,0,0,1-2.33.09A11,11,0,0,1,277,676a12.86,12.86,0,0,1-2.81-3.18l-19.34-28.67,12.47-15.94a18.69,18.69,0,0,1,5.22-4.84,15.56,15.56,0,0,1,5.22-1.89l.24,0v-2.32l-.3,0c-.89.06-2,.12-3.21.17-2.19.1-4.93.11-7.67,0l-3.51-.08c-1.14,0-2.29-.07-3.46-.13h-.29v2.35h.28c2.19.06,3.7.52,4.48,1.37s.87,2,.35,3.63a21.06,21.06,0,0,1-3.71,6.18l-6.92,9a19.52,19.52,0,0,1-4.73,4.12,11.52,11.52,0,0,1-5.31,1.56V628.52a15.15,15.15,0,0,1,.49-4.54,2.83,2.83,0,0,1,1.74-1.86,13.12,13.12,0,0,1,4.1-.63h.27v-2.34h-.29c-1.34.06-3,.12-5.05.17s-4.1.09-6.22.09c-2.34,0-4.55,0-6.55-.09s-3.69-.11-5-.17h-.29v2.34h.27a13.58,13.58,0,0,1,4.14.63,2.75,2.75,0,0,1,1.74,1.85,16.69,16.69,0,0,1,.45,4.55v42.37a16.8,16.8,0,0,1-.45,4.51,2.63,2.63,0,0,1-1.69,1.85,16.52,16.52,0,0,1-4.19.67h-.27v2.35l.3,0c1.3-.12,3-.19,5-.22s4.21,0,6.55,0c2.11,0,4.19,0,6.22,0s3.68.1,5,.22l.3,0v-2.35h-.27a16,16,0,0,1-4.1-.67,2.73,2.73,0,0,1-1.74-1.86,15.21,15.21,0,0,1-.49-4.5V649.8a12.11,12.11,0,0,1,2.4.42,5.45,5.45,0,0,1,2.3,1.55,24.1,24.1,0,0,1,2.64,3.58l12.12,19.23c.54.8,1.1,1.87.64,2.41-.28.35-1.14.79-3.6.93h-.27v2.34h.29c2.32-.12,4.14-.19,5.55-.22s2.71,0,3.71,0c1.62,0,3.48,0,5.6,0,1.66,0,3.16.08,4.48.16ZM295,655l8.84-23.61L312.37,655Z" transform="translate(-189.58 -111.28)"/><path class="cls-1" d="M388.48,619.51c-2.8.11-5.61.11-8.84,0-1.67-.06-3-.11-4-.17l-.3,0v2.34l.27,0a12,12,0,0,1,4.9,1,4.08,4.08,0,0,1,2.07,2.66,22.38,22.38,0,0,1,.53,5.55V663.3l-30.08-44h-.15c-.89.06-1.91.11-3.08.17-2.47.12-5.18.1-7.75,0-1.39-.06-2.53-.11-3.42-.17l-.3,0v2.35h.28a13.46,13.46,0,0,1,4.09.62,2.87,2.87,0,0,1,1.75,1.86,15.69,15.69,0,0,1,.48,4.55v40.48a22.34,22.34,0,0,1-.49,5.3,3.85,3.85,0,0,1-1.78,2.58,10.49,10.49,0,0,1-4.07,1l-.26,0v2.35l.32,0c.9-.11,2-.18,3.39-.21,2.84-.06,5.59-.06,8.81,0,1.6,0,2.95.1,4,.21l.31,0v-2.35l-.27,0a14,14,0,0,1-5-1.08,3.81,3.81,0,0,1-2-2.66,23.87,23.87,0,0,1-.49-5.51V628.8l34.91,51.86.08.13h3.19v-50.2a25,25,0,0,1,.44-5.34,3.84,3.84,0,0,1,1.75-2.58,9.28,9.28,0,0,1,4.14-1l.27,0v-2.34l-.3,0C391,619.4,389.87,619.45,388.48,619.51Z" transform="translate(-189.58 -111.28)"/><path class="cls-1" d="M424.11,619.22c-1.53,0-3.52,0-6.06.09l-6.73.17c-2,.06-4,0-6,0l-5-.21-.29,0v2.35h.27a13.32,13.32,0,0,1,4.14.62,2.75,2.75,0,0,1,1.74,1.85,16.74,16.74,0,0,1,.45,4.55V671a16.8,16.8,0,0,1-.45,4.51,2.63,2.63,0,0,1-1.69,1.85,16.08,16.08,0,0,1-4.19.67H400v2.36l.3,0c1.3-.11,3-.19,4.95-.21s4.11,0,6.22,0c1.23,0,2.59,0,4.09,0s3,.07,4.38.13,2.56.08,3.4.08c6.64,0,12.37-1.3,17-3.87a26.38,26.38,0,0,0,10.77-10.93,34.81,34.81,0,0,0,3.72-16.43c0-9.56-2.57-17-7.62-22.15S434.44,619.22,424.11,619.22Zm20,30.21a56.08,56.08,0,0,1-1.91,15.71,17.8,17.8,0,0,1-6.48,9.7c-3.06,2.2-7.42,3.32-13,3.32-2.47,0-4.1-.46-4.85-1.35s-1.13-2.81-1.13-5.68v-42.7c0-2.87.37-4.78,1.1-5.69s2.33-1.34,4.8-1.34c5.33,0,9.59,1,12.68,3.07a17.21,17.21,0,0,1,6.69,9.23A51,51,0,0,1,444.13,649.43Z" transform="translate(-189.58 -111.28)"/><path class="cls-1" d="M508.81,676.75a8.73,8.73,0,0,1-2.6-4.13L485.82,619l-.07-.2h-3.22l-19.45,51.36a16.38,16.38,0,0,1-3.27,5.69,7.51,7.51,0,0,1-3.38,2.06l-.22.06v2.32l.31,0a23.31,23.31,0,0,1,2.77-.21c2.19-.06,5.15-.06,8.35,0,1.64,0,3.33.1,5,.21l.3,0v-2.35h-.27a15.12,15.12,0,0,1-4.28-.67,3.74,3.74,0,0,1-2.29-1.9,6.94,6.94,0,0,1-.39-3.82,26.67,26.67,0,0,1,1.78-6.33l2.93-7.83h19.11l5,13.82c1.05,2.72,1.26,4.56.6,5.33s-2.44,1.29-5.19,1.4h-.28v2.36l.31,0c1.25-.11,2.87-.19,4.83-.21s4.17,0,6.51,0c1.84,0,3.66,0,5.47,0s3.34.1,4.7.21l.3,0v-2.34l-.26,0A5.43,5.43,0,0,1,508.81,676.75ZM471.33,655l8.84-23.62L488.72,655Z" transform="translate(-189.58 -111.28)"/><path class="cls-1" d="M568.37,680.15c.59-.06,1.2-.1,1.85-.12,2.19-.06,5.14,0,8.35,0,1.64,0,3.33.1,5,.21l.3,0v-2.35h-.28a14.76,14.76,0,0,1-4.27-.67,3.71,3.71,0,0,1-2.29-1.9,6.92,6.92,0,0,1-.39-3.82,26.49,26.49,0,0,1,1.78-6.32l2.93-7.84H600.5l5,13.82c1,2.73,1.26,4.57.6,5.34s-2.44,1.28-5.19,1.4h-.28v2.36l.31,0c1.24-.11,2.87-.18,4.83-.21s4.17,0,6.51,0c1.84,0,3.66,0,5.47,0s3.34.1,4.7.21l.3,0v-2.35h-.26a5.52,5.52,0,0,1-2.75-1.15,8.78,8.78,0,0,1-2.6-4.13L596.75,619l-.07-.19h-3.22L574,670.15a16.44,16.44,0,0,1-3.27,5.7,8.57,8.57,0,0,1-2.42,1.71,1.45,1.45,0,0,1-1.12,0,11.31,11.31,0,0,1-2.92-1.58,12.83,12.83,0,0,1-2.82-3.17l-19.34-28.67,12.48-15.94a18.71,18.71,0,0,1,5.22-4.84,15.56,15.56,0,0,1,5.22-1.89l.24,0v-2.32l-.3,0c-.89.06-2,.12-3.21.17-2.19.1-4.94.11-7.67,0l-3.51-.08c-1.14,0-2.29-.07-3.46-.13h-.29v2.35h.27c2.2.06,3.71.52,4.49,1.36s.87,2,.35,3.64a21.06,21.06,0,0,1-3.71,6.18l-6.92,9a19.71,19.71,0,0,1-4.73,4.12,11.56,11.56,0,0,1-5.31,1.56V628.51a15.57,15.57,0,0,1,.48-4.54,2.87,2.87,0,0,1,1.75-1.86,13,13,0,0,1,4.09-.63h.28v-2.34h-.29c-1.34.06-3,.11-5.06.17s-4.09.09-6.21.09c-2.34,0-4.55,0-6.55-.09s-3.69-.11-5-.17h-.29v2.34h.27a13.58,13.58,0,0,1,4.14.63,2.73,2.73,0,0,1,1.74,1.85,16.69,16.69,0,0,1,.45,4.55v42.37a16.85,16.85,0,0,1-.45,4.51,2.64,2.64,0,0,1-1.7,1.85,16.34,16.34,0,0,1-4.18.67h-.27v2.35l.3,0c1.3-.11,3-.18,5-.21s4.22,0,6.56,0q3.16,0,6.22,0c2,0,3.68.1,5,.21l.31,0v-2.35h-.27a16,16,0,0,1-4.1-.67,2.79,2.79,0,0,1-1.75-1.86,15.63,15.63,0,0,1-.48-4.5V649.79a12.11,12.11,0,0,1,2.4.42,5.42,5.42,0,0,1,2.3,1.55,24.1,24.1,0,0,1,2.64,3.58l12.12,19.23c.54.8,1.09,1.87.64,2.41-.29.35-1.14.79-3.6.93h-.27v2.34l.29,0c2.32-.11,4.14-.18,5.55-.21s2.71,0,3.71,0c1.62,0,3.48,0,5.59,0,1.67,0,3.16.08,4.49.15ZM582.26,655l8.84-23.61L599.65,655Z" transform="translate(-189.58 -111.28)"/><path class="cls-1" d="M206.67,701a14.38,14.38,0,0,1,5.83,1,19.91,19.91,0,0,1,4.06,2.35c.71.51,1.26.58,1.64.18a5.45,5.45,0,0,0,.78-2.82h1.23c-.07,1.28-.12,2.83-.16,4.66s-.05,4.23-.05,7.23h-1.24c-.25-1.48-.48-2.66-.7-3.54a10.51,10.51,0,0,0-.78-2.25,9.34,9.34,0,0,0-1.21-1.86,9.53,9.53,0,0,0-4.19-3.08,15,15,0,0,0-5.32-1,9.12,9.12,0,0,0-4.75,1.26,11.28,11.28,0,0,0-3.66,3.65,18.91,18.91,0,0,0-2.36,5.74,31.2,31.2,0,0,0-.84,7.55,29.13,29.13,0,0,0,.92,7.68,17.51,17.51,0,0,0,2.55,5.61,11.06,11.06,0,0,0,3.87,3.44A10.32,10.32,0,0,0,207.1,738a15.13,15.13,0,0,0,5.05-.93,8.4,8.4,0,0,0,4.14-3,8.88,8.88,0,0,0,1.64-3.26,39.74,39.74,0,0,0,.83-4.91H220c0,3.14,0,5.66.05,7.58s.09,3.52.16,4.83H219a5.68,5.68,0,0,0-.73-2.79c-.34-.38-.9-.33-1.69.15a28.9,28.9,0,0,1-4.22,2.36,14,14,0,0,1-5.72,1,17.55,17.55,0,0,1-9-2.22,15.07,15.07,0,0,1-6-6.41,24.74,24.74,0,0,1,.08-20.22,16.87,16.87,0,0,1,6.05-6.77A16.18,16.18,0,0,1,206.67,701Z" transform="translate(-189.58 -111.28)"/><path class="cls-1" d="M255.16,701a17.54,17.54,0,0,1,8.94,2.22,15.25,15.25,0,0,1,6,6.39,22,22,0,0,1,2.12,10.11A22.33,22.33,0,0,1,270,729.87a16.55,16.55,0,0,1-6,6.78,16.34,16.34,0,0,1-8.87,2.43,17.58,17.58,0,0,1-8.95-2.22,15.07,15.07,0,0,1-6-6.42,24.72,24.72,0,0,1,.08-20.21,16.81,16.81,0,0,1,6-6.78A16.22,16.22,0,0,1,255.16,701Zm-.22.93a8.77,8.77,0,0,0-6.07,2.33,15.16,15.16,0,0,0-4,6.41,28.7,28.7,0,0,0-1.42,9.46A26.36,26.36,0,0,0,245,729.7a14.65,14.65,0,0,0,4.31,6.25,9.24,9.24,0,0,0,6,2.2,8.77,8.77,0,0,0,6.07-2.33,15.13,15.13,0,0,0,4-6.44,28.71,28.71,0,0,0,1.43-9.43,26.06,26.06,0,0,0-1.59-9.57,14.82,14.82,0,0,0-4.27-6.23A9.3,9.3,0,0,0,254.94,702Z" transform="translate(-189.58 -111.28)"/><path class="cls-1" d="M300.64,701.68v1a9.46,9.46,0,0,0-2.76.38,2,2,0,0,0-1.27,1.24,9.28,9.28,0,0,0-.32,2.82v25.65a9.23,9.23,0,0,0,.32,2.79,1.85,1.85,0,0,0,1.27,1.22,10.13,10.13,0,0,0,2.76.28h3.93a13.75,13.75,0,0,0,4.11-.51,5.48,5.48,0,0,0,2.53-1.63,7.59,7.59,0,0,0,1.42-3,31,31,0,0,0,.75-4.55h1.24c-.11,1.07-.16,2.48-.16,4.24,0,.66,0,1.6.08,2.82s.15,2.49.29,3.8q-2.74-.1-6.18-.13l-6.13,0h-3l-4,0-4.35.05-4.19.08v-1a11.32,11.32,0,0,0,2.77-.42A1.88,1.88,0,0,0,291,735.6a8.92,8.92,0,0,0,.32-2.79V707.16a9,9,0,0,0-.32-2.82,2,2,0,0,0-1.26-1.24,9.54,9.54,0,0,0-2.77-.38v-1c.75,0,1.74.07,2.95.1s2.53.06,3.93.06,2.5,0,3.73-.06S299.82,701.72,300.64,701.68Z" transform="translate(-189.58 -111.28)"/><path class="cls-1" d="M343.2,701.77v1a9,9,0,0,0-2.76.39,2,2,0,0,0-1.27,1.24,9.16,9.16,0,0,0-.32,2.81V732.9a9.35,9.35,0,0,0,.32,2.8,1.84,1.84,0,0,0,1.27,1.21,10.08,10.08,0,0,0,2.76.28h3.93a13.75,13.75,0,0,0,4.11-.51,5.4,5.4,0,0,0,2.52-1.63,7.49,7.49,0,0,0,1.43-3,31.12,31.12,0,0,0,.75-4.56h1.24c-.11,1.07-.16,2.49-.16,4.24,0,.66,0,1.6.08,2.82s.15,2.49.29,3.8q-2.75-.11-6.18-.13l-6.13,0h-3l-4,0-4.35.06c-1.47,0-2.87,0-4.19.07v-1a11.32,11.32,0,0,0,2.77-.42,1.87,1.87,0,0,0,1.26-1.23,9.35,9.35,0,0,0,.32-2.8V707.25a9.16,9.16,0,0,0-.32-2.81,2,2,0,0,0-1.26-1.24,9.15,9.15,0,0,0-2.77-.39v-1c.75,0,1.74.07,2.95.11s2.53,0,3.93,0,2.5,0,3.73,0S342.38,701.81,343.2,701.77Z" transform="translate(-189.58 -111.28)"/><path class="cls-1" d="M399,701.8c-.15,1.21-.24,2.38-.3,3.52s-.08,2-.08,2.58,0,1.22,0,1.79.08,1,.11,1.42h-1.23a23.82,23.82,0,0,0-.92-4.84,4.17,4.17,0,0,0-2-2.53,9.46,9.46,0,0,0-4.27-.75h-4.46a10.58,10.58,0,0,0-2.77.28,1.85,1.85,0,0,0-1.27,1.19,9.28,9.28,0,0,0-.32,2.82v25.65a9.23,9.23,0,0,0,.32,2.79,1.85,1.85,0,0,0,1.27,1.22,10.16,10.16,0,0,0,2.77.28h3.92a11.68,11.68,0,0,0,5.13-.88,5.14,5.14,0,0,0,2.53-2.87,21.78,21.78,0,0,0,1.15-5.4h1.24a33.35,33.35,0,0,0-.16,3.72c0,.66,0,1.6.08,2.82s.15,2.49.29,3.8c-1.82-.07-3.89-.11-6.18-.13l-6.12,0h-3l-4,0-4.36.05-4.19.08v-1a10.93,10.93,0,0,0,2.77-.41,1.89,1.89,0,0,0,1.26-1.24,8.92,8.92,0,0,0,.32-2.79V707.28a9,9,0,0,0-.32-2.82,2,2,0,0,0-1.26-1.24,9.84,9.84,0,0,0-2.77-.39v-1l4.19.08,4.36,0,4,0h3l5.61,0C395.46,701.91,397.33,701.87,399,701.8Zm-9.25,17.69v1H379.9v-1Zm1.56-6.83c-.14,2-.2,3.46-.19,4.5s0,2,0,2.84,0,1.81.06,2.85.12,2.53.26,4.49h-1.23c-.15-1.1-.32-2.18-.51-3.23a4.87,4.87,0,0,0-1.29-2.58,4.62,4.62,0,0,0-3.36-1v-1a4.51,4.51,0,0,0,2.71-.7,4,4,0,0,0,1.37-1.79,9.1,9.1,0,0,0,.59-2.25c.11-.77.22-1.47.33-2.09Z" transform="translate(-189.58 -111.28)"/><path class="cls-1" d="M434,701.06a14.54,14.54,0,0,1,5.83,1,20.41,20.41,0,0,1,4.06,2.36c.72.51,1.26.57,1.64.18a5.26,5.26,0,0,0,.78-2.82h1.23c-.07,1.28-.12,2.83-.16,4.65s-.05,4.24-.05,7.24h-1.24q-.37-2.22-.69-3.54a11.73,11.73,0,0,0-.78-2.25,10.32,10.32,0,0,0-1.21-1.86,9.56,9.56,0,0,0-4.2-3.08,14.8,14.8,0,0,0-5.32-1,9.12,9.12,0,0,0-4.75,1.26,11.18,11.18,0,0,0-3.66,3.65,18.8,18.8,0,0,0-2.36,5.74,31.22,31.22,0,0,0-.83,7.55,29.21,29.21,0,0,0,.91,7.68,17.51,17.51,0,0,0,2.55,5.61,11.16,11.16,0,0,0,3.87,3.44,10.32,10.32,0,0,0,4.81,1.16,15.13,15.13,0,0,0,5-.93,8.4,8.4,0,0,0,4.14-3,8.73,8.73,0,0,0,1.64-3.26,39.74,39.74,0,0,0,.83-4.91h1.24c0,3.14,0,5.66.05,7.58s.09,3.52.16,4.83h-1.23a5.57,5.57,0,0,0-.73-2.79c-.34-.38-.9-.33-1.69.15a28,28,0,0,1-4.22,2.35,13.83,13.83,0,0,1-5.72,1,17.55,17.55,0,0,1-8.95-2.22,15.13,15.13,0,0,1-6-6.41,24.69,24.69,0,0,1,.09-20.22,16.71,16.71,0,0,1,6-6.77A16.18,16.18,0,0,1,434,701.06Z" transform="translate(-189.58 -111.28)"/><path class="cls-1" d="M492.8,701.67c-.14,1.31-.24,2.58-.29,3.8s-.09,2.17-.09,2.82c0,.83,0,1.6.06,2.33s.07,1.36.1,1.91h-1.23a31,31,0,0,0-1-5.71,5,5,0,0,0-2.26-3,10.33,10.33,0,0,0-5-.93h-2.9v29.43a9.29,9.29,0,0,0,.4,3.1,2.31,2.31,0,0,0,1.59,1.39,14.83,14.83,0,0,0,3.44.47v1c-.93-.07-2.12-.11-3.55-.13l-4.35,0-4.54,0c-1.42,0-2.55.06-3.42.13v-1a14.74,14.74,0,0,0,3.44-.47,2.31,2.31,0,0,0,1.59-1.39,9,9,0,0,0,.4-3.1V702.86h-2.9a10.36,10.36,0,0,0-5,.93,5,5,0,0,0-2.28,3,29.41,29.41,0,0,0-1,5.71h-1.24c.07-.55.11-1.19.13-1.91s0-1.5,0-2.33c0-.65,0-1.59-.08-2.82s-.15-2.49-.3-3.8l4.92.11c1.77,0,3.56.05,5.35.05h9.75c1.78,0,3.56,0,5.35-.05Z" transform="translate(-189.58 -111.28)"/><path class="cls-1" d="M522.2,702v1a9.15,9.15,0,0,0-2.77.39,2,2,0,0,0-1.26,1.24,8.88,8.88,0,0,0-.32,2.82v25.64a9,9,0,0,0,.32,2.8,1.91,1.91,0,0,0,1.26,1.24,11.92,11.92,0,0,0,2.77.41v1c-.83-.07-1.85-.12-3.09-.13s-2.48,0-3.73,0-2.71,0-3.93,0-2.2.06-2.95.13v-1a11.91,11.91,0,0,0,2.76-.41,1.92,1.92,0,0,0,1.27-1.24,9.26,9.26,0,0,0,.32-2.8V707.43a9.19,9.19,0,0,0-.32-2.82,2,2,0,0,0-1.27-1.24,9.13,9.13,0,0,0-2.76-.39v-1l2.95.1c1.22,0,2.53.05,3.93.05s2.49,0,3.73-.05Z" transform="translate(-189.58 -111.28)"/><path class="cls-1" d="M555.19,701a17.54,17.54,0,0,1,8.94,2.22,15.25,15.25,0,0,1,6,6.39,22,22,0,0,1,2.12,10.11,22.33,22.33,0,0,1-2.17,10.13,16.55,16.55,0,0,1-6,6.78,16.34,16.34,0,0,1-8.87,2.43,17.49,17.49,0,0,1-9-2.23,15,15,0,0,1-6-6.41,24.74,24.74,0,0,1,.08-20.22,16.85,16.85,0,0,1,6-6.77A16.22,16.22,0,0,1,555.19,701ZM555,702a8.77,8.77,0,0,0-6.07,2.33,15.16,15.16,0,0,0-4,6.41,28.7,28.7,0,0,0-1.42,9.46,26.26,26.26,0,0,0,1.58,9.54,14.69,14.69,0,0,0,4.31,6.26,9.3,9.3,0,0,0,6,2.2,8.77,8.77,0,0,0,6.07-2.33,15.13,15.13,0,0,0,4-6.44,28.71,28.71,0,0,0,1.43-9.43,26.06,26.06,0,0,0-1.59-9.57,14.76,14.76,0,0,0-4.27-6.23A9.25,9.25,0,0,0,555,702Z" transform="translate(-189.58 -111.28)"/><path class="cls-1" d="M648.18,701.11a11,11,0,0,1,4.09.59,15.43,15.43,0,0,1,2.47,1.32q.64.36,1,.54a1.92,1.92,0,0,0,.78.18.8.8,0,0,0,.78-.56,7.45,7.45,0,0,0,.4-1.71H659c0,.59-.08,1.29-.14,2.09s-.09,1.88-.1,3.21,0,3.08,0,5.25h-1.24a14.41,14.41,0,0,0-1.13-4.76,9,9,0,0,0-2.82-3.72,7.62,7.62,0,0,0-4.86-1.45,6.79,6.79,0,0,0-4.7,1.65,5.56,5.56,0,0,0-1.86,4.35,6.09,6.09,0,0,0,1.24,3.9,12.14,12.14,0,0,0,3.3,2.85c1.38.84,2.88,1.75,4.49,2.71a54.26,54.26,0,0,1,5,3.29,13.84,13.84,0,0,1,3.44,3.59,8.62,8.62,0,0,1,1.26,4.76,9.24,9.24,0,0,1-1.55,5.48,9.47,9.47,0,0,1-4.14,3.25,14.44,14.44,0,0,1-5.7,1.09,13.35,13.35,0,0,1-4.51-.62,19.32,19.32,0,0,1-2.85-1.29,4,4,0,0,0-1.83-.73.81.81,0,0,0-.78.57,7.45,7.45,0,0,0-.4,1.71h-1.24c.07-.73.12-1.58.14-2.56s0-2.27,0-3.85,0-3.59,0-6h1.23a21.05,21.05,0,0,0,1.21,5.79,9.69,9.69,0,0,0,3.07,4.32,8.67,8.67,0,0,0,5.51,1.63,8.28,8.28,0,0,0,3.35-.7,6,6,0,0,0,2.61-2.23,7,7,0,0,0,1-3.95,6.53,6.53,0,0,0-1-3.7,11.65,11.65,0,0,0-2.93-2.94,45.8,45.8,0,0,0-4.4-2.82c-1.69-1-3.26-2-4.73-3a13.2,13.2,0,0,1-3.52-3.6,8.91,8.91,0,0,1-1.32-4.94,8.13,8.13,0,0,1,5.16-8A12.93,12.93,0,0,1,648.18,701.11Z" transform="translate(-189.58 -111.28)"/><path class="cls-1" d="M621.42,701.82v1a7,7,0,0,0-2.77.52,2.41,2.41,0,0,0-1.27,1.5,10.58,10.58,0,0,0-.32,2.94v30.87h-1.23l-22.58-33.55v27.3a9.79,9.79,0,0,0,.35,2.92,2.39,2.39,0,0,0,1.4,1.5,10,10,0,0,0,3.14.54v1c-.64-.07-1.48-.12-2.52-.13l-3,0-2.71,0a22.6,22.6,0,0,0-2.29.13v-1a8,8,0,0,0,2.77-.54,2.34,2.34,0,0,0,1.27-1.5,10.67,10.67,0,0,0,.32-2.92V707.3a9.19,9.19,0,0,0-.32-2.82,2,2,0,0,0-1.27-1.24,9.48,9.48,0,0,0-2.77-.39v-1l2.29.1c.91,0,1.82.05,2.71.05s1.54,0,2.26-.05l1.93-.1,19,28.12V707.81a9.71,9.71,0,0,0-.35-2.94,2.47,2.47,0,0,0-1.4-1.5,8.78,8.78,0,0,0-3.14-.52v-1l2.55.1c1,0,2,.05,2.93.05s1.85,0,2.76-.05Z" transform="translate(-189.58 -111.28)"/><path class="cls-1" d="M401.22,508.23c-.84,1.27-1.7,2.54-2.52,3.82q-4.29,6.65-8.55,13.29c-1.78,2.77-3.51,5.57-5.36,8.29a79.41,79.41,0,0,1-11.67,13.62,103,103,0,0,1-12.63,10.08,105.12,105.12,0,0,1-23.65,12.08,117.12,117.12,0,0,1-14,4A78.55,78.55,0,0,1,301.71,575a58.67,58.67,0,0,1-14.47-2.65,62.38,62.38,0,0,1-11.88-5.1c-1.39-.78-2.7-1.73-4.11-2.63l6.21-9.59c2.47-3.82,4.91-7.66,7.4-11.47,2.32-3.56,4.71-7.07,7-10.63,2.74-4.21,5.43-8.46,8.17-12.68,4-6.17,8-12.33,12-18.51,3.84-5.92,7.65-11.86,11.49-17.78q4.68-7.23,9.43-14.41a1.68,1.68,0,0,0,.07-2.09,19.3,19.3,0,0,1-2.2-14.88,14.48,14.48,0,0,1,7.51-9.65c2.81-1.46,2.82-2,4.81-4.41-1.19-1.2-2.37-2.44-3.6-3.63q-4.91-4.74-9.84-9.43c-4.21-4-8.48-8-12.64-12q-7.22-7-14.3-14.2c-3.88-3.91-7.72-7.85-11.46-11.89s-7.3-7.94-10.71-12.11c-3.79-4.62-7.41-9.39-10.94-14.22-3-4.15-5.68-8.56-8.41-12.92a96.59,96.59,0,0,1-6.79-13.23,102,102,0,0,1-3.91-11.35c-.95-3.2-1.61-6.49-2.3-9.77a33.52,33.52,0,0,1-.55-4.26,55.89,55.89,0,0,1-.33-5.91c.07-3.05.22-6.1.58-9.13a75.84,75.84,0,0,1,1.59-9,66.28,66.28,0,0,1,2.56-7.83,69.29,69.29,0,0,1,3.15-7.23c1.61-3.14,3.31-6.24,5.2-9.21s4.14-5.87,6.24-8.78a6.86,6.86,0,0,1,.83-.76c.93.83,1.89,1.6,2.76,2.47,5.14,5.17,10.25,10.37,15.4,15.53q8.76,8.81,17.57,17.57,16.93,16.94,33.9,33.85l11.22,11.2c3,2.95,5.91,5.92,8.9,8.85,3.83,3.76,7.72,7.47,11.54,11.23,4.12,4.06,8.19,8.15,12.28,12.23,1,1,2,2,3,3.11a25.94,25.94,0,0,1,1.78-2.68,9.86,9.86,0,0,1,2.35-2.17,4.65,4.65,0,0,0,2-2.21c1.19-2.75,2.37-5.49,3.58-8.23s2.48-5.57,3.71-8.36c1.33-3,2.63-6,3.95-9s2.66-6,4-9c.45-1,.82-2.1,1.21-3.12a43.3,43.3,0,0,1-3.8-2.22,7.17,7.17,0,0,1-2.06-8.59c1.66-3.45,3.51-6.81,5.37-10.16a7.11,7.11,0,0,1,7.29-3.07c.46.1.92.15,1.5.24a11.67,11.67,0,0,0,0-1.46q-.79-5.41-1.62-10.82c-.68-4.55-1.39-9.09-2.05-13.65-.32-2.25-.55-4.51-.82-6.76s-.57-4.63-.84-6.94c-.34-2.91-.66-5.82-1-8.73-.34-3.09-.68-6.18-1-9.27-.09-.89-.11-1.79-.12-2.69,0-2.44-.38-4.87,0-7.33a7.84,7.84,0,0,1,3.22-5.75,5.47,5.47,0,0,1,3-.94,39.24,39.24,0,0,1,10,.87,11.73,11.73,0,0,0,5.34-.14,31.76,31.76,0,0,1,9-.66,9.18,9.18,0,0,1,5.23,1.71c2.35,1.72,3,4.21,2,7.22a25.17,25.17,0,0,0-1.42,9.18,22.18,22.18,0,0,0,2,8.32,1.93,1.93,0,0,0,1,.92,19.38,19.38,0,0,1,9.44,8.3,24.6,24.6,0,0,1,3.82,12.37,40.73,40.73,0,0,1-.38,6.44,12.77,12.77,0,0,1-1.42,4.4c-1.11,2-1.17,4.11-1.39,6.23-.38,3.8-.69,7.62-1.08,11.42a1.51,1.51,0,0,0,1,1.83,8.9,8.9,0,0,0,6.68.32,42.63,42.63,0,0,0,4.25-1.93c.36-.17.73-.31,1.35-.58-.13,2.72.62,5.13.21,7.69a28.08,28.08,0,0,1-1.5,6.43,18.36,18.36,0,0,1-3.88,6,19.05,19.05,0,0,1-6.37,4l-.49.24c0,.18-.13.37-.08.52a28.37,28.37,0,0,0,3.77,8.1,4.53,4.53,0,0,1-2,7.1c-2.47.95-2.43,1.1-3,3.69-.3,1.34-.48,2.7-.77,4.05a5.4,5.4,0,0,1-2.8,4.16,6.17,6.17,0,0,1-2.21.6c-1.8.09-3.61,0-5.41,0-.59,0-1.17.07-1.81.11,0,2.36,0,4.56,0,6.76,0,.77.39,1.07,1.12,1.07,1.5,0,3,0,4.51,0l9.74,0a6.7,6.7,0,0,1,5.64,2.65,18,18,0,0,1,1.4,2.59,5,5,0,0,0,2.07-1.55c2.9-2.84,5.77-5.71,8.64-8.59,2.44-2.45,4.84-4.95,7.29-7.4.76-.76,1.65-1.39,2.42-2.14,1.68-1.62,3.32-3.27,5-4.91l39.91-39.81q12.93-12.91,25.86-25.83c3.78-3.79,7.49-7.66,11.27-11.46,2.86-2.87,5.79-5.66,8.67-8.51,1.27-1.26,2.46-2.59,3.71-3.87s1.56-1.16,2.51.18c2.49,3.52,5.1,7,7.39,10.6a81.1,81.1,0,0,1,4.73,8.88,72.84,72.84,0,0,1,4.87,13.86,64.58,64.58,0,0,1,1.86,14.2c.06,2.93-.09,5.85-.2,8.77a40.56,40.56,0,0,1-1,6.55c-.53,2.64-1.17,5.25-1.85,7.85A81.67,81.67,0,0,1,592.58,339c-1.06,2.15-2.07,4.32-3.27,6.38q-2.91,4.95-6.06,9.75c-2.11,3.2-4.27,6.37-6.58,9.42q-4.15,5.52-8.62,10.8c-3.81,4.52-7.67,9-11.7,13.36-4.7,5.05-9.54,10-14.43,14.81-5.54,5.48-11.2,10.84-16.81,16.24-4.06,3.9-8.14,7.76-12.18,11.67-2,1.95-4,4-6.1,6.13,1.42,1.77,2.55,3.74,4.62,5a17.59,17.59,0,0,1,7.34,8.77c2.12,5.49,1.34,10.69-1,15.8a2.45,2.45,0,0,0,.2,2.77c2.93,4.45,5.81,8.93,8.7,13.41,1.89,2.92,3.73,5.87,5.63,8.78,2.81,4.3,5.67,8.57,8.49,12.88,2.07,3.15,4.09,6.34,6.14,9.51,2.34,3.62,4.69,7.24,7,10.86q3.75,5.82,7.47,11.64,5.55,8.6,11.12,17.19c2.21,3.4,4.45,6.79,6.75,10.31a15,15,0,0,1-1.29,1,51.53,51.53,0,0,1-14.65,6.73,99.6,99.6,0,0,1-9.81,2.27,57.14,57.14,0,0,1-7.53.5,65.64,65.64,0,0,1-13.29-.72,81.36,81.36,0,0,1-14.51-3.41c-3.32-1.22-6.7-2.29-10-3.63-2.55-1-5-2.35-7.42-3.62-2.28-1.2-4.55-2.42-6.74-3.77a88.93,88.93,0,0,1-11.69-8.34c-2.22-1.91-4.5-3.78-6.54-5.87a85.27,85.27,0,0,1-11.58-14.37c-3.09-5-6.34-9.87-9.51-14.8-1.76-2.72-3.5-5.45-5.25-8.17-.18-.28-.43-.53-.89-1.08-.9,3.95-.94,7.7-1.34,11.39s-.61,7.51-.8,11.27-.31,7.54-.37,11.31,0,7.52,0,11.45c-1.14,0-2.09.06-3,.11a17.29,17.29,0,0,0-2.16.15c-1.21.21-1.28.29-1.29,1.5,0,1.8.07,3.6,0,5.4-.07,2.81.54,3.8,4.13,4.54,2.29.46,4.59.85,6.86,1.39a20.45,20.45,0,0,1,10.19,6.06,3.72,3.72,0,0,1-1.32,6.06,6.55,6.55,0,0,1-2.29.37q-24.45,0-48.9,0c-.53,0-1.06-.06-1.68-.1-.05-.49-.13-.89-.13-1.29,0-3.9,0-7.8.07-11.69.05-3,.21-6,.32-9,0-.24,0-.48,0-.72,0-1.62,0-1.62-1.58-1.64h-1.84a8.27,8.27,0,0,1-.22-1.14c-.13-4.43-.23-8.86-.38-13.29q-.36-10.41-.76-20.82l-.3-8.43c0-.59-.07-1.17-.1-1.76ZM513,465.34a15.43,15.43,0,0,0,2.06-5.49,18.42,18.42,0,0,0-.18-4.82,12.76,12.76,0,0,0-6.55-8.59,5.66,5.66,0,0,1-1.73-1.27c-2.25-2.72-4.44-5.49-6.63-8.26-2.45-3.1-4.58-6.42-6.81-9.68-3.06-4.44-5.67-9.15-8.39-13.78-1.88-3.2-3.64-6.47-5.43-9.72-1.33-2.41-2.66-4.82-4-7.24q-2.76-5.14-5.48-10.3c-1.68-3.18-3.37-6.35-5-9.54q-2.31-4.47-4.54-9a2,2,0,0,0-2-1.26c-.6,0-1.2,0-1.8,0l-17.48-.32a5.75,5.75,0,0,1-1-.19c-.41-3.09-.58-16.07-.2-17.36h5.36c1.56,0,3.13,0,4.69,0a2.41,2.41,0,0,0,2.56-1.84c.51-2.4,1-4.8,1.45-7.22.32-1.77.35-1.85,2.08-2.11a3.78,3.78,0,0,0,2.49-.93,41.27,41.27,0,0,1-4.41-10,1.23,1.23,0,0,0-1.39-1.05q-6.86,0-13.71,0a1.58,1.58,0,0,0-1.67,1c-1,2.28-2.15,4.53-3.26,6.77-.72,1.44-1.49,2.84-2.29,4.35-1.21-1.44-2.29-2.86-3.52-4.14a3.91,3.91,0,0,0-4-.92,3.45,3.45,0,0,0-2.64,2.65,4.28,4.28,0,0,0,4.85,5.38c1.27-.19,2.51-.52,3.9-.81-.11,1-.24,1.71-.27,2.47q-.24,6-.44,12c-.13,3.59-.25,7.18-.39,10.77a3.23,3.23,0,0,1-.2.68c-2.57.13-5.08.33-7.59.38-7.93.16-15.86.27-23.79.39-1,0-1.93.05-2.89,0a3.55,3.55,0,0,0-3.47,2.34c-.68,1.46-1.28,3-2,4.38-1,1.85-2.07,3.63-3.08,5.46-2,3.61-4,7.24-6,10.87-1.63,3-3.24,6-4.92,9q-4.28,7.59-8.64,15.13c-2.44,4.19-4.95,8.33-7.46,12.47-1,1.64-2.12,3.2-3.1,4.84a97.4,97.4,0,0,1-9,13.17,9.21,9.21,0,0,1-3.5,2.68,10.3,10.3,0,0,0-5,4.68c-1.94,3.48-1.71,7.16-.63,10.8a5.75,5.75,0,0,0,1.75,3.07,25.89,25.89,0,0,0,2-1.91c3.47-4.15,6.65-8.49,8.56-13.62a24.94,24.94,0,0,1,1.84-4.45C353,440.59,356,436,359,431.35c3.28-5.07,6.61-10.11,9.91-15.17q4-6.07,7.88-12.19c3-4.68,6-9.35,9-14,2.23-3.48,4.43-7,6.65-10.46a12.8,12.8,0,0,1,1.93-2.77,5.32,5.32,0,0,1,5.92-.8,9.64,9.64,0,0,1,4.22,3.51,47.41,47.41,0,0,1,4.21,7.07,61.24,61.24,0,0,1,4.16,11.85,25.06,25.06,0,0,1,0,11.2c-.62,2.61-1.28,5.23-2.05,7.8q-1.67,5.5-3.55,10.93c-1.61,4.57-3.35,9.09-5,13.65a24,24,0,0,0-1.18,8.85,50.46,50.46,0,0,0,1.19,8.68c1.19,5.8,2.19,11.65,2.91,17.52a152.87,152.87,0,0,1,1.08,15.57c.17,8.86.08,17.72.75,26.57.27,3.58.28,7.18.38,10.77.14,5.33.26,10.66.4,16,.09,3.3-.51,3.12,3.13,3,7.38-.2,14.76-.48,22.15-.71,2-.06,4.09,0,6.13-.07,1.85,0,1.83,0,1.87-2,.09-4.07.24-8.14.31-12.21a179.94,179.94,0,0,1,1.18-18.26c.35-3,.63-5.94,1-8.91.33-2.67.75-5.33,1.1-8q.85-6.5,1.66-13,.67-5.43,1.31-10.86c.27-2.32.39-4.66.78-7a84.9,84.9,0,0,0,1-15,28.21,28.21,0,0,0-2.85-11.22c-1.28-2.9-2.56-5.8-3.72-8.75-.8-2.06-1.41-4.19-2.08-6.3a53.42,53.42,0,0,1-2.49-12.11,50.86,50.86,0,0,1,3.36-21.83,3,3,0,0,1,1.8-1.85A16.78,16.78,0,0,0,446.7,389a3.12,3.12,0,0,0,1.36-3.59,12.28,12.28,0,0,1-.32-1.58,5.72,5.72,0,0,1,2.49-5.93,15.45,15.45,0,0,1,4.66-1.81,1.24,1.24,0,0,1,1.62.68c1.09,1.71,2.2,3.42,3.29,5.13,3.79,5.95,7.55,11.91,11.37,17.85,2.42,3.78,4.92,7.51,7.37,11.27,1.92,2.95,3.82,5.93,5.73,8.89,1,1.56,2.06,3.1,3.05,4.66,1.78,2.83,3.5,5.7,5.32,8.51,2.2,3.41,4.5,6.76,6.72,10.16a16.13,16.13,0,0,1,1.92,3.43,47.42,47.42,0,0,0,8.11,14.7C510.51,462.72,511.76,464,513,465.34ZM546.13,293.7a8.21,8.21,0,0,0,.5.78A38.72,38.72,0,0,1,553,305.64c2.56,6.74,2.71,13.72,1.47,20.71a48.67,48.67,0,0,1-3.72,12c-1,2.22-2,4.48-3.1,6.65-.87,1.69-1.94,3.28-2.94,4.9-1.8,2.89-3.48,5.87-5.45,8.65A240.25,240.25,0,0,1,524,377.81c-4.18,4.77-8.48,9.43-12.73,14.13-3.5,3.86-7,7.69-10.49,11.58-2.77,3.14-5.44,6.37-8.19,9.53-1,1.18-1.18,1.69-.16,3.34.81,1.33,1.67,2.63,2.39,4a103.89,103.89,0,0,0,8.05,12.29c.63.9.94.92,1.71.17s1.57-1.65,2.39-2.44c3.11-3,6.25-5.93,9.37-8.91,3.37-3.23,6.75-6.46,10.1-9.72,5.36-5.22,10.76-10.41,16-15.74q7-7.11,13.69-14.52c4-4.43,8-8.91,11.71-13.6,4-5.12,7.79-10.47,11.58-15.78a72.56,72.56,0,0,0,4.67-7.24c1.89-3.46,3.61-7,5.25-10.61a80.67,80.67,0,0,0,6.17-19.66,65.45,65.45,0,0,0,.92-16.6,61.41,61.41,0,0,0-2.49-13.56,86.69,86.69,0,0,0-4-10.75c-1.7-3.62-3.84-7-5.89-10.48a47.12,47.12,0,0,0-3-4Zm-278-34.78c-.56.74-1.06,1.33-1.48,2-1.35,2-2.81,4-4,6.17a98.25,98.25,0,0,0-5.16,10.25,67.38,67.38,0,0,0-4,13.41,72.72,72.72,0,0,0-1.16,11.59A65.05,65.05,0,0,0,254,317.1a94.18,94.18,0,0,0,5.63,17.19,112.73,112.73,0,0,0,8.73,16.06c2.43,3.77,5.05,7.41,7.68,11,2,2.71,4,5.37,6.17,7.94,2.71,3.26,5.53,6.43,8.35,9.61s5.7,6.48,8.69,9.59c4.35,4.51,8.79,8.94,13.26,13.34s9.29,9,13.94,13.49L338.45,427c2.5,2.41,5,4.84,7.46,7.25.19-.16.31-.22.36-.32q5.22-8.91,10.43-17.83c.69-1.17.66-1.41-.3-2.55-1.54-1.83-3.08-3.67-4.69-5.44-3.17-3.5-6.41-6.94-9.6-10.44q-4.42-4.85-8.78-9.75Q327.21,381,321.15,374a149.36,149.36,0,0,1-12.06-15.62c-2.78-4.25-5.68-8.45-8.11-12.9a80.68,80.68,0,0,1-5.12-11.66,43.3,43.3,0,0,1-2.68-18.35,45,45,0,0,1,1.62-8.62,34.75,34.75,0,0,1,6.59-12.26c1-1.2.9-1.61-.25-2.72-2.83-2.74-5.67-5.46-8.45-8.24-4-4-8-8.07-11.95-12.09-2.94-3-5.91-5.92-8.87-8.88C270.65,261.43,269.41,260.22,268.09,258.92ZM397.65,461.69c-1.37,1.82-2.6,3.42-3.8,5-2.94,3.93-5.86,7.87-8.8,11.8-3.8,5.08-7.64,10.12-11.42,15.21-2.67,3.6-5.27,7.26-7.93,10.87a53.6,53.6,0,0,1-8.82,9.18,36.59,36.59,0,0,1-3.85,2.94,76.84,76.84,0,0,1-9.86,5.54A53.62,53.62,0,0,1,331.74,526a42.27,42.27,0,0,1-13.23.81c-2.85-.35-5.73-.56-8.44-1.69-1.82-.76-3.69-1.4-5.69-2.16-.39.49-.87,1-1.26,1.6-1.27,2-2.5,3.93-3.77,5.88-1.8,2.75-3.66,5.47-5.45,8.23-2.86,4.41-5.68,8.86-8.54,13.27-2.18,3.37-4.42,6.69-6.6,10a4.32,4.32,0,0,0-.37,1.1,5.42,5.42,0,0,0,.51.42,42.61,42.61,0,0,0,12.49,5,96,96,0,0,0,13.34,1.88c5,.45,10.06-.46,15-1.2a56.54,56.54,0,0,0,11.5-2.91c3.42-1.28,6.88-2.48,10.24-3.91,2.64-1.12,5.19-2.47,7.73-3.82,2.16-1.16,4.31-2.37,6.34-3.72a104,104,0,0,0,11.05-8.32,94.42,94.42,0,0,0,10.5-10.76,101.44,101.44,0,0,0,6.87-9.85c2.58-4,5.26-8,7.83-12,2.93-4.58,5.74-9.25,8.73-13.8a5.53,5.53,0,0,0,.94-3.15,136.65,136.65,0,0,0-.84-16.31c-.25-2.44-.44-4.89-.79-7.31-.5-3.43-1.12-6.85-1.71-10.26A7.7,7.7,0,0,0,397.65,461.69Zm56.4,1.74a9.3,9.3,0,0,0-.3,1.08c-.14,1.37-.23,2.74-.39,4.11-.51,4.69-1,9.39-1.58,14.07-.65,5.1-1.39,10.19-2.14,15.27a2.92,2.92,0,0,0,.45,2.19c1.27,1.89,2.48,3.81,3.69,5.74,2.24,3.53,4.45,7.09,6.7,10.62s4.71,7.21,7,10.86a84,84,0,0,0,10.21,13.17A94,94,0,0,0,491,552.05a88.21,88.21,0,0,0,13.38,8.07c2.48,1.19,5.05,2.21,7.53,3.41a71.88,71.88,0,0,0,10.85,3.79,64.94,64.94,0,0,0,11.63,2.33c2.68.29,5.36.59,8,.74a66.41,66.41,0,0,0,24.77-4.62c1.75-.73,3.4-1.7,5.25-2.64-.41-.72-.68-1.3-1-1.84-.69-1-1.44-2-2.12-3.11q-4.41-6.78-8.78-13.58l-10-15.54c-1.14-1.76-2.28-3.51-3.39-5.29a1.23,1.23,0,0,0-1.81-.55c-.59.29-1.18.59-1.78.85a37.46,37.46,0,0,1-10.78,2.72,23.54,23.54,0,0,1-4.65.29c-4.29-.44-8.63-.51-12.76-2-2.53-.92-5.16-1.6-7.63-2.67A60.53,60.53,0,0,1,493.94,514a56.74,56.74,0,0,1-9.26-9.71c-1.83-2.36-3.46-4.87-5.23-7.28-2.41-3.27-4.88-6.51-7.31-9.77-2.78-3.74-5.53-7.51-8.32-11.24s-5.76-7.64-8.66-11.45A11.54,11.54,0,0,0,454.05,463.43Zm88.86,55.36a15.5,15.5,0,0,0-.73-1.41c-1.61-2.46-3.26-4.88-4.84-7.34-2.42-3.78-4.77-7.61-7.2-11.38-2.72-4.22-5.53-8.4-8.26-12.62-2.34-3.61-4.59-7.28-6.94-10.89a26,26,0,0,0-3.18-4.33c-3.1-3.1-6.29-6.1-8.7-9.8a1.13,1.13,0,0,0-1.35-.56A21.53,21.53,0,0,1,498,461a26.11,26.11,0,0,1-10.22-1.7,28.84,28.84,0,0,1-10.91-7.11,55.89,55.89,0,0,1-3.55-4.51c-3.49-4.62-7-9.22-10.44-13.92-2.39-3.28-4.64-6.68-6.88-10.07-3.91-5.88-7.76-11.8-11.65-17.69-.16-.24-.5-.37-.89-.66a33.72,33.72,0,0,0,0,11.43c.72,3.81,1.74,7.58,2.81,11.31a57.49,57.49,0,0,0,2.47,6.55c1,2.31,2.12,4.55,3.12,6.86a35,35,0,0,1,2.51,12.79,3.22,3.22,0,0,0,.7,2c1.65,2.13,3.23,4.31,4.84,6.47,1.78,2.41,3.54,4.83,5.32,7.22s3.48,4.57,5.2,6.87c2.46,3.31,4.9,6.64,7.36,9.95,3.28,4.42,6.64,8.77,9.82,13.26a52.72,52.72,0,0,0,20,17.05,60.16,60.16,0,0,0,10.28,3.77,43.17,43.17,0,0,0,10.14,1.35,35.8,35.8,0,0,0,7.86-.74A18.22,18.22,0,0,0,542.91,518.79ZM408.46,402.67c-.95,1.43-1.66,2.53-2.39,3.62q-3.4,5.16-6.83,10.32c-1.83,2.74-3.65,5.48-5.5,8.21-2.34,3.46-4.64,7-7.09,10.35-3.06,4.21-6.35,8.26-9.36,12.5a31.16,31.16,0,0,1-8,8.16A30.27,30.27,0,0,1,359,460.35a22.2,22.2,0,0,1-9.46.19,1.78,1.78,0,0,0-2.16,1,55.25,55.25,0,0,1-7.91,8.83,17.31,17.31,0,0,0-2.53,2.75c-3,4.59-6,9.23-9,13.86s-6.08,9.47-9.12,14.21Q314.4,508,310,514.92c-.8,1.24-1.55,2.53-2.36,3.87a21.25,21.25,0,0,0,7.52,2.71,41.48,41.48,0,0,0,10.21.49,48.07,48.07,0,0,0,14.76-3.74,51.61,51.61,0,0,0,9.75-5.34,54.34,54.34,0,0,0,8.46-7.19,71.17,71.17,0,0,0,6.06-7.78q3.47-4.8,7-9.54c2.26-3,4.62-5.95,6.88-9,3.56-4.73,7.07-9.51,10.61-14.26q3.49-4.68,7-9.34a2.89,2.89,0,0,0,.57-2.14A35.52,35.52,0,0,1,398,439.5c.72-2.09,1.46-4.18,2.22-6.25,1.19-3.26,2.46-6.5,3.6-9.78a96.49,96.49,0,0,0,4.33-14.8C408.47,406.82,409,405,408.46,402.67Zm-66.71-69.23c-.77-.78-1.51-1.56-2.27-2.31-3.44-3.39-6.9-6.77-10.34-10.18-2.66-2.64-5.28-5.32-7.95-8-2.85-2.81-5.75-5.59-8.61-8.4-2.09-2.06-4.16-4.15-6.25-6.22-.84-.82-1.14-.84-1.72,0a32.85,32.85,0,0,0-4.47,8.15,30.75,30.75,0,0,0-1.8,7.66,42.15,42.15,0,0,0,1.11,14.24,60.13,60.13,0,0,0,3.71,10.29c1.28,2.76,2.71,5.46,4.24,8.09s3.33,5.26,5.05,7.85c1.25,1.89,2.5,3.8,3.9,5.58,3.25,4.14,6.54,8.26,9.92,12.3s7,8.07,10.49,12.05c2.07,2.33,4.26,4.55,6.36,6.85q4.85,5.31,9.64,10.65c2.08,2.32,4.09,4.69,6.14,7,.3.34.67.62,1.15,1.06.57-.91,1.07-1.64,1.51-2.4q2-3.42,4-6.84c1.37-2.39,2.7-4.8,4.11-7.16a1.66,1.66,0,0,0-.25-2.26c-.72-.79-1.38-1.65-2.12-2.44q-5-5.39-10.08-10.74a123.51,123.51,0,0,1-11.54-14A46.79,46.79,0,0,1,339.19,352a20.72,20.72,0,0,1-.64-11.67A19.74,19.74,0,0,1,341.75,333.44ZM489,409.35a11.06,11.06,0,0,0,1.21-1.06c1.22-1.4,2.37-2.86,3.6-4.25,3.65-4.12,7.3-8.24,11-12.32,2.37-2.61,4.85-5.12,7.22-7.72s4.61-5.2,6.88-7.83c2.89-3.35,5.83-6.67,8.61-10.11a130,130,0,0,0,10.39-14.19c1.86-3.06,4.07-5.88,5.64-9.16A78,78,0,0,0,548.07,332c1.68-5.46,2.85-11,2.12-16.78a34.19,34.19,0,0,0-4.45-13.55c-.85-1.41-1.89-2.72-3-4.22-.62.54-1.09.9-1.5,1.31q-5.82,5.78-11.61,11.56l-22.31,22.26c-1,1-.91,1-.19,2.17a20,20,0,0,1,3.1,10.73,23.85,23.85,0,0,1-1.69,7.86,52.72,52.72,0,0,1-7.91,13.82c-3.88,5.09-8.26,9.77-12.62,14.45-2.45,2.63-4.86,5.28-7.26,7.94-.64.69-1.62,1.45-1.65,2.22s.76,1.83,1.26,2.72q3,5.25,5.95,10.46C487.19,406.39,488.05,407.8,489,409.35ZM413.6,319.73l-18.21,41.62c.93,0,1.57.12,2.21.11l21.44-.38c.73,0,1.45,0,2.17,0,1.24-.08,1.42-.25,1.47-1.54q.22-6.37.41-12.75c0-1.34,0-1.4-1.3-1.61-5-.8-8.19-6.32-6.94-11.14s4.93-6.94,9.35-6.68a14.13,14.13,0,0,1,3.61,1.05c1.2.41,1.22.46,1.75-.73.87-1.91,1.79-3.8,2.49-5.77a2,2,0,0,1,2.25-1.47c6.56.06,13.12,0,19.67.05a6.5,6.5,0,0,0,3.77-1,18.87,18.87,0,0,0,2.21-1.53,13.14,13.14,0,0,0,4.41-9.4,8.61,8.61,0,0,0-1.36,0,14.36,14.36,0,0,1-9.41-1.47,4,4,0,0,0-1.54-.42c-2.51-.12-5-.25-7.55-.27q-11.91-.09-23.82-.08a9.23,9.23,0,0,1-4-.83c-1-.46-1.91-1-2.89-1.45-1.78-.8-2.81-.55-3.75,1.15-1.51,2.72-2.93,5.5-4.28,8.3-1,2-.31,3.39,1.88,4.15C409.54,318.29,411.46,319,413.6,319.73ZM351,455.94a17.93,17.93,0,0,0,6.12-.15,28.8,28.8,0,0,0,8-3.07A22.42,22.42,0,0,0,371,448c1.74-2.05,3.27-4.28,4.89-6.43,2.26-3,4.55-6,6.76-9.06,1.78-2.47,3.48-5,5.2-7.53,1.28-1.88,2.53-3.78,3.8-5.67,2.14-3.17,4.31-6.34,6.44-9.52q3-4.47,5.92-9c1-1.5,1.93-3,2.84-4.57a1.48,1.48,0,0,0,.09-1.13,44.1,44.1,0,0,0-5.48-11.66c-.88-1.22-1.6-2.69-3.38-3.14a16,16,0,0,0-1.16,1.38c-1.37,2.11-2.69,4.24-4.05,6.36-1.71,2.66-3.46,5.31-5.17,8s-3.38,5.36-5.1,8c-2.86,4.42-5.78,8.8-8.63,13.22-3.79,5.89-7.52,11.82-11.3,17.71-2.68,4.18-5.41,8.33-8.11,12.5a5.87,5.87,0,0,0-.6,1.1C353,450.89,352.07,453.27,351,455.94Zm102.58-74.41c-1.12.46-1.11,1.16-.9,2a8.22,8.22,0,0,1,.43,3.88,9.58,9.58,0,0,1-4.56,6.18c-1.52,1-3.09,1.78-3.31,3.86a1.65,1.65,0,0,0,.18,1.32c.66.93,1.25,1.9,1.87,2.85,2.26,3.46,4.49,6.93,6.77,10.37,2.85,4.28,5.86,8.47,8.59,12.83s6.06,8.61,9.2,12.84c1.67,2.26,3.46,4.44,5,6.78a25.54,25.54,0,0,0,17.31,11.5,21.45,21.45,0,0,0,4.32.12c1.1,0,1.28-.52.77-1.56-.39-.8-.74-1.63-1.11-2.44a53,53,0,0,0-2.47-5.35c-2-3.38-4.23-6.65-6.36-10-2.31-3.63-4.6-7.27-6.93-10.88-2.21-3.41-4.47-6.78-6.68-10.19q-4.35-6.71-8.64-13.44-5.24-8.16-10.47-16.32C455.68,384.42,454.63,383,453.62,381.53Zm-1.68-90.95a7.87,7.87,0,0,0-.89.19c-6,2.15-11.68,1.83-16.85-2.13a21.69,21.69,0,0,1-5.49-5.88,28.18,28.18,0,0,1-3.16-7.95,21.19,21.19,0,0,1,0-10.64,13.91,13.91,0,0,0,.21-5.34c-.36-2.72-.62-5.46-.86-8.19-.2-2.27-.27-4.54-.47-6.81-.31-3.62-.68-7.25-1.05-10.87a7.3,7.3,0,0,0-.32-1.76,1.3,1.3,0,0,0-.76-.78c-2.37-.39-4.73-.8-7.12-1-1.68-.15-2.4.52-2.73,2.18a10,10,0,0,0-.26,2.3c0,1.79.18,3.58.29,5.37.13,2,.21,4,.43,5.91.56,4.86,1.18,9.72,1.77,14.57.33,2.73.65,5.46,1,8.18s.75,5.33,1.11,8c.56,4.08,1.08,8.17,1.65,12.25.52,3.79,1.1,7.57,1.63,11.35.23,1.61.36,1.78,2.05,1.79l27.05.08c1.64,0,1.73-.06,1.93-1.66.29-2.37.54-4.74.78-7.12C452,292,451.94,291.32,451.94,290.58ZM345.32,337.19a12.5,12.5,0,0,0-.74,1.09,14.65,14.65,0,0,0-.84,11.84,40.89,40.89,0,0,0,5.82,11.46,131,131,0,0,0,11.24,13.54c1.26,1.35,2.56,2.68,3.82,4,2.47,2.62,4.91,5.26,7.38,7.86.85.89,1.12.83,1.72-.21,1-1.71,2-3.42,3-5.14,1.46-2.53,2.93-5.06,4.35-7.62.67-1.21.63-1.24-.29-2.15Q369.23,360.42,357.69,349c-1.18-1.17-2.54-2.17-3.73-3.33-2.28-2.2-4.49-4.46-6.73-6.69C346.65,338.37,346,337.83,345.32,337.19Zm157.61,0a8.44,8.44,0,0,0-.92.65c-3.63,3.48-7.28,6.94-10.86,10.47-6.19,6.11-12.33,12.27-18.48,18.41L468.48,371c-.39.4-.71.75-.35,1.4,2.43,4.39,4.82,8.81,7.25,13.21.65,1.17,1.11,1.22,2,.27,1.28-1.34,2.52-2.73,3.78-4.09,2.79-3,5.56-6.08,8.39-9.08A96.07,96.07,0,0,0,499,361.15c2.94-4.27,5.34-8.76,6.11-14A14.64,14.64,0,0,0,502.93,337.23Zm-60.92-81a17,17,0,0,0-2.15.21c-6.17,1.35-9.47,5.82-10,12a19.09,19.09,0,0,0,2.19,10.24,15.17,15.17,0,0,0,10,8.09,8.37,8.37,0,0,0,6.8-.69c1.07-.65,2.17-1.27,3.22-1.95a3.29,3.29,0,0,0,1-1,16,16,0,0,0,2.28-8.92,22.58,22.58,0,0,0-3.06-10.93,16.28,16.28,0,0,0-5.22-5.57A8.39,8.39,0,0,0,442,256.26Zm-2.23,317.08.13-.43c-.46-.31-.9-.65-1.38-.93-2.91-1.72-6.23-2-9.45-2.69-1.12-.22-2.25-.4-3.33-.72A7.91,7.91,0,0,1,420.2,561c.08-1.91,0-3.83,0-5.75,0-1.76,0-1.79-1.86-1.74s-3.59.23-5.39.29c-.92,0-1.06.55-1.07,1.3q0,3.67-.07,7.37c0,1.19-.11,2.39-.15,3.58-.07,2.09-.13,4.19-.19,6.28a.85.85,0,0,0,1,1c.36,0,.72,0,1.08,0h26.26Zm-9.18-317.9a10.79,10.79,0,0,0,1.5-.79,14.66,14.66,0,0,1,7-3c1.37-.19,1.33-.23,1.07-1.59-.46-2.4-1-4.8-1.23-7.22-.38-3.46.57-6.78,1.5-10,.74-2.57,0-2.46-1.87-3.08a4.66,4.66,0,0,0-1.25-.11,28.15,28.15,0,0,0-7.49.67c-1.43.32-1.5.29-1.4,1.69.17,2.38.44,4.75.63,7.13.41,4.88.78,9.76,1.18,14.63C430.31,254.23,430.45,254.68,430.6,255.44Zm-5.46,298v7.12a3.13,3.13,0,0,0,2.35,3.39c.46.13.9.33,1.37.42q3.27.61,6.54,1.17c.07,0,.17-.13.39-.31-.93-1.57-.83-3.38-.86-5.17s-.16-3.7-.25-5.55c-.06-1.22-.13-1.34-1.38-1.32C430.61,553.19,427.92,553.3,425.14,553.39Zm29.28,19.94c-1.69-2.06-7.48-4-9.89-3.58,1,1.09,1.89,2.21,2.87,3.29a1.25,1.25,0,0,0,.82.28C450.19,573.34,452.16,573.33,454.42,573.33Z" transform="translate(-189.58 -111.28)"/></svg>