<svg xmlns="http://www.w3.org/2000/svg" width="1920" height="766.78" viewBox="0 0 1920 766.78">
  <g id="Group_1148100" data-name="Group 1148100" transform="translate(8535 -5333.46)">
    <g id="Group_11139" data-name="Group 11139" transform="translate(-8535 -203.216)">
      <path id="Path_36809" data-name="Path 36809" d="M0,1169.038V968.369c90.766-35.859,181.531-71.719,311-63.917s297.641,59.266,456,66.89,306.9-28.59,403-50.539,139.74-29.629,256-19.324,305.13,38.6,494,66.89v200.669Z" transform="translate(0 4729.962)" fill="#099a95"/>
      <path id="Path_36248" data-name="Path 36248" d="M0,1663.739V1098.208C90.532,997.15,181.065,896.087,310.2,918.076s296.876,167.024,454.828,188.51,306.111-80.573,401.964-142.43,139.381-83.5,255.342-54.458,304.346,108.775,492.731,188.51v565.531Z" transform="translate(4.934 4639.717)" fill="#099a95" opacity="0.19"/>
    </g>
    <path id="Path_36246" data-name="Path 36246" d="M1920,1320.419V702.45c-111.148-51.7-168.565,146.532-315.268,178.224S1222.038,777.516,1090,774.165,876.14,649.024,742,629.21s-320.61,62.348-453,91.551S78.31,726.206,0,702.45v617.969Z" transform="translate(-8535 4779.821)" fill="#055452"/>
  </g>
</svg>
