<svg xmlns="http://www.w3.org/2000/svg" width="44" height="27" viewBox="0 0 44 27">
    <defs>
        <clipPath id="eumg9gs1va">
            <path transform="translate(-.281)" style="fill:#fff" d="M0 0h44v27H0z"/>
        </clipPath>
    </defs>
    <g transform="translate(.281)" style="clip-path:url(#eumg9gs1va)">
        <path d="M18.149 24.7h11.725V3.2H18.149z" transform="translate(-2.331 -.28)" style="fill-rule:evenodd;fill:#ff5f00"/>
        <path d="M17.381 13.671A13.747 13.747 0 0 1 22.5 2.923 13.176 13.176 0 0 0 14.218 0a13.537 13.537 0 0 0-13.4 13.671 13.537 13.537 0 0 0 13.4 13.671 13.176 13.176 0 0 0 8.282-2.923 13.748 13.748 0 0 1-5.119-10.748z" transform="translate(-.818)" style="fill:#eb001b;fill-rule:evenodd"/>
        <path d="M45.836 22.142v-.531H45.7l-.156.365-.156-.365h-.136v.531h.1v-.4l.147.345h.1l.147-.346v.4zm-.86 0V21.7h.174v-.09h-.443v.09h.174v.44zm1.279-8.471a13.537 13.537 0 0 1-13.4 13.671 13.175 13.175 0 0 1-8.282-2.923 13.844 13.844 0 0 0 0-21.5A13.175 13.175 0 0 1 32.855 0a13.537 13.537 0 0 1 13.399 13.671z" transform="translate(-2.892)" style="fill:#f79e1b;fill-rule:evenodd"/>
    </g>
</svg>
