<svg xmlns="http://www.w3.org/2000/svg" width="43.362" height="27.342" viewBox="0 0 43.362 27.342">
  <g id="Group_11475" data-name="Group 11475" transform="translate(-1483.385 -6261.148)">
    <path id="Path_36851" data-name="Path 36851" d="M18.149,24.7H29.874V3.2H18.149Z" transform="translate(1481.054 6260.869)" fill="#ff5f00" fill-rule="evenodd"/>
    <path id="Path_36852" data-name="Path 36852" d="M17.381,13.671A13.747,13.747,0,0,1,22.5,2.923,13.176,13.176,0,0,0,14.218,0,13.537,13.537,0,0,0,.818,13.671a13.537,13.537,0,0,0,13.4,13.671A13.176,13.176,0,0,0,22.5,24.419,13.748,13.748,0,0,1,17.381,13.671Z" transform="translate(1482.566 6261.148)" fill="#eb001b" fill-rule="evenodd"/>
    <path id="Path_36853" data-name="Path 36853" d="M45.836,22.142v-.531H45.7l-.156.365-.156-.365h-.136v.531h.1v-.4l.147.345h.1l.147-.346v.4Zm-.86,0V21.7h.174v-.09h-.443v.09h.174v.44Zm1.279-8.471a13.537,13.537,0,0,1-13.4,13.671,13.175,13.175,0,0,1-8.282-2.923,13.844,13.844,0,0,0,0-21.5A13.175,13.175,0,0,1,32.855,0,13.537,13.537,0,0,1,46.254,13.671Z" transform="translate(1480.493 6261.148)" fill="#f79e1b" fill-rule="evenodd"/>
  </g>
</svg>
