<svg xmlns="http://www.w3.org/2000/svg" width="77.74" height="19.204" viewBox="0 0 77.74 19.204">
  <g id="Group_11476" data-name="Group 11476" transform="translate(-1558.104 -6266.148)">
    <path id="Path_36854" data-name="Path 36854" d="M29.637,4.295h-4.3a.593.593,0,0,0-.389.145.606.606,0,0,0-.2.366L23,15.965a.365.365,0,0,0,.082.292.359.359,0,0,0,.123.094.354.354,0,0,0,.15.033h2.054a.594.594,0,0,0,.389-.145.606.606,0,0,0,.2-.366l.469-3.01a.606.606,0,0,1,.2-.366.594.594,0,0,1,.388-.145h1.362c2.834,0,4.469-1.387,4.9-4.136a3.383,3.383,0,0,0-.549-2.81,3.965,3.965,0,0,0-3.136-1.111Zm.5,4.076c-.235,1.562-1.415,1.562-2.555,1.562h-.649l.455-2.916a.364.364,0,0,1,.121-.219.356.356,0,0,1,.233-.087h.3c.777,0,1.51,0,1.888.448a1.464,1.464,0,0,1,.209,1.213ZM42.5,8.32h-2.06a.356.356,0,0,0-.233.087.364.364,0,0,0-.121.219l-.091.583L39.847,9a2.913,2.913,0,0,0-2.433-.874,4.757,4.757,0,0,0-4.6,4.191,3.968,3.968,0,0,0,.767,3.2,3.2,3.2,0,0,0,2.595,1.06,3.924,3.924,0,0,0,2.851-1.193l-.092.579a.365.365,0,0,0,.081.293.358.358,0,0,0,.122.094.354.354,0,0,0,.15.033h1.856a.593.593,0,0,0,.389-.145.606.606,0,0,0,.2-.366l1.113-7.133a.365.365,0,0,0-.009-.155.361.361,0,0,0-.072-.137A.356.356,0,0,0,42.5,8.32Zm-2.872,4.056a2.3,2.3,0,0,1-2.324,1.99,1.728,1.728,0,0,1-1.383-.562,1.787,1.787,0,0,1-.323-1.464A2.314,2.314,0,0,1,37.9,10.334a1.728,1.728,0,0,1,1.374.568,1.82,1.82,0,0,1,.348,1.474ZM53.468,8.32H51.4a.6.6,0,0,0-.28.071.6.6,0,0,0-.215.195L48.047,12.84l-1.21-4.089a.607.607,0,0,0-.216-.312.6.6,0,0,0-.357-.12H44.229a.355.355,0,0,0-.164.04.36.36,0,0,0-.128.111.367.367,0,0,0-.048.329l2.28,6.77-2.144,3.061a.366.366,0,0,0-.026.376.361.361,0,0,0,.132.143.355.355,0,0,0,.187.053h2.068a.591.591,0,0,0,.277-.069.6.6,0,0,0,.214-.191L53.762,8.89a.366.366,0,0,0,.023-.375.362.362,0,0,0-.132-.142.355.355,0,0,0-.186-.053Z" transform="translate(1557.535 6266.148)" fill="#253b80"/>
    <path id="Path_36855" data-name="Path 36855" d="M60.321,4.295h-4.3a.594.594,0,0,0-.388.145.606.606,0,0,0-.2.365l-1.74,11.16a.365.365,0,0,0,.081.292.359.359,0,0,0,.122.094.355.355,0,0,0,.15.033H56.25a.415.415,0,0,0,.271-.1.424.424,0,0,0,.141-.256l.494-3.163a.607.607,0,0,1,.2-.366.594.594,0,0,1,.388-.145h1.361c2.834,0,4.469-1.387,4.9-4.136a3.381,3.381,0,0,0-.549-2.81,3.961,3.961,0,0,0-3.135-1.111Zm.5,4.076c-.235,1.562-1.414,1.562-2.555,1.562h-.649l.456-2.916a.363.363,0,0,1,.121-.219.355.355,0,0,1,.233-.087h.3c.776,0,1.51,0,1.888.448a1.464,1.464,0,0,1,.208,1.213ZM73.18,8.32H71.121a.354.354,0,0,0-.233.087.362.362,0,0,0-.121.219l-.091.583L70.532,9A2.912,2.912,0,0,0,68.1,8.124a4.757,4.757,0,0,0-4.6,4.191,3.97,3.97,0,0,0,.767,3.2,3.206,3.206,0,0,0,2.595,1.06,3.924,3.924,0,0,0,2.851-1.193l-.092.579a.366.366,0,0,0,.082.293.359.359,0,0,0,.123.094.355.355,0,0,0,.151.033h1.855a.594.594,0,0,0,.388-.145.607.607,0,0,0,.2-.366l1.114-7.133a.366.366,0,0,0-.082-.292.36.36,0,0,0-.123-.094.355.355,0,0,0-.15-.033Zm-2.872,4.056a2.3,2.3,0,0,1-2.324,1.99A1.729,1.729,0,0,1,66.6,13.8a1.792,1.792,0,0,1-.323-1.464,2.315,2.315,0,0,1,2.309-2.006,1.728,1.728,0,0,1,1.374.568,1.811,1.811,0,0,1,.348,1.474Zm5.3-7.776L73.843,15.965a.365.365,0,0,0,.081.292.359.359,0,0,0,.122.094.355.355,0,0,0,.15.033h1.775a.6.6,0,0,0,.591-.511L78.3,4.714a.367.367,0,0,0-.009-.155.363.363,0,0,0-.072-.137.359.359,0,0,0-.122-.094.355.355,0,0,0-.15-.034H75.962a.357.357,0,0,0-.233.088A.364.364,0,0,0,75.609,4.6Z" transform="translate(1557.535 6266.148)" fill="#179bd7"/>
    <path id="Path_36856" data-name="Path 36856" d="M5.139,18.552l.329-2.114-.733-.017h-3.5L3.667.822A.2.2,0,0,1,3.735.7a.2.2,0,0,1,.13-.048h5.9c1.959,0,3.311.412,4.016,1.226a2.806,2.806,0,0,1,.644,1.22,4.456,4.456,0,0,1,0,1.683l-.008.049v.43l.331.19a2.323,2.323,0,0,1,.67.517A2.418,2.418,0,0,1,15.966,7.2a5.277,5.277,0,0,1-.077,1.789,6.35,6.35,0,0,1-.725,2.026,4.148,4.148,0,0,1-1.148,1.273,4.631,4.631,0,0,1-1.546.706,7.625,7.625,0,0,1-1.932.226h-.459a1.383,1.383,0,0,0-.9.334,1.411,1.411,0,0,0-.468.845l-.035.19L8.1,18.314l-.026.137a.118.118,0,0,1-.036.079.1.1,0,0,1-.06.022Z" transform="translate(1557.535 6266.148)" fill="#253b80"/>
    <path id="Path_36857" data-name="Path 36857" d="M15.066,4.879q-.026.171-.06.35c-.778,4.042-3.44,5.438-6.84,5.438H6.435a.844.844,0,0,0-.831.72l-.886,5.686-.251,1.612a.452.452,0,0,0,.1.361.443.443,0,0,0,.151.116A.439.439,0,0,0,4.9,19.2h3.07a.742.742,0,0,0,.73-.63l.03-.158L9.312,14.7l.037-.2a.741.741,0,0,1,.73-.631h.459c2.975,0,5.3-1.222,5.984-4.757a4.089,4.089,0,0,0-.615-3.578,2.94,2.94,0,0,0-.84-.655Z" transform="translate(1557.535 6266.148)" fill="#179bd7"/>
    <path id="Path_36858" data-name="Path 36858" d="M14.252,4.551a6.078,6.078,0,0,0-.757-.17,9.505,9.505,0,0,0-1.526-.113H7.345a.732.732,0,0,0-.48.179.748.748,0,0,0-.249.452l-.984,6.3-.028.184a.853.853,0,0,1,.284-.516.835.835,0,0,1,.547-.2H8.166c3.4,0,6.062-1.4,6.84-5.438.023-.12.043-.236.06-.35a4.12,4.12,0,0,0-.64-.273q-.087-.029-.174-.055Z" transform="translate(1557.535 6266.148)" fill="#222d65"/>
    <path id="Path_36859" data-name="Path 36859" d="M6.616,4.9a.746.746,0,0,1,.249-.452.73.73,0,0,1,.48-.178h4.625a9.505,9.505,0,0,1,1.526.113,6.075,6.075,0,0,1,.932.225,4.185,4.185,0,0,1,.64.273,3.849,3.849,0,0,0-.8-3.431C13.387.434,11.8,0,9.766,0h-5.9a.846.846,0,0,0-.833.721L.575,16.48a.517.517,0,0,0,.115.413.507.507,0,0,0,.173.133.5.5,0,0,0,.212.047H4.717l.915-5.87.984-6.3Z" transform="translate(1557.535 6266.148)" fill="#253b80"/>
  </g>
</svg>
