<svg xmlns="http://www.w3.org/2000/svg" width="37.617" height="17.275" viewBox="0 0 37.617 17.275">
  <g id="Arrow" transform="translate(37.617) rotate(90)">
    <path id="Vector" d="M8.636,37.6a2.193,2.193,0,0,1-1.525-.612,2.057,2.057,0,0,1-.632-1.477V7.121L3.7,9.837a2.215,2.215,0,0,1-3.063,0,2.052,2.052,0,0,1,0-2.967L7.1.6A2.18,2.18,0,0,1,8.211.038,2.221,2.221,0,0,1,9.455.163a2.144,2.144,0,0,1,.969.765,2.044,2.044,0,0,1,.368,1.157v33.43a2.057,2.057,0,0,1-.632,1.477A2.193,2.193,0,0,1,8.636,37.6Z" transform="translate(0 0.012)" fill="#055452"/>
    <path id="Vector-2" data-name="Vector" d="M8.636,10.455a2.218,2.218,0,0,1-.828-.155,2.163,2.163,0,0,1-.7-.451L.634,3.581A2.065,2.065,0,0,1,0,2.1a2.041,2.041,0,0,1,.165-.8A2.1,2.1,0,0,1,.634.614a2.172,2.172,0,0,1,.7-.455A2.226,2.226,0,0,1,2.166,0,2.2,2.2,0,0,1,3.7.614l6.47,6.268a2.087,2.087,0,0,1,.472.68,2.029,2.029,0,0,1,0,1.607,2.087,2.087,0,0,1-.472.68,2.163,2.163,0,0,1-.7.451A2.218,2.218,0,0,1,8.636,10.455Z" transform="translate(6.47)" fill="#055452"/>
  </g>
</svg>
