<svg xmlns="http://www.w3.org/2000/svg" width="762.093" height="674.744" viewBox="0 0 762.093 674.744">
  <g id="Sign_up-rafiki" data-name="Sign up-rafiki" transform="translate(-56.249 -55)">
    <g id="freepik--background-complete--inject-41" transform="translate(56.249 55)">
      <rect id="Rectangle_2696" data-name="Rectangle 2696" width="59.984" height="0.453" transform="translate(685.628 622.095)" fill="#ebebeb"/>
      <rect id="Rectangle_2697" data-name="Rectangle 2697" width="15.738" height="0.453" transform="translate(514.932 627.021)" fill="#ebebeb"/>
      <rect id="Rectangle_2698" data-name="Rectangle 2698" width="34.755" height="0.453" transform="translate(649.062 605.288)" fill="#ebebeb"/>
      <rect id="Rectangle_2699" data-name="Rectangle 2699" width="78.221" height="0.453" transform="translate(25.808 608.331)" fill="#ebebeb"/>
      <rect id="Rectangle_2700" data-name="Rectangle 2700" width="11.464" height="0.453" transform="translate(120.167 608.331)" fill="#ebebeb"/>
      <rect id="Rectangle_2701" data-name="Rectangle 2701" width="169.664" height="0.453" transform="translate(168.903 615.973)" fill="#ebebeb"/>
      <path id="Path_37960" data-name="Path 37960" d="M398.239,567.179H48.533A10.341,10.341,0,0,1,38.21,556.838V65.251A10.341,10.341,0,0,1,48.533,55H398.239A10.341,10.341,0,0,1,408.58,65.341v491.5A10.341,10.341,0,0,1,398.239,567.179ZM48.533,55.362a9.889,9.889,0,0,0-9.87,9.889V556.838a9.889,9.889,0,0,0,9.87,9.889H398.239a9.907,9.907,0,0,0,9.889-9.889V65.251a9.907,9.907,0,0,0-9.889-9.889Z" transform="translate(-38.21 -55)" fill="#ebebeb"/>
      <path id="Path_37961" data-name="Path 37961" d="M614.565,567.179H264.841A10.36,10.36,0,0,1,254.5,556.838V65.251A10.36,10.36,0,0,1,264.841,55H614.565A10.341,10.341,0,0,1,624.87,65.251V556.838A10.341,10.341,0,0,1,614.565,567.179ZM264.841,55.362a9.907,9.907,0,0,0-9.889,9.889V556.838a9.907,9.907,0,0,0,9.889,9.889H614.565a9.907,9.907,0,0,0,9.889-9.889V65.251a9.907,9.907,0,0,0-9.889-9.889Z" transform="translate(137.223 -55)" fill="#ebebeb"/>
      <rect id="Rectangle_2702" data-name="Rectangle 2702" width="257.14" height="377.017" transform="translate(112.56 215.304)" fill="#f0f0f0"/>
      <rect id="Rectangle_2703" data-name="Rectangle 2703" width="238.975" height="69.637" transform="translate(121.633 227.166)" fill="#e0e0e0"/>
      <rect id="Rectangle_2704" data-name="Rectangle 2704" width="13.583" height="58.354" transform="translate(121.633 238.431)" fill="#ebebeb"/>
      <rect id="Rectangle_2705" data-name="Rectangle 2705" width="13.583" height="58.354" transform="translate(187.286 238.431)" fill="#ebebeb"/>
      <rect id="Rectangle_2706" data-name="Rectangle 2706" width="13.583" height="58.354" transform="matrix(0.985, -0.17, 0.17, 0.985, 261.998, 239.272)" fill="#ebebeb"/>
      <rect id="Rectangle_2707" data-name="Rectangle 2707" width="13.583" height="50.675" transform="translate(138.459 246.129)" fill="#ebebeb"/>
      <rect id="Rectangle_2708" data-name="Rectangle 2708" width="13.583" height="50.675" transform="translate(169.664 246.129)" fill="#ebebeb"/>
      <rect id="Rectangle_2709" data-name="Rectangle 2709" width="13.583" height="50.675" transform="translate(248.429 246.129)" fill="#ebebeb"/>
      <rect id="Rectangle_2710" data-name="Rectangle 2710" width="13.583" height="50.675" transform="translate(205.45 247.316) rotate(-12.53)" fill="#ebebeb"/>
      <rect id="Rectangle_2711" data-name="Rectangle 2711" width="6.792" height="61.251" transform="translate(156.986 235.534)" fill="#ebebeb"/>
      <rect id="Rectangle_2712" data-name="Rectangle 2712" width="6.792" height="61.251" transform="translate(237.725 235.534)" fill="#ebebeb"/>
      <rect id="Rectangle_2713" data-name="Rectangle 2713" width="238.975" height="69.637" transform="translate(360.626 377.47) rotate(180)" fill="#e0e0e0"/>
      <rect id="Rectangle_2714" data-name="Rectangle 2714" width="13.583" height="58.354" transform="translate(360.608 377.451) rotate(180)" fill="#ebebeb"/>
      <rect id="Rectangle_2715" data-name="Rectangle 2715" width="13.583" height="58.354" transform="translate(294.974 377.451) rotate(180)" fill="#ebebeb"/>
      <rect id="Rectangle_2716" data-name="Rectangle 2716" width="13.583" height="58.354" transform="matrix(-0.985, -0.17, 0.17, -0.985, 210.357, 377.438)" fill="#ebebeb"/>
      <rect id="Rectangle_2717" data-name="Rectangle 2717" width="13.583" height="50.675" transform="translate(343.783 377.47) rotate(180)" fill="#ebebeb"/>
      <rect id="Rectangle_2718" data-name="Rectangle 2718" width="13.583" height="50.675" transform="translate(312.596 377.47) rotate(180)" fill="#ebebeb"/>
      <rect id="Rectangle_2719" data-name="Rectangle 2719" width="13.583" height="50.675" transform="translate(233.831 377.47) rotate(180)" fill="#ebebeb"/>
      <rect id="Rectangle_2720" data-name="Rectangle 2720" width="13.583" height="50.675" transform="translate(265.86 377.457) rotate(-167.47)" fill="#ebebeb"/>
      <rect id="Rectangle_2721" data-name="Rectangle 2721" width="6.792" height="61.251" transform="translate(325.255 377.451) rotate(180)" fill="#ebebeb"/>
      <rect id="Rectangle_2722" data-name="Rectangle 2722" width="6.792" height="61.251" transform="translate(244.535 377.451) rotate(180)" fill="#ebebeb"/>
      <rect id="Rectangle_2723" data-name="Rectangle 2723" width="13.583" height="58.354" transform="translate(121.633 319.098)" fill="#ebebeb"/>
      <rect id="Rectangle_2724" data-name="Rectangle 2724" width="13.583" height="50.675" transform="translate(138.459 326.777)" fill="#ebebeb"/>
      <rect id="Rectangle_2725" data-name="Rectangle 2725" width="13.583" height="50.675" transform="translate(169.664 326.777)" fill="#ebebeb"/>
      <rect id="Rectangle_2726" data-name="Rectangle 2726" width="6.792" height="61.251" transform="translate(156.986 316.2)" fill="#ebebeb"/>
      <rect id="Rectangle_2727" data-name="Rectangle 2727" width="238.975" height="69.637" transform="translate(121.633 388.481)" fill="#e0e0e0"/>
      <rect id="Rectangle_2728" data-name="Rectangle 2728" width="13.583" height="58.354" transform="translate(258.806 399.746)" fill="#ebebeb"/>
      <rect id="Rectangle_2729" data-name="Rectangle 2729" width="13.583" height="58.354" transform="matrix(0.985, -0.17, 0.17, 0.985, 333.53, 400.583)" fill="#ebebeb"/>
      <rect id="Rectangle_2730" data-name="Rectangle 2730" width="13.583" height="50.675" transform="translate(209.979 407.443)" fill="#ebebeb"/>
      <rect id="Rectangle_2731" data-name="Rectangle 2731" width="13.583" height="50.675" transform="translate(241.184 407.443)" fill="#ebebeb"/>
      <rect id="Rectangle_2732" data-name="Rectangle 2732" width="13.583" height="50.675" transform="translate(319.949 407.443)" fill="#ebebeb"/>
      <rect id="Rectangle_2733" data-name="Rectangle 2733" width="13.583" height="50.675" transform="translate(276.976 408.633) rotate(-12.53)" fill="#ebebeb"/>
      <rect id="Rectangle_2734" data-name="Rectangle 2734" width="6.792" height="61.251" transform="translate(228.507 396.848)" fill="#ebebeb"/>
      <rect id="Rectangle_2735" data-name="Rectangle 2735" width="6.792" height="61.251" transform="translate(309.245 396.848)" fill="#ebebeb"/>
      <rect id="Rectangle_2736" data-name="Rectangle 2736" width="13.583" height="58.354" transform="matrix(0.985, -0.17, 0.17, 0.985, 177.346, 400.597)" fill="#ebebeb"/>
      <rect id="Rectangle_2737" data-name="Rectangle 2737" width="13.583" height="50.675" transform="translate(163.76 407.443)" fill="#ebebeb"/>
      <rect id="Rectangle_2738" data-name="Rectangle 2738" width="13.583" height="50.675" transform="translate(120.794 408.632) rotate(-12.53)" fill="#ebebeb"/>
      <rect id="Rectangle_2739" data-name="Rectangle 2739" width="6.792" height="61.251" transform="translate(153.074 396.848)" fill="#ebebeb"/>
      <rect id="Rectangle_2740" data-name="Rectangle 2740" width="44.372" height="377.995" transform="translate(112.56 593.298) rotate(180)" fill="#e0e0e0"/>
      <path id="Path_37962" data-name="Path 37962" d="M342.319,454.981H304.63L324.443,293.54a14.38,14.38,0,0,1,13.891-12.37H502.71L478.6,454.909Z" transform="translate(177.883 128.447)" fill="#f5f5f5"/>
      <path id="Path_37963" data-name="Path 37963" d="M391.44,454.983h37.689l19.832-161.442a10.722,10.722,0,0,0-10.867-12.37H425.145a14.489,14.489,0,0,0-13.891,12.37Z" transform="translate(248.295 128.445)" fill="#f0f0f0"/>
      <path id="Path_37964" data-name="Path 37964" d="M388.7,430.435l6.828-78.058a7.425,7.425,0,0,1,6.466-6.737l2.807-.362a9.943,9.943,0,0,0,8.675-9.056l1.25-14.235a9.979,9.979,0,0,0-9.943-10.867h62.99a9.979,9.979,0,0,1,9.943,10.867l-1.25,14.235a9.943,9.943,0,0,1-8.675,9.055l-2.807.362a7.443,7.443,0,0,0-6.466,6.737l-6.828,78.058a11.03,11.03,0,0,1-10.975,10.052H377.72A11.03,11.03,0,0,0,388.7,430.435Z" transform="translate(237.167 152.739)" fill="#e6e6e6"/>
      <path id="Path_37965" data-name="Path 37965" d="M298.645,332.883A23.725,23.725,0,0,0,275.01,311.15h54.84a23.725,23.725,0,0,1,23.544,21.733l5.433,61.867H304.06Z" transform="translate(153.859 152.763)" fill="#e6e6e6"/>
      <path id="Path_37966" data-name="Path 37966" d="M266.026,311.19h24.341A23.725,23.725,0,0,1,314,332.923l5.433,61.867H450.052l5.433-61.867a23.707,23.707,0,0,1,23.544-21.733h24.359a9.979,9.979,0,0,1,9.943,10.867l-1.25,14.235a9.943,9.943,0,0,1-8.675,9.055l-2.807.362a7.425,7.425,0,0,0-6.466,6.737l-6.755,77.932A11.03,11.03,0,0,1,476.4,440.43H293.084a11.029,11.029,0,0,1-10.975-10.051l-6.828-78.059a7.462,7.462,0,0,0-6.466-6.737l-2.807-.362a9.979,9.979,0,0,1-8.693-9.055l-1.232-14.235a9.979,9.979,0,0,1,9.943-10.74Z" transform="translate(138.483 152.796)" fill="#f0f0f0"/>
      <path id="Path_37967" data-name="Path 37967" d="M110.377,194.926s-2.01-13.239,7.643-21.733,8.8-13.529,6.031-14.181-5.288,7.824-9.526,10.16c0,0-.145-12.1,4.166-16.535s6.574-15.938,2.463-16.137-4.51,6.81-5.433,11.79-5.433,11.971-5.433,11.971-.887-10.867-3.622-15.268,4.636-14.634,1.811-19.071-7.951,4.021-7.534,13.565,6.792,19.723,5.307,29.684c0,0-2.807-7.009-5.325-7.643s-5.071-5.252-6.755-6.973-3.821,4.22,0,9.726,13.565,20.266,12.08,32.183Z" transform="translate(5.443 1.542)" fill="#e6e6e6"/>
      <path id="Path_37968" data-name="Path 37968" d="M114.407,160.15l3.169,19.832a10.088,10.088,0,0,1-9.961,11.664h-3.369a10.088,10.088,0,0,1-9.961-11.663l3.206-19.832Z" transform="translate(7.172 30.287)" fill="#e6e6e6"/>
      <rect id="Rectangle_2741" data-name="Rectangle 2741" width="9.834" height="42.289" transform="translate(321.054 218.056) rotate(180)" fill="#ebebeb"/>
      <rect id="Rectangle_2742" data-name="Rectangle 2742" width="9.834" height="42.289" transform="translate(273.494 218.056) rotate(180)" fill="#ebebeb"/>
      <rect id="Rectangle_2743" data-name="Rectangle 2743" width="9.834" height="42.289" transform="matrix(-0.985, -0.17, 0.17, -0.985, 212.181, 218.044)" fill="#ebebeb"/>
      <rect id="Rectangle_2744" data-name="Rectangle 2744" width="9.834" height="36.711" transform="translate(308.865 218.038) rotate(180)" fill="#ebebeb"/>
      <rect id="Rectangle_2745" data-name="Rectangle 2745" width="9.834" height="36.711" transform="translate(286.262 218.038) rotate(180)" fill="#ebebeb"/>
      <rect id="Rectangle_2746" data-name="Rectangle 2746" width="9.834" height="36.711" transform="translate(229.177 218.038) rotate(180)" fill="#ebebeb"/>
      <rect id="Rectangle_2747" data-name="Rectangle 2747" width="9.834" height="36.711" transform="translate(252.397 218.043) rotate(-167.47)" fill="#ebebeb"/>
      <rect id="Rectangle_2748" data-name="Rectangle 2748" width="4.926" height="44.39" transform="translate(295.445 218.056) rotate(180)" fill="#ebebeb"/>
      <rect id="Rectangle_2749" data-name="Rectangle 2749" width="4.926" height="44.39" transform="translate(236.928 218.056) rotate(180)" fill="#ebebeb"/>
      <rect id="Rectangle_2750" data-name="Rectangle 2750" width="47.94" height="33.089" transform="translate(148.999 184.479)" fill="#ebebeb"/>
      <rect id="Rectangle_2751" data-name="Rectangle 2751" width="40.152" height="24.703" transform="translate(321.199 198.026)" fill="#ebebeb"/>
      <rect id="Rectangle_2752" data-name="Rectangle 2752" width="20.085" height="24.703" transform="translate(331.884 176.311)" fill="#ebebeb"/>
      <rect id="Rectangle_2753" data-name="Rectangle 2753" width="47.759" height="199.004" transform="translate(639.735 143.62)" fill="#e0e0e0"/>
      <rect id="Rectangle_2754" data-name="Rectangle 2754" width="178.611" height="199.529" transform="translate(682.368 343.167) rotate(180)" fill="#e0e0e0"/>
      <rect id="Rectangle_2755" data-name="Rectangle 2755" width="185.312" height="199.529" transform="translate(683.31 343.167) rotate(180)" fill="#f0f0f0"/>
      <rect id="Rectangle_2756" data-name="Rectangle 2756" width="169.773" height="184.008" transform="translate(675.703 333.985) rotate(180)" fill="#fff"/>
      <rect id="Rectangle_2757" data-name="Rectangle 2757" width="3.151" height="184.008" transform="translate(509.064 333.985) rotate(180)" fill="#e0e0e0"/>
      <rect id="Rectangle_2758" data-name="Rectangle 2758" width="4.962" height="167.599" transform="translate(508.557 287.277) rotate(-90)" fill="#e0e0e0"/>
      <rect id="Rectangle_2759" data-name="Rectangle 2759" width="172.435" height="8.331" transform="translate(678.348 282.296) rotate(180)" fill="#f0f0f0"/>
    </g>
    <g id="freepik--Shadow--inject-41" transform="translate(88.668 688.74)">
      <ellipse id="freepik--path--inject-41" cx="351.154" cy="20.502" rx="351.154" ry="20.502" fill="#f5f5f5"/>
    </g>
    <g id="freepik--Tab--inject-41" transform="translate(232.85 232.162)">
      <rect id="Rectangle_2760" data-name="Rectangle 2760" width="350.538" height="408.041" rx="7.32" fill="#e99d7b"/>
      <rect id="Rectangle_2761" data-name="Rectangle 2761" width="350.538" height="408.041" rx="7.32" fill="#fff" opacity="0.6"/>
      <rect id="Rectangle_2762" data-name="Rectangle 2762" width="236.964" height="40.569" transform="translate(56.796 187.141)" fill="#fff"/>
      <rect id="Rectangle_2763" data-name="Rectangle 2763" width="236.964" height="40.569" transform="translate(56.796 242.561)" fill="#fff"/>
      <rect id="Rectangle_2764" data-name="Rectangle 2764" width="236.964" height="40.569" transform="translate(56.796 324.513)" opacity="0.2"/>
      <g id="Group_11293" data-name="Group 11293" transform="translate(108.956 299.913)" opacity="0.5">
        <path id="Path_37983" data-name="Path 37983" d="M201.35,324.005h-3.876l-.833,1.811h-.761l3.169-6.937h.724l3.169,6.937h-.761Zm-.272-.6-1.666-3.731-1.666,3.731Z" transform="translate(-195.88 -318.042)"/>
        <path id="Path_37984" data-name="Path 37984" d="M200.34,318.67h.706v7.353h-.706Z" transform="translate(-192.262 -318.212)"/>
        <path id="Path_37985" data-name="Path 37985" d="M204.479,319.838v.688H204.3a1.684,1.684,0,0,0-1.811,1.92v2.662h-.706v-5.216h.688v1.014A1.956,1.956,0,0,1,204.479,319.838Z" transform="translate(-191.094 -317.279)"/>
        <path id="Path_37986" data-name="Path 37986" d="M208.755,322.692h-4.437a1.92,1.92,0,0,0,2.047,1.811,2.1,2.1,0,0,0,1.612-.67l.38.453a2.753,2.753,0,0,1-4.745-1.811,2.517,2.517,0,0,1,2.554-2.644,2.481,2.481,0,0,1,2.536,2.644A.9.9,0,0,1,208.755,322.692Zm-4.365-.525h3.622a1.811,1.811,0,0,0-3.622,0Z" transform="translate(-189.612 -317.272)"/>
        <path id="Path_37987" data-name="Path 37987" d="M211.238,321.92v3.224h-.616v-.815a1.92,1.92,0,0,1-1.811.869c-1.177,0-1.811-.616-1.811-1.521s.507-1.485,2.01-1.485h1.612v-.308c0-.887-.507-1.376-1.485-1.376a2.68,2.68,0,0,0-1.811.616l-.308-.525a3.242,3.242,0,0,1,2.119-.706,1.811,1.811,0,0,1,2.1,2.028Zm-.688,1.666v-.869H208.9c-1.014,0-1.34.4-1.34.942s.489.978,1.322.978a1.7,1.7,0,0,0,1.739-1.141Z" transform="translate(-186.861 -317.243)"/>
        <path id="Path_37988" data-name="Path 37988" d="M215.294,318.67v7.353h-.67v-1.032a2.228,2.228,0,0,1-2.01,1.087,2.662,2.662,0,0,1,0-5.307,2.318,2.318,0,0,1,1.992,1.032V318.67Zm-.688,4.745a1.938,1.938,0,1,0-1.938,2.028,1.9,1.9,0,0,0,2.01-2.028Z" transform="translate(-184.288 -318.212)"/>
        <path id="Path_37989" data-name="Path 37989" d="M219.1,319.85l-2.608,5.85a1.91,1.91,0,0,1-3.079.869l.326-.525a1.358,1.358,0,0,0,.96.4c.471,0,.779-.217,1.087-.887l.217-.489-2.336-5.216h.815l1.974,4.437,1.956-4.437Z" transform="translate(-181.661 -317.255)"/>
        <path id="Path_37990" data-name="Path 37990" d="M222.632,321.92v3.224h-.67v-.815a1.92,1.92,0,0,1-1.811.869c-1.177,0-1.811-.616-1.811-1.521s.507-1.485,2.01-1.485H222v-.308c0-.887-.489-1.376-1.467-1.376a2.68,2.68,0,0,0-1.811.616l-.326-.525a3.3,3.3,0,0,1,2.137-.706,1.811,1.811,0,0,1,2.1,2.028Zm-.706,1.666v-.869H220.3c-1.014,0-1.34.4-1.34.942s.489.978,1.322.978a1.666,1.666,0,0,0,1.648-1.141Z" transform="translate(-177.663 -317.243)"/>
        <path id="Path_37991" data-name="Path 37991" d="M231.91,322.1v3.025h-.688v-2.952c0-1.1-.561-1.666-1.5-1.666a1.684,1.684,0,0,0-1.811,1.811v2.735h-.688v-2.88c0-1.1-.561-1.666-1.521-1.666a1.684,1.684,0,0,0-1.811,1.811v2.735h-.706V319.84h.67v.96a2.1,2.1,0,0,1,1.92-1,1.811,1.811,0,0,1,1.811,1.1,2.264,2.264,0,0,1,2.065-1.1,1.956,1.956,0,0,1,2.264,2.3Z" transform="translate(-173.737 -317.318)"/>
        <path id="Path_37992" data-name="Path 37992" d="M233.8,322.643h-4.365a1.956,1.956,0,0,0,2.065,1.811,2.046,2.046,0,0,0,1.594-.67l.4.453a2.626,2.626,0,0,1-2.01.851,2.572,2.572,0,0,1-2.735-2.662,2.536,2.536,0,0,1,5.071,0S233.8,322.57,233.8,322.643Zm-4.365-.525h3.713a1.856,1.856,0,0,0-3.713,0Z" transform="translate(-169.22 -317.223)"/>
        <path id="Path_37993" data-name="Path 37993" d="M241.009,322.1v3.025H240.3v-2.952c0-1.1-.543-1.666-1.485-1.666a1.666,1.666,0,0,0-1.811,1.811v2.735H236.3v-2.88c0-1.1-.543-1.666-1.5-1.666a1.666,1.666,0,0,0-1.811,1.811v2.735h-.706V319.84h.67v.96a2.083,2.083,0,0,1,1.92-1,1.811,1.811,0,0,1,1.811,1.1,2.264,2.264,0,0,1,2.065-1.1,1.956,1.956,0,0,1,2.264,2.3Z" transform="translate(-166.356 -317.318)"/>
        <path id="Path_37994" data-name="Path 37994" d="M243.448,323.415a2.535,2.535,0,0,1-2.59,2.662,2.228,2.228,0,0,1-2.01-1.087v1.032h-.688V318.67h.706V321.8a2.3,2.3,0,0,1,1.992-1.032,2.517,2.517,0,0,1,2.59,2.644Zm-.706,0a1.938,1.938,0,1,0-1.938,2.028,1.9,1.9,0,0,0,1.938-2.028Z" transform="translate(-161.587 -318.212)"/>
        <path id="Path_37995" data-name="Path 37995" d="M246.654,322.724h-4.329a1.92,1.92,0,0,0,2.047,1.811,2.047,2.047,0,0,0,1.576-.743l.4.453a2.753,2.753,0,0,1-4.745-1.811,2.517,2.517,0,0,1,2.554-2.644,2.463,2.463,0,0,1,2.517,2.644Zm-4.365-.525h3.622a1.811,1.811,0,1,0-3.622,0Z" transform="translate(-158.798 -317.304)"/>
        <path id="Path_37996" data-name="Path 37996" d="M247.84,319.837v.688h-.163a1.684,1.684,0,0,0-1.811,1.92v2.662h-.706v-5.216h.67v1.014A1.974,1.974,0,0,1,247.84,319.837Z" transform="translate(-155.909 -317.279)"/>
        <path id="Path_37997" data-name="Path 37997" d="M250.961,320.71c0-.724-.58-1.213-1.594-1.213a2.354,2.354,0,0,0-1.9.8l-.525-.4a3.079,3.079,0,0,1,2.481-1.032c1.395,0,2.282.67,2.282,1.811,0,1.684-1.811,1.811-1.811,3.188h-.743C249.15,322.159,250.961,322,250.961,320.71ZM249,325.4a.525.525,0,1,1,.226.535A.525.525,0,0,1,249,325.4Z" transform="translate(-154.465 -318.061)"/>
        <path id="Path_37998" data-name="Path 37998" d="M251.87,318.9h1.612v5.614h3.477v1.3H251.87Z" transform="translate(-150.466 -318.026)"/>
        <path id="Path_37999" data-name="Path 37999" d="M254.882,322.655a2.934,2.934,0,1,1,2.934,2.753,2.753,2.753,0,0,1-2.934-2.753Zm4.292,0a1.358,1.358,0,1,0-1.358,1.467,1.34,1.34,0,0,0,1.358-1.467Z" transform="translate(-148.028 -317.507)"/>
        <path id="Path_38000" data-name="Path 38000" d="M264.463,319.816v4.455a2.608,2.608,0,0,1-2.988,2.9,4.419,4.419,0,0,1-2.626-.742l.616-1.1a3.2,3.2,0,0,0,1.811.6c1.087,0,1.576-.489,1.576-1.449v-.235a2.192,2.192,0,0,1-1.684.67,2.59,2.59,0,1,1,0-5.162,2.137,2.137,0,0,1,1.811.761v-.688Zm-1.521,2.517a1.286,1.286,0,0,0-1.395-1.322,1.322,1.322,0,1,0,0,2.626,1.286,1.286,0,0,0,1.395-1.3Z" transform="translate(-145.202 -317.349)"/>
        <path id="Path_38001" data-name="Path 38001" d="M264,319.291a.888.888,0,0,1,.96-.869.869.869,0,0,1,.96.833.96.96,0,1,1-1.92,0Zm.181,1.594h1.539v5.433h-1.539Z" transform="translate(-140.628 -318.417)"/>
        <path id="Path_38002" data-name="Path 38002" d="M271.181,322.1v3.061h-1.539V322.35c0-.869-.4-1.268-1.087-1.268a1.269,1.269,0,0,0-1.286,1.431v2.644H265.73v-5.433h1.485v.634a2.337,2.337,0,0,1,1.811-.706,2.083,2.083,0,0,1,2.155,2.445Z" transform="translate(-139.225 -317.419)"/>
      </g>
      <rect id="Rectangle_2765" data-name="Rectangle 2765" width="236.964" height="40.569" transform="translate(56.796 322.032)" fill="#055452"/>
      <path id="Path_38003" data-name="Path 38003" d="M219.72,351.515l-2.9-4.184h-4.31v4.22H210.52V337.66h5.433c3.622,0,5.777,1.811,5.777,4.854a4.383,4.383,0,0,1-3.043,4.383l3.3,4.655Zm0-9.056c0-1.992-1.322-3.115-3.876-3.115h-3.369v6.248h3.369c2.5.018,3.821-1.141,3.821-3.115Z" transform="translate(-75.05 -2.896)" fill="#fff"/>
      <path id="Path_38004" data-name="Path 38004" d="M228.2,345.454h-8.53a3.622,3.622,0,0,0,3.8,3.079,3.948,3.948,0,0,0,3.043-1.268l1.05,1.232a5.741,5.741,0,0,1-9.816-3.622,5.162,5.162,0,0,1,5.288-5.433,5.071,5.071,0,0,1,5.2,5.433C228.24,345.037,228.221,345.273,228.2,345.454Zm-8.53-1.376h6.737a3.387,3.387,0,0,0-6.737,0Z" transform="translate(-69.189 -1.453)" fill="#fff"/>
      <path id="Path_38005" data-name="Path 38005" d="M235.37,339.552v9.055c0,3.713-1.9,5.433-5.433,5.433a7.788,7.788,0,0,1-5.017-1.558l.906-1.467a6.465,6.465,0,0,0,4.057,1.358c2.481,0,3.622-1.141,3.622-3.532v-.833a4.763,4.763,0,0,1-3.785,1.63,5.089,5.089,0,0,1,0-10.178,4.781,4.781,0,0,1,3.894,1.811v-1.63Zm-1.811,4.981a3.622,3.622,0,1,0-3.622,3.423,3.369,3.369,0,0,0,3.568-3.423Z" transform="translate(-63.605 -1.437)" fill="#fff"/>
      <path id="Path_38006" data-name="Path 38006" d="M232.38,338.274a1.268,1.268,0,0,1,1.286-1.25,1.238,1.238,0,1,1-1.286,1.25Zm.344,3.26h1.9v10.5h-1.9Z" transform="translate(-57.319 -3.419)" fill="#fff"/>
      <path id="Path_38007" data-name="Path 38007" d="M234.89,348.959l.8-1.5a6.737,6.737,0,0,0,3.622,1.087c1.811,0,2.5-.543,2.5-1.431,0-2.354-6.647-.308-6.647-4.51,0-1.811,1.684-3.151,4.383-3.151a7.607,7.607,0,0,1,3.822.96l-.815,1.5a5.433,5.433,0,0,0-3.025-.833c-1.666,0-2.481.616-2.481,1.449,0,2.481,6.665.453,6.665,4.546,0,1.811-1.811,3.115-4.546,3.115a7.643,7.643,0,0,1-4.274-1.232Z" transform="translate(-55.283 -1.445)" fill="#fff"/>
      <path id="Path_38008" data-name="Path 38008" d="M247.714,350.459a3.622,3.622,0,0,1-2.3.743,3.006,3.006,0,0,1-3.332-3.3v-5.777H240.27V340.57h1.811v-2.3h1.811v2.3h3.133v1.558H244v5.7a1.539,1.539,0,0,0,1.648,1.811,2.427,2.427,0,0,0,1.485-.489Z" transform="translate(-50.919 -2.401)" fill="#fff"/>
      <path id="Path_38009" data-name="Path 38009" d="M255.331,345.454h-8.476a3.622,3.622,0,0,0,3.821,3.079,3.894,3.894,0,0,0,3.025-1.268l1.05,1.232a5.723,5.723,0,0,1-9.8-3.622,5.162,5.162,0,0,1,5.288-5.433,5.089,5.089,0,0,1,5.2,5.433,3.3,3.3,0,0,1-.109.58Zm-8.476-1.376h6.755a3.4,3.4,0,0,0-6.755,0Z" transform="translate(-47.127 -1.453)" fill="#fff"/>
      <path id="Path_38010" data-name="Path 38010" d="M257.821,339.459v1.811h-.435a3.133,3.133,0,0,0-3.314,3.622v5.234h-1.9v-10.5h1.811v1.811a3.984,3.984,0,0,1,3.84-1.974Z" transform="translate(-41.267 -1.453)" fill="#fff"/>
      <g id="Group_11294" data-name="Group 11294" transform="translate(133.786 30.19)" opacity="0.6">
        <path id="Path_38011" data-name="Path 38011" d="M209.59,183.694l.815-1.7a7.752,7.752,0,0,0,5.017,1.811c2.626,0,3.749-1.014,3.749-2.336,0-3.622-9.2-1.376-9.2-7.009,0-2.354,1.811-4.347,5.814-4.347a9.055,9.055,0,0,1,4.89,1.34l-.724,1.811a7.806,7.806,0,0,0-4.166-1.232c-2.59,0-3.622,1.087-3.622,2.409,0,3.622,9.219,1.376,9.219,6.973,0,2.318-1.811,4.31-5.886,4.31A9.056,9.056,0,0,1,209.59,183.694Z" transform="translate(-209.59 -168.987)" fill="#263238"/>
        <path id="Path_38012" data-name="Path 38012" d="M217.44,170.849a1.376,1.376,0,0,1,1.413-1.358,1.358,1.358,0,0,1,1.413,1.322,1.413,1.413,0,0,1-2.825,0Zm.362,3.622h2.1V185.99h-2.1Z" transform="translate(-203.223 -169.489)" fill="#263238"/>
        <path id="Path_38013" data-name="Path 38013" d="M232.468,172.246v9.943c0,4.075-2.065,5.922-5.958,5.922a8.585,8.585,0,0,1-5.433-1.721l1-1.612a6.973,6.973,0,0,0,4.437,1.5c2.717,0,3.948-1.268,3.948-3.876V181.5a5.252,5.252,0,0,1-4.147,1.811,5.578,5.578,0,1,1,0-11.138,5.27,5.27,0,0,1,4.256,1.811v-1.811Zm-2.028,5.433a3.966,3.966,0,1,0-3.966,3.767,3.731,3.731,0,0,0,4.057-3.749Z" transform="translate(-200.81 -167.319)" fill="#263238"/>
        <path id="Path_38014" data-name="Path 38014" d="M240.193,177.138v6.629h-2.1V177.3c0-2.264-1.123-3.369-3.1-3.369a3.423,3.423,0,0,0-3.622,3.821v5.94H229.29V172.175h2.01v1.811a4.89,4.89,0,0,1,4.147-1.811,4.473,4.473,0,0,1,4.745,4.962Z" transform="translate(-193.611 -167.32)" fill="#263238"/>
        <path id="Path_38015" data-name="Path 38015" d="M251.472,172.267v11.519H249.5v-1.811a4.691,4.691,0,0,1-3.912,1.811,4.528,4.528,0,0,1-4.962-5.017V172.14h2.083v6.393c0,2.246,1.141,3.387,3.115,3.387a3.4,3.4,0,0,0,3.622-3.821V172.14Z" transform="translate(-184.443 -167.339)" fill="#263238"/>
        <path id="Path_38016" data-name="Path 38016" d="M260.717,178a5.6,5.6,0,0,1-5.814,5.886,4.944,4.944,0,0,1-4.021-1.811v5.94H248.8V172.3h1.992v1.811a4.908,4.908,0,0,1,4.111-1.938A5.578,5.578,0,0,1,260.717,178Zm-2.1,0a3.876,3.876,0,1,0-3.894,4.057A3.821,3.821,0,0,0,258.616,178Z" transform="translate(-177.787 -167.318)" fill="#263238"/>
      </g>
      <rect id="Rectangle_2766" data-name="Rectangle 2766" width="236.964" height="40.569" transform="translate(56.796 131.703)" fill="#fff"/>
      <rect id="Rectangle_2767" data-name="Rectangle 2767" width="236.964" height="40.569" transform="translate(56.796 76.284)" fill="#fff"/>
      <text id="Name" transform="translate(89.956 101.568)" fill="#787472" font-size="13" font-family="OpenSans-Regular, Open Sans" letter-spacing="-0.03em"><tspan x="-17.623" y="0">Name</tspan></text>
      <text id="Email" transform="translate(87.956 156.987)" fill="#787472" font-size="13" font-family="OpenSans-Regular, Open Sans" letter-spacing="-0.03em"><tspan x="-15.784" y="0">Email</tspan></text>
      <text id="Phone" transform="translate(89.956 209.02)" fill="#787472" font-size="13" font-family="OpenSans-Regular, Open Sans" letter-spacing="-0.03em"><tspan x="-18.685" y="0">Phone</tspan></text>
      <text id="Password" transform="translate(99.956 267.845)" fill="#787472" font-size="13" font-family="OpenSans-Regular, Open Sans" letter-spacing="-0.03em"><tspan x="-27.983" y="0">Password</tspan></text>
    </g>
    <g id="freepik--Plant--inject-41" transform="translate(145.789 532.748)">
      <path id="Path_38034" data-name="Path 38034" d="M118.621,419.811H116.9c0-2.554,2.119-62.393,12.533-72.444,10.7-10.414,23.291-.145,23.4,0l-1.087,1.3c-.471-.38-11.537-9.363-21.136,0C120.7,358.107,118.639,419.2,118.621,419.811Z" transform="translate(-63.925 -299.389)" fill="#e99d7b"/>
      <path id="Path_38035" data-name="Path 38035" d="M126.787,438.427l-1.7-.163c0-.724,6.737-72.661-19.324-102.581l1.286-1.123C133.6,365.041,126.859,437.7,126.787,438.427Z" transform="translate(-72.96 -305.996)" fill="#e99d7b"/>
      <path id="Path_38036" data-name="Path 38036" d="M118.149,433.254c-.217-3.4-5.234-83.311,14.8-101.784l1.159,1.268C114.672,350.6,119.8,432.348,119.852,433.127Z" transform="translate(-63.49 -308.503)" fill="#e99d7b"/>
      <path id="Path_38037" data-name="Path 38037" d="M133.293,417.038c0-.543-.616-54.333-14.869-62.429a9.056,9.056,0,0,0-8.295-.869c-8.349,3.459-12.786,19.4-12.841,19.56l-1.648-.453c.181-.688,4.709-16.9,13.837-20.683a10.667,10.667,0,0,1,9.8.96c15.086,8.639,15.72,61.577,15.738,63.9Z" transform="translate(-81.169 -292.341)" fill="#e99d7b"/>
      <path id="Path_38038" data-name="Path 38038" d="M119.775,415.963c-.109-1.811-2.3-42.452,9.237-57.539,3.079-4,6.484-5.9,10.178-5.633,8.2.561,14.489,11.682,14.833,12.153l-1.485.851c0-.109-6.194-10.867-13.475-11.3-3.061-.235-5.995,1.449-8.693,4.981-11.156,14.489-8.911,55.981-8.893,56.4Z" transform="translate(-61.783 -291.23)" fill="#e99d7b"/>
      <path id="Path_38039" data-name="Path 38039" d="M121.271,442.429l-1.7-.127c0-.978,7.244-98.017-4.709-114.208l1.376-1.014C128.588,343.778,121.579,438.408,121.271,442.429Z" transform="translate(-65.579 -312.064)" fill="#e99d7b"/>
      <path id="Path_38040" data-name="Path 38040" d="M112.643,359.825s7.389,2.735,5.2,9.164S92.25,386.013,92.25,386.013s-9.8-8.965-.8-23.544S112.444,355.225,112.643,359.825Z" transform="translate(-87.65 -290.349)" fill="#e99d7b"/>
      <path id="Path_38041" data-name="Path 38041" d="M112.643,359.825s7.389,2.735,5.2,9.164S92.25,386.013,92.25,386.013s-9.8-8.965-.8-23.544S112.444,355.225,112.643,359.825Z" transform="translate(-87.65 -290.349)" fill="#055452"/>
      <path id="Path_38042" data-name="Path 38042" d="M122.935,351.72s-7.878-.326-8.331,6.447,17.024,25.573,17.024,25.573,12.5-4.528,9.816-21.462S124.891,347.536,122.935,351.72Z" transform="translate(-65.794 -294.487)" fill="#e99d7b"/>
      <path id="Path_38043" data-name="Path 38043" d="M122.935,351.72s-7.878-.326-8.331,6.447,17.024,25.573,17.024,25.573,12.5-4.528,9.816-21.462S124.891,347.536,122.935,351.72Z" transform="translate(-65.794 -294.487)" fill="#055452"/>
      <path id="Path_38044" data-name="Path 38044" d="M125.056,336.579s-5.252-.561-4.836-3.749,20.411-11.428,32.2,1.811c0,0-7.552,12.967-18.455,13.149S125.056,336.579,125.056,336.579Z" transform="translate(-61.251 -311.837)" fill="#e99d7b"/>
      <path id="Path_38045" data-name="Path 38045" d="M125.056,336.579s-5.252-.561-4.836-3.749,20.411-11.428,32.2,1.811c0,0-7.552,12.967-18.455,13.149S125.056,336.579,125.056,336.579Z" transform="translate(-61.251 -311.837)" fill="#055452"/>
      <path id="Path_38046" data-name="Path 38046" d="M127.442,335.761s4.745,2.3,6.085-.634S122.244,314.644,105.2,319.7c0,0-.453,15,8.711,20.918S127.442,335.761,127.442,335.761Z" transform="translate(-73.416 -318.789)" fill="#e99d7b"/>
      <path id="Path_38047" data-name="Path 38047" d="M127.442,335.761s4.745,2.3,6.085-.634S122.244,314.644,105.2,319.7c0,0-.453,15,8.711,20.918S127.442,335.761,127.442,335.761Z" transform="translate(-73.416 -318.789)" fill="#055452"/>
      <path id="Path_38048" data-name="Path 38048" d="M132.3,357.91s-3.622-2.934.29-4.365,23.092-1.014,23.291,17.984c0,0-22.349,3.713-25.1-3.532S132.3,357.91,132.3,357.91Z" transform="translate(-53.421 -291.005)" fill="#e99d7b"/>
      <path id="Path_38049" data-name="Path 38049" d="M132.3,357.91s-3.622-2.934.29-4.365,23.092-1.014,23.291,17.984c0,0-22.349,3.713-25.1-3.532S132.3,357.91,132.3,357.91Z" transform="translate(-53.421 -291.005)" fill="#055452"/>
      <path id="Path_38050" data-name="Path 38050" d="M116.561,334.36s3.622-2.934-.29-4.347-23.092-1.032-23.291,17.966c0,0,22.349,3.731,25.1-3.514S116.561,334.36,116.561,334.36Z" transform="translate(-83.326 -310.088)" fill="#e99d7b"/>
      <path id="Path_38051" data-name="Path 38051" d="M116.561,334.36s3.622-2.934-.29-4.347-23.092-1.032-23.291,17.966c0,0,22.349,3.731,25.1-3.514S116.561,334.36,116.561,334.36Z" transform="translate(-83.326 -310.088)" fill="#055452"/>
      <path id="Path_38052" data-name="Path 38052" d="M116.882,341.762s.326-3.622-2.554-2.155-12.859,12.189-2.5,22.421c0,0,13.964-10.341,11.446-15.72S116.882,341.762,116.882,341.762Z" transform="translate(-71.767 -302.187)" fill="#e99d7b"/>
      <path id="Path_38053" data-name="Path 38053" d="M116.882,341.762s.326-3.622-2.554-2.155-12.859,12.189-2.5,22.421c0,0,13.964-10.341,11.446-15.72S116.882,341.762,116.882,341.762Z" transform="translate(-71.767 -302.187)" fill="#055452"/>
      <path id="Path_38054" data-name="Path 38054" d="M134.4,344.877s-2.173-2.843,1.014-3.187,17.387,3.441,14.072,17.64c0,0-17.314-1.3-18.111-7.244S134.4,344.877,134.4,344.877Z" transform="translate(-52.27 -300.231)" fill="#e99d7b"/>
      <path id="Path_38055" data-name="Path 38055" d="M134.4,344.877s-2.173-2.843,1.014-3.187,17.387,3.441,14.072,17.64c0,0-17.314-1.3-18.111-7.244S134.4,344.877,134.4,344.877Z" transform="translate(-52.27 -300.231)" fill="#055452"/>
      <path id="Path_38056" data-name="Path 38056" d="M105.494,441.1h55.981l7.444-54.442H98.05Z" transform="translate(-79.214 -263.738)" fill="#263238"/>
      <path id="Path_38057" data-name="Path 38057" d="M105.494,441.1h55.981l7.444-54.442H98.05Z" transform="translate(-79.214 -263.738)" fill="#fff" opacity="0.2"/>
      <path id="Path_38058" data-name="Path 38058" d="M179.4,384.22v5.18a6.266,6.266,0,0,1-6.266,6.266H100.056A6.266,6.266,0,0,1,93.79,389.4v-5.18Z" transform="translate(-82.669 -265.717)" fill="#263238"/>
    </g>
    <g id="freepik--speech-bubble--inject-41" transform="translate(640.945 135.249)">
      <path id="Path_38059" data-name="Path 38059" d="M429.093,99.31H377.06a16.01,16.01,0,0,0-16.01,16.01V160.6a16.01,16.01,0,0,0,16.01,16.028h15.2l-3.622,14.29,14.489-14.29h26.062A16.028,16.028,0,0,0,445.212,160.6V115.32a16.01,16.01,0,0,0-16.119-16.01Z" transform="translate(-361.05 -99.31)" fill="#e99d7b"/>
      <path id="Path_38060" data-name="Path 38060" d="M429.093,99.31H377.06a16.01,16.01,0,0,0-16.01,16.01V160.6a16.01,16.01,0,0,0,16.01,16.028h15.2l-3.622,14.29,14.489-14.29h26.062A16.028,16.028,0,0,0,445.212,160.6V115.32a16.01,16.01,0,0,0-16.119-16.01Z" transform="translate(-361.05 -99.31)" fill="#fff" opacity="0.7"/>
      <circle id="Ellipse_218" data-name="Ellipse 218" cx="20.194" cy="20.194" r="20.194" transform="translate(21.842 18.274)" fill="#fff"/>
      <path id="Path_38061" data-name="Path 38061" d="M395.826,106.29a25.808,25.808,0,1,0,18.267,7.559,25.826,25.826,0,0,0-18.267-7.559ZM410.478,124.4l-15.557,18.328a2.318,2.318,0,0,1-1.811.833,2.354,2.354,0,0,1-1.811-.833l-10.124-11.935a2.373,2.373,0,1,1,3.622-3.061l8.313,9.8,13.746-16.191a2.373,2.373,0,0,1,3.622,3.061Z" transform="translate(-353.791 -93.648)" fill="#055452"/>
    </g>
    <g id="freepik--Character--inject-41" transform="translate(515.019 222.701)">
      <path id="Path_38062" data-name="Path 38062" d="M432.225,296.921s-31.531-3.984-79.308,9.056c0,0-7.679-85.375-6.773-97.111s73.766-8.295,73.766-8.295,1.811,34.175,6.556,54.786S434.688,292.955,432.225,296.921Z" transform="translate(-247.275 -105.01)" fill="#e99d7b"/>
      <path id="Path_38063" data-name="Path 38063" d="M432.225,296.921s-31.531-3.984-79.308,9.056c0,0-7.679-85.375-6.773-97.111s73.766-8.295,73.766-8.295,1.811,34.175,6.556,54.786S434.688,292.955,432.225,296.921Z" transform="translate(-247.275 -105.01)" opacity="0.2"/>
      <path id="Path_38064" data-name="Path 38064" d="M337.13,423.376l12.859,3.64L353.05,407l1.648-10.7-12.859-3.64L339.647,407Z" transform="translate(-254.526 51.175)" fill="#e4897b"/>
      <path id="Path_38065" data-name="Path 38065" d="M377.95,424.118l13.257,1.757.127-19.18.091-11.917-13.275-1.739-.091,13.656Z" transform="translate(-221.417 51.484)" fill="#e4897b"/>
      <path id="Path_38066" data-name="Path 38066" d="M378.1,393.04l-.09,13.656h13.275l.091-11.917Z" transform="translate(-221.368 51.484)" opacity="0.2"/>
      <path id="Path_38067" data-name="Path 38067" d="M338.52,407h13.4l1.648-10.7-12.859-3.64Z" transform="translate(-253.398 51.175)" opacity="0.2"/>
      <path id="Path_38068" data-name="Path 38068" d="M311.328,210.5,298.56,206.73l2.336,14.579s11.591,2.662,12.678-3.369Z" transform="translate(-285.81 -99.632)" fill="#e4897b"/>
      <path id="Path_38069" data-name="Path 38069" d="M291.52,210.117l6.266,11.845,8.82-.652L304.27,206.73Z" transform="translate(-291.52 -99.632)" fill="#e4897b"/>
      <path id="Path_38070" data-name="Path 38070" d="M325.584,212.971l-20.973-4.691-1.9,10.178,19.035,4.636Z" transform="translate(-282.444 -98.375)" fill="#e4897b"/>
      <path id="Path_38071" data-name="Path 38071" d="M385.774,215.994l-1.232,1.467c-2.644,3.1-9.056,10.577-15.738,17.024-5.433,5.252-10.867,9.834-14.489,10.758-10.269,2.644-47.6-8.349-47.6-8.349l3.858-15.141s34.773,4.618,37.472,4.618c2.047,0,23.2-30.644,28.326-33.161Z" transform="translate(-279.191 -110.599)" fill="#e99d7b"/>
      <path id="Path_38072" data-name="Path 38072" d="M356.738,211.564c-2.644,3.1-9.056,10.577-15.738,17.024,1.34-10.613,5.234-20.357,10.36-26.514a9.563,9.563,0,0,1,1.63-1.594Z" transform="translate(-251.387 -104.702)" opacity="0.2"/>
      <path id="Path_38073" data-name="Path 38073" d="M350.713,408.681l14.6-.38a1.159,1.159,0,0,1,1.159.869l3.079,11.754a1.938,1.938,0,0,1-1.811,2.427c-5.27,0-12.9,0-19.506.127-7.751.217-12.678-.163-21.733,0-5.433.145-7.244-5.325-4.926-5.886,10.378-2.572,17.169-2.065,26.007-7.86A6.32,6.32,0,0,1,350.713,408.681Z" transform="translate(-267.946 63.861)" fill="#263238"/>
      <path id="Path_38074" data-name="Path 38074" d="M340.156,410.772h0c-2.137.471-5.94,1.1-7.462-.145a1.811,1.811,0,0,1-.652-1.521.978.978,0,0,1,.489-.851c1.612-.96,7.063,1.63,7.7,1.92a.344.344,0,0,1,.181.308A.308.308,0,0,1,340.156,410.772Zm-7.244-2.01H332.8a.4.4,0,0,0-.2.344,1.177,1.177,0,0,0,.417,1c.851.706,3.061.779,5.995.2-2.119-.887-5.071-1.92-6.067-1.539Z" transform="translate(-258.656 63.652)" fill="#e99d7b"/>
      <path id="Path_38075" data-name="Path 38075" d="M338.754,412.2h-.217c-1.648-.688-4.944-3.477-4.763-4.981,0-.362.29-.815,1.159-.924a2.445,2.445,0,0,1,1.811.489c1.811,1.358,2.228,4.926,2.264,5.071a.326.326,0,0,1-.127.29Zm-4.057-5.2c-.272.091-.29.236-.29.29-.109.906,2.137,3.115,3.821,4.057a7.245,7.245,0,0,0-1.92-4.057,1.63,1.63,0,0,0-1.3-.362A1.1,1.1,0,0,0,334.7,407.006Z" transform="translate(-257.254 62.222)" fill="#e99d7b"/>
      <path id="Path_38076" data-name="Path 38076" d="M391.741,408.681l14.6-.38a1.177,1.177,0,0,1,1.177.869l3.061,11.754a1.92,1.92,0,0,1-1.811,2.427c-5.27,0-12.9,0-19.524.127-7.733.217-12.678-.163-21.733,0-5.433.145-7.244-5.325-4.926-5.886,10.378-2.572,17.151-2.065,25.989-7.86A6.32,6.32,0,0,1,391.741,408.681Z" transform="translate(-234.682 63.861)" fill="#263238"/>
      <path id="Path_38077" data-name="Path 38077" d="M381.186,410.772h0c-2.137.471-5.959,1.1-7.462-.145a1.811,1.811,0,0,1-.652-1.521.978.978,0,0,1,.489-.851c1.594-.96,7.063,1.63,7.679,1.92a.29.29,0,0,1,.181.308.326.326,0,0,1-.236.29Zm-7.244-2.01h-.109a.362.362,0,0,0-.181.344,1.141,1.141,0,0,0,.417,1c.851.706,3.043.779,5.995.2-2.155-.887-5.107-1.92-6.1-1.539Z" transform="translate(-225.377 63.652)" fill="#e99d7b"/>
      <path id="Path_38078" data-name="Path 38078" d="M379.784,412.2h-.235c-1.63-.688-4.944-3.477-4.745-4.981,0-.362.272-.815,1.141-.924a2.409,2.409,0,0,1,1.811.489,9.055,9.055,0,0,1,2.264,5.071.29.29,0,0,1-.127.29Zm-4.075-5.2c-.254.091-.272.236-.272.29-.127.906,2.137,3.115,3.821,4.057a7.444,7.444,0,0,0-1.92-4.057,1.648,1.648,0,0,0-1.3-.362Z" transform="translate(-223.975 62.221)" fill="#e99d7b"/>
      <path id="Path_38079" data-name="Path 38079" d="M437.774,249.26c7.027,30.445-5.035,269.963-5.035,269.963H409.448l-9.961-199.6-36.675,199.6-24.9-1.811c16.3-154.632,30.662-246.944,30.662-246.944V258.8Z" transform="translate(-253.893 -65.136)" fill="#263238"/>
      <path id="Path_38080" data-name="Path 38080" d="M337.91,517.411l24.9,1.811,28.869-157.131,7.806-42.47,9.961,199.6h23.291S444.8,279.7,437.774,249.26L368.536,258.8v11.664S354.192,362.78,337.91,517.411Z" transform="translate(-253.893 -65.136)" fill="#fff" opacity="0.4"/>
      <path id="Path_38081" data-name="Path 38081" d="M419.342,187.125a294.022,294.022,0,0,0,1.1,43.648c.978,10.142,2.318,19.723,3.749,28.362,3.35,20.266,7.154,35.461,7.7,40.768l-69.238,9.544c-25.247-70.633-15.738-111.672-15.738-111.672a135.515,135.515,0,0,1,15.883-5.433c1.141-.308,2.3-.6,3.5-.869a259.318,259.318,0,0,1,29.43-4.057c1.811-.163,3.785-.29,5.633-.38A175.784,175.784,0,0,1,419.342,187.125Z" transform="translate(-248.012 -115.76)" fill="#263238"/>
      <path id="Path_38082" data-name="Path 38082" d="M371.9,169.45c.507,9.689,1.539,27.873,9.6,32.491,0,0-5.017,9.544-15.865,10.522-8.2.724-7.661-7.371-7.661-7.371,4.745-3.532,3.622-9.526,0-16.3Z" transform="translate(-237.626 -129.87)" fill="#e4897b"/>
      <path id="Path_38083" data-name="Path 38083" d="M366.186,173.81,358,185.256a31.5,31.5,0,0,1,2.173,4.89c3.8-1.521,8.168-7.244,7.534-11.392a14.124,14.124,0,0,0-1.521-4.944Z" transform="translate(-237.598 -126.334)" opacity="0.2"/>
      <path id="Path_38084" data-name="Path 38084" d="M346.46,159.751c-1.576,5.035-.706,15.358,6.3,12.008S349.176,151.112,346.46,159.751Z" transform="translate(-247.501 -139.677)" fill="#263238"/>
      <path id="Path_38085" data-name="Path 38085" d="M382.423,170.039c.779,12.913,1.811,20.429-3.821,27.746-8.566,10.993-25.156,6.9-29.793-5.56-4.166-11.229-4.727-30.463,7.244-36.983a17.857,17.857,0,0,1,26.37,14.8Z" transform="translate(-247.242 -143.155)" fill="#e4897b"/>
      <path id="Path_38086" data-name="Path 38086" d="M361.16,165.075V150.586s15.358-1.141,14.67,6.719c8.512,4.22,4.492,17.459-6.936,23.943-6.266-5.017-5.542-17.079-5.542-17.079A18.485,18.485,0,0,1,361.16,165.075Z" transform="translate(-235.035 -145.218)" fill="#263238"/>
      <path id="Path_38087" data-name="Path 38087" d="M375.006,171.112a12.045,12.045,0,0,1-5.162,7.806c-3.622,2.373-6.755-.543-6.882-4.618-.109-3.622,1.612-9.345,5.777-10.07a5.578,5.578,0,0,1,6.266,6.882Z" transform="translate(-233.577 -134.158)" fill="#e4897b"/>
      <path id="Path_38088" data-name="Path 38088" d="M356.751,166.433c.127,1.05-.326,1.956-1.014,2.028s-1.34-.706-1.467-1.811.326-1.956,1-2.028S356.624,165.31,356.751,166.433Z" transform="translate(-240.641 -133.79)" fill="#263238"/>
      <path id="Path_38089" data-name="Path 38089" d="M350.211,167.163c.127,1.05-.326,1.956-1.014,2.028s-1.34-.706-1.467-1.811.326-1.956,1.014-2.028S350.048,166.113,350.211,167.163Z" transform="translate(-245.946 -133.198)" fill="#263238"/>
      <path id="Path_38090" data-name="Path 38090" d="M353.009,166.4a36.459,36.459,0,0,1-4.039,9.2,6.23,6.23,0,0,0,5.089.272Z" transform="translate(-244.922 -132.344)" fill="#de5753"/>
      <path id="Path_38091" data-name="Path 38091" d="M355.9,175.516a10.618,10.618,0,0,1-1.358.254.308.308,0,1,1,0-.616,8.331,8.331,0,0,0,6.375-3.984.29.29,0,0,1,.4-.145.308.308,0,0,1,.145.417,8.531,8.531,0,0,1-5.56,4.075Z" transform="translate(-240.656 -128.619)" fill="#263238"/>
      <path id="Path_38092" data-name="Path 38092" d="M359.869,164.656a.652.652,0,0,1-.616-.181,5.017,5.017,0,0,0-4.184-1.612.6.6,0,0,1-.724-.489.616.616,0,0,1,.489-.724,6.194,6.194,0,0,1,5.307,1.974.6.6,0,0,1,0,.869.724.724,0,0,1-.272.163Z" transform="translate(-240.572 -136.233)" fill="#263238"/>
      <path id="Path_38093" data-name="Path 38093" d="M346.347,166.546a.507.507,0,0,1-.362,0,.616.616,0,0,1-.38-.779,6.067,6.067,0,0,1,4-3.948.617.617,0,1,1,.308,1.2,4.727,4.727,0,0,0-3.133,3.151.6.6,0,0,1-.435.38Z" transform="translate(-247.678 -136.076)" fill="#263238"/>
      <path id="Path_38094" data-name="Path 38094" d="M382.231,172.814s-9.056-3.314-13.185-8.567c0,0-8.222,2.155-9.907,5.433a4.093,4.093,0,0,1-.706-5.433s-6.158,1.3-7.371,5.433a5.18,5.18,0,0,1-2.9-5.433s-2.735,1.032-3.622,5.433c0,0-6.792-14.163,15.648-18.22a16.735,16.735,0,0,0-5.27-.887s15.666-6.321,28.072-.543S393.243,167,382.231,172.814Z" transform="translate(-249.297 -147.596)" fill="#263238"/>
      <path id="Path_38095" data-name="Path 38095" d="M411.516,312.493l-21.733,2.9s-8.965-62.646-12.913-82.876V189.338l11.356-2.988,8.8,2.988a211.894,211.894,0,0,1,5.56,26.442c1.069,6.773,2.028,14.018,2.88,21.353,1.177,10,2.155,20.176,2.988,29.7,1.3,15.376,2.173,28.978,2.644,37.291C411.371,309.342,411.516,312.493,411.516,312.493Z" transform="translate(-222.293 -116.163)" fill="#e99d7b"/>
      <path id="Path_38096" data-name="Path 38096" d="M379.838,234.884s1.811-30.481,11.356-46.2c0,0-.235-4.491-2.137-5.216s-9.219,3.622-9.219,3.622-4.546-3.115-5.542-1.666S370.873,196.506,379.838,234.884Z" transform="translate(-225.242 -118.568)" fill="#e99d7b"/>
      <path id="Path_38097" data-name="Path 38097" d="M379.838,234.884s1.811-30.481,11.356-46.2c0,0-.235-4.491-2.137-5.216s-9.219,3.622-9.219,3.622-4.546-3.115-5.542-1.666S370.873,196.506,379.838,234.884Z" transform="translate(-225.242 -118.568)" fill="#fff" opacity="0.7"/>
      <path id="Path_38098" data-name="Path 38098" d="M353.456,317.979l2.481,1.811s-3.622-20.194-2.137-71.267c0-2.463.163-4.836.254-7.1,1.811-43.213,8.548-51.073,9.056-51.544l-6.266,2.137-11.356,3.912C342.064,232.785,353.456,317.979,353.456,317.979Z" transform="translate(-248.267 -113.299)" fill="#e99d7b"/>
      <path id="Path_38099" data-name="Path 38099" d="M352.266,235.537s-6.266-29.63-4.4-39.844,8.548-5.669,8.548-5.669,6.14-4.962,7.969.507C364.383,190.531,355.943,196.471,352.266,235.537Z" transform="translate(-246.1 -114.856)" fill="#e99d7b"/>
      <path id="Path_38100" data-name="Path 38100" d="M352.266,235.537s-6.266-29.63-4.4-39.844,8.548-5.669,8.548-5.669,6.14-4.962,7.969.507C364.383,190.531,355.943,196.471,352.266,235.537Z" transform="translate(-246.1 -114.856)" fill="#fff" opacity="0.7"/>
      <path id="Path_38101" data-name="Path 38101" d="M397.344,223.913c-9.273-5.2-10.5-18.763-10.5-18.763.561-.217,4-1.395,7.625-2.59C395.533,209.334,396.493,216.578,397.344,223.913Z" transform="translate(-214.206 -103.015)" opacity="0.2"/>
      <path id="Path_38102" data-name="Path 38102" d="M368.076,340.646l7.806-42.47-1.5-22.476S363.674,314.675,368.076,340.646Z" transform="translate(-230.287 -43.691)" opacity="0.2"/>
      <path id="Path_38103" data-name="Path 38103" d="M401.111,268.04c-5.832-.4-10.867-.779-10.867-.779l-1.1-23.707a8.422,8.422,0,0,1,6.1-1.123,66.694,66.694,0,0,0,3.242-11.682C399.753,246.126,400.64,259.746,401.111,268.04Z" transform="translate(-212.34 -80.15)" opacity="0.2"/>
      <path id="Path_38104" data-name="Path 38104" d="M401.936,230.74,390.58,248.978l8.983,5.162,10.667-16.427Z" transform="translate(-211.172 -80.158)" fill="#e4897b"/>
      <path id="Path_38105" data-name="Path 38105" d="M390.09,187.84c7.643.833,40.134,45.422,41.565,58.861s-19.089,36.639-19.089,36.639l-13.692-8.059s13.909-21.389,14.634-27.166-25.446-29.123-25.446-29.123a52.721,52.721,0,0,1-3.224-16.771C384.475,192.4,390.09,187.84,390.09,187.84Z" transform="translate(-215.844 -114.954)" fill="#e99d7b"/>
      <path id="Path_38106" data-name="Path 38106" d="M391,237.83s11.682,2.5,16.39,9.852c0,0-4.89,15.3-8.385,16.97s-12.152,1.666-12.152,1.666S386.288,249.294,391,237.83Z" transform="translate(-214.215 -74.407)" fill="#e99d7b"/>
    </g>
  </g>
</svg>
